<svg width="145" height="41" viewBox="0 0 145 41" fill="none" xmlns="http://www.w3.org/2000/svg">
<g clip-path="url(#clip0_2606_84100)">
<path d="M71.9218 20.2557C71.8996 24.4488 69.2086 26.9205 65.2278 26.9205C60.602 26.9205 57.7109 23.6323 57.7109 19.9909C57.7109 16.2613 60.6465 13.0613 65.0277 13.0613C67.474 13.0613 69.3421 13.944 71.1212 15.6213L70.0982 16.5702C68.5859 15.1137 66.7846 14.3413 65.0499 14.3413C61.8474 14.3413 59.0898 16.7688 59.0898 19.9468C59.0898 22.9923 61.6695 25.6847 65.25 25.6847C67.7853 25.6847 70.0315 24.184 70.4096 21.5136H66.1619V20.2337H71.9218V20.2557ZM75.102 21.7123C75.0798 23.875 76.7922 25.6405 78.9717 25.6847C81.1734 25.7509 83.0192 24.0295 83.0637 21.8447C83.1304 19.6599 81.3958 17.8281 79.1941 17.784C76.9924 17.7178 75.1465 19.4392 75.102 21.624C75.102 21.6681 75.102 21.6902 75.102 21.7123ZM82.8191 16.8351H84.0645V26.6116H82.8191V24.9343C81.8628 26.1481 80.395 26.8543 78.8382 26.8543C75.9916 26.766 73.7232 24.4047 73.8122 21.5799C73.9011 18.8433 76.125 16.6585 78.8827 16.5923C80.4617 16.5702 81.9295 17.3426 82.8191 18.6447V16.8351ZM94.8727 26.5895H93.6273V21.5799C93.6273 20.8295 93.5606 20.2116 93.5384 19.7481C93.4717 18.6006 92.4709 17.7178 91.3145 17.7619C90.4027 17.7619 89.5576 18.1813 89.0016 18.9095C88.2899 19.8143 88.1787 20.9619 88.1787 22.4405V26.5895H86.9111V16.813H88.1787V18.4902C89.0461 17.2323 90.1358 16.5702 91.5591 16.5702C93.0714 16.5702 94.1389 17.3426 94.6726 18.9316C95.5399 17.3647 96.852 16.5702 98.2976 16.5702C100.344 16.5702 101.656 18.0268 101.656 20.8074V26.5895H100.388V21.2488C100.388 20.5206 100.299 19.9688 100.277 19.6157C100.21 18.755 99.3873 17.784 98.053 17.784C96.7853 17.8061 95.6734 18.6006 95.2508 19.7702C94.9617 20.5868 94.8505 21.4695 94.895 22.3302L94.8727 26.5895ZM113.398 21.6902C113.42 19.5275 111.686 17.7619 109.506 17.7178C107.371 17.6737 105.614 19.373 105.592 21.4916C105.592 21.5578 105.592 21.6019 105.592 21.6681C105.592 23.8088 107.327 25.5522 109.484 25.5522C111.641 25.5522 113.376 23.8309 113.398 21.6902ZM105.681 26.6116H104.413V13.0613H105.681V18.5123C106.615 17.2985 108.083 16.5702 109.64 16.5923C112.508 16.6806 114.755 19.0419 114.666 21.8888C114.577 24.6254 112.353 26.8322 109.595 26.8764C108.016 26.8764 106.548 26.104 105.681 24.824V26.6116ZM117.824 21.7123C117.801 23.875 119.514 25.6405 121.693 25.6847C123.895 25.7509 125.741 24.0295 125.785 21.8447C125.852 19.6599 124.117 17.8281 121.916 17.784C119.714 17.7178 117.868 19.4392 117.824 21.624C117.824 21.6681 117.824 21.6902 117.824 21.7123ZM125.541 16.8351H126.786V26.6116H125.541V24.9343C124.584 26.1481 123.117 26.8543 121.56 26.8543C118.713 26.766 116.445 24.4047 116.534 21.5578C116.623 18.8212 118.847 16.6364 121.604 16.5702C123.183 16.5482 124.651 17.3206 125.541 18.6226V16.8351ZM130.9 18.5785C131.923 17.2544 133.147 16.5702 134.592 16.5702C136.749 16.5702 138.239 18.0488 138.239 21.1164V26.6116H136.972V21.293C136.972 18.9978 136.238 17.7178 134.325 17.7178C133.302 17.7178 132.324 18.2033 131.723 19.0419C130.989 19.9909 130.878 20.9619 130.878 22.5067V26.6116H129.61V16.8351H130.878L130.9 18.5785Z" fill="#132F3F"/>
<path d="M36.5169 32.1508C36.25 32.4156 36.0054 32.6363 35.7608 32.857L35.5161 33.0556C35.316 33.2101 35.1158 33.3867 34.9157 33.5412L34.6933 33.7177C34.4264 33.9163 34.1595 34.0929 33.8927 34.2694L33.6703 34.4018C33.4479 34.5343 33.2477 34.6667 33.0031 34.7991L32.7362 34.9536C32.4694 35.086 32.2025 35.2405 31.9356 35.3508L31.8689 35.3949C31.5575 35.5274 31.2684 35.6598 30.9571 35.7922L30.7347 35.8805C30.4901 35.9687 30.2232 36.057 29.9563 36.1453C29.8896 36.1674 29.8229 36.1894 29.7562 36.2115C29.4448 36.2998 29.1112 36.388 28.7776 36.4763C28.7554 36.4763 28.7332 36.4984 28.6887 36.4984C28.3996 36.5646 28.0882 36.6308 27.7991 36.6749L27.5767 36.7191C27.2654 36.7632 26.954 36.8073 26.6427 36.8515H26.5759C26.2424 36.8736 25.9088 36.8956 25.5752 36.9177H24.3075C23.974 36.9177 23.6848 36.8956 23.3513 36.8515L23.1289 36.8294C22.7508 36.7853 22.395 36.7411 22.0169 36.6749L21.5054 36.5646C21.2163 36.4984 20.9049 36.4322 20.6158 36.3439L20.2822 36.2556L20.1043 36.1894L24.4855 31.8639C30.668 32.1067 35.8942 27.3177 36.1166 21.1826C36.2055 18.9536 35.6273 16.7688 34.4264 14.8709L31.6687 17.6075V24.2943H27.043V15.0695L34.4931 7.63233C35.1825 8.13991 35.8275 8.66957 36.4502 9.26543C42.8773 15.5771 42.8773 25.8171 36.5169 32.1508ZM13.3213 32.195C6.96092 25.8612 6.96092 15.6213 13.3213 9.30956L13.3436 9.28749C13.5882 9.04474 13.8329 8.82405 14.0775 8.60336L14.3221 8.40474C14.5223 8.25026 14.7224 8.07371 14.9003 7.91923L15.1227 7.74267C15.3896 7.54405 15.6565 7.3675 15.9233 7.19095L16.1457 7.05854C16.3681 6.92613 16.5683 6.79372 16.8129 6.6613L17.0798 6.50682C17.3467 6.37441 17.6135 6.21993 17.8804 6.10958L17.9471 6.06544C18.2585 5.93303 18.5476 5.80062 18.8589 5.6682L19.0813 5.57993C19.3259 5.49165 19.5928 5.40338 19.8597 5.3151L20.0598 5.2489C20.3712 5.16062 20.7048 5.07234 21.0384 4.98407H21.1273C21.4164 4.91786 21.7278 4.85166 22.0169 4.80752L22.2393 4.76338C22.5506 4.71924 22.862 4.67511 23.1733 4.63097H23.2401C23.5736 4.6089 23.9072 4.58683 24.2408 4.56476H25.5085C25.8421 4.56476 26.1312 4.58683 26.4648 4.63097L26.6871 4.65304C26.9318 4.6751 27.1542 4.71924 27.3988 4.74131L27.7991 4.80752C27.977 4.82959 28.1327 4.87373 28.3106 4.91786C28.5997 4.98407 28.9111 5.05028 29.2002 5.13855L29.5338 5.22683L29.7117 5.29303L25.3305 9.61853C19.148 9.37577 13.9218 14.1426 13.6772 20.2998C13.566 22.5509 14.1442 24.7578 15.3451 26.6336L18.1028 23.8971V17.2102H22.7286V26.435L15.2784 33.8722C14.589 33.3646 13.9218 32.8129 13.3213 32.195ZM24.908 0.768921C13.7884 0.768921 4.80371 9.70681 4.80371 20.7192C4.80371 31.7315 13.8106 40.6694 24.908 40.6694C36.0054 40.6694 45.0123 31.7315 45.0123 20.7192C45.0345 9.70681 36.0276 0.768921 24.908 0.768921Z" fill="#DD6048"/>
</g>
<defs>
<clipPath id="clip0_2606_84100">
<rect width="145" height="40" fill="white" transform="translate(0 0.5)"/>
</clipPath>
</defs>
</svg>
