<svg width="53" height="53" viewBox="0 0 53 53" fill="none" xmlns="http://www.w3.org/2000/svg">
<rect width="53" height="53" rx="26.5" fill="#1A2034" fill-opacity="0.25"/>
<rect x="0.6625" y="0.6625" width="51.675" height="51.675" rx="25.8375" stroke="white" stroke-opacity="0.2" stroke-width="1.325"/>
<path d="M12.4921 31.2749V28.882H15.5343V22.0741H12.4735V20.2748C12.9682 20.2377 13.5061 20.1325 14.0874 19.9594C14.681 19.7863 15.2622 19.576 15.8311 19.3287C16.4123 19.069 16.9317 18.7969 17.3893 18.5125H18.5765V28.882H21.4517V31.2749H12.4921ZM27.9813 31.4975C26.8931 31.4975 25.9779 31.3429 25.2359 31.0338C24.4939 30.7246 23.9312 30.2918 23.5479 29.7353C23.1645 29.1788 22.9728 28.5233 22.9728 27.769C22.9728 27.0393 23.146 26.4395 23.4922 25.9696C23.8509 25.4873 24.3579 25.0916 25.0133 24.7824C24.4197 24.3619 23.9993 23.9291 23.7519 23.4839C23.5046 23.0387 23.3809 22.5317 23.3809 21.9628C23.3809 21.2208 23.5726 20.5777 23.956 20.0336C24.3393 19.4895 24.8711 19.069 25.5513 18.7722C26.2438 18.463 27.0538 18.3085 27.9813 18.3085C28.8965 18.3085 29.7003 18.463 30.3928 18.7722C31.0854 19.069 31.6233 19.4895 32.0067 20.0336C32.4024 20.5777 32.6003 21.2208 32.6003 21.9628C32.6003 22.544 32.4704 23.0634 32.2107 23.521C31.9634 23.9662 31.5429 24.3867 30.9493 24.7824C31.6171 25.0916 32.1242 25.4873 32.4704 25.9696C32.8291 26.4395 33.0084 27.0393 33.0084 27.769C33.0084 28.5233 32.8105 29.1788 32.4148 29.7353C32.0314 30.2918 31.4687 30.7246 30.7267 31.0338C29.9847 31.3429 29.0696 31.4975 27.9813 31.4975ZM27.9813 29.2901C28.5749 29.2901 29.0449 29.1417 29.3911 28.8449C29.7498 28.5481 29.9291 28.1214 29.9291 27.5649C29.9291 26.996 29.7498 26.5694 29.3911 26.285C29.0325 25.9882 28.5626 25.8398 27.9813 25.8398C27.4125 25.8398 26.9487 25.9882 26.5901 26.285C26.2314 26.5694 26.0521 26.996 26.0521 27.5649C26.0521 28.1214 26.2253 28.5481 26.5715 28.8449C26.9178 29.1417 27.3877 29.2901 27.9813 29.2901ZM27.9813 23.7065C28.5007 23.7065 28.9336 23.5767 29.2798 23.317C29.6385 23.0573 29.8178 22.6553 29.8178 22.1112C29.8178 21.5794 29.6446 21.1775 29.2984 20.9055C28.9645 20.6334 28.5255 20.4974 27.9813 20.4974C27.4372 20.4974 26.9982 20.6334 26.6643 20.9055C26.3427 21.1775 26.182 21.5794 26.182 22.1112C26.182 22.6553 26.3489 23.0573 26.6828 23.317C27.0167 23.5767 27.4496 23.7065 27.9813 23.7065ZM38.7218 31.2749V27.5278H35.1416V25.376H38.7218V21.6289H40.8736V25.376H44.4723V27.5278H40.8736V31.2749H38.7218Z" fill="white"/>
</svg>
