<svg width="99" height="29" viewBox="0 0 99 29" fill="none" xmlns="http://www.w3.org/2000/svg">
<g clip-path="url(#clip0_2606_84033)">
<mask id="mask0_2606_84033" style="mask-type:luminance" maskUnits="userSpaceOnUse" x="0" y="0" width="99" height="29">
<path d="M0 0H99V29H0V0Z" fill="white"/>
</mask>
<g mask="url(#mask0_2606_84033)">
<path d="M37.932 7.41768C37.912 7.46042 37.8834 7.49832 37.848 7.52887C37.8126 7.55941 37.7714 7.5819 37.7269 7.59485L35.8529 8.16443C35.6235 8.23239 35.5046 8.16443 35.4109 7.92925C35.3032 7.46307 35.0344 7.05272 34.6541 6.77426C34.2738 6.49581 33.808 6.36814 33.3429 6.41491C31.579 6.41491 30.9753 7.4861 30.9753 8.92839V12.2466C30.9753 13.6889 31.5706 14.7601 33.3429 14.7601C34.8015 14.7601 35.5475 14.0641 35.5475 12.5493V12.0962H33.6426C33.6061 12.0993 33.5693 12.094 33.5351 12.0805C33.5009 12.067 33.4701 12.0458 33.4451 12.0183C33.42 11.9909 33.4014 11.958 33.3905 11.9221C33.3796 11.8863 33.3768 11.8483 33.3823 11.8112V10.0132C33.3777 9.97618 33.3811 9.93858 33.3922 9.90309C33.4034 9.86759 33.4221 9.83507 33.447 9.80784C33.4719 9.78061 33.5023 9.75935 33.5361 9.74558C33.5699 9.7318 33.6063 9.72586 33.6426 9.72816H37.8856C37.9218 9.72255 37.9588 9.72543 37.9938 9.73659C38.0288 9.74774 38.0609 9.76687 38.0876 9.79256C38.1144 9.81824 38.1351 9.8498 38.1483 9.88487C38.1614 9.91994 38.1666 9.95761 38.1636 9.99505V12.7374C38.1636 15.3591 36.2852 17.3348 33.3659 17.3348C29.9044 17.3348 28.2863 15.2327 28.2863 12.3622V8.85589C28.2863 5.96722 29.9044 3.8833 33.3659 3.8833C36.1658 3.8833 37.4321 5.51999 37.9386 7.16075M47.4631 10.4233V16.8576C47.465 16.8932 47.4596 16.9288 47.4472 16.962C47.4348 16.9953 47.4157 17.0255 47.3911 17.0507C47.3666 17.0759 47.3371 17.0955 47.3047 17.1082C47.2722 17.1209 47.2375 17.1265 47.2028 17.1245H45.2891C45.2531 17.1285 45.2168 17.1244 45.1825 17.1126C45.1482 17.1009 45.1168 17.0817 45.0904 17.0563C45.0641 17.031 45.0433 17.0002 45.0296 16.9659C45.0159 16.9316 45.0096 16.8947 45.0111 16.8576V15.8041C44.7393 16.2731 44.3514 16.6601 43.8869 16.926C43.4223 17.1919 42.8974 17.3273 42.3654 17.3185C40.5577 17.3185 39.3891 16.1249 39.3891 14.2898C39.3891 12.4546 40.487 11.4351 43.1636 11.243C43.7419 11.1977 44.3227 11.1977 44.901 11.243V10.5107C44.901 9.54782 44.4148 9.1545 43.5782 9.1545C43.2876 9.11234 42.992 9.18146 42.748 9.34864C42.5039 9.51583 42.3286 9.76935 42.2554 10.0608C42.167 10.2733 42.1011 10.3095 41.9071 10.2551L39.9933 9.75671C39.8037 9.70233 39.786 9.59403 39.8214 9.45402C40.0817 8.04344 41.3869 7.00714 43.6798 7.00714C46.0961 7.00714 47.4543 8.18527 47.4543 10.3974M44.897 13.7655V12.866C44.3864 12.8471 43.8751 12.8653 43.3669 12.9204C42.3968 13.0423 41.8722 13.3455 41.8722 14.114C41.8722 14.8054 42.3141 15.1806 43.0717 15.1806C43.4829 15.1893 43.8853 15.0577 44.2157 14.8065C44.5461 14.5553 44.7858 14.1987 44.897 13.7927M54.3685 7.03433C54.904 7.02442 55.4277 7.19611 55.8583 7.52272C56.2888 7.84933 56.6021 8.31257 56.7495 8.84049C57.4637 7.7693 58.3326 7.03207 59.5494 7.03207C61.2337 7.03207 62.195 8.38827 62.195 10.4541V16.8576C62.1923 16.8965 62.1819 16.9344 62.1645 16.9691C62.1472 17.0037 62.1232 17.0344 62.094 17.0593C62.0647 17.0843 62.0309 17.1029 61.9945 17.1141C61.9581 17.1253 61.9199 17.1288 61.8821 17.1245H59.8848C59.847 17.1289 59.8088 17.1254 59.7723 17.1142C59.7359 17.103 59.7021 17.0844 59.6728 17.0595C59.6436 17.0346 59.6196 17.0038 59.6022 16.9691C59.5849 16.9344 59.5746 16.8965 59.5719 16.8576V10.9217C59.5719 10.0154 59.1883 9.49299 58.5112 9.49299C57.8341 9.49299 57.2767 10.1033 57.0164 11.03V16.8572C57.0188 16.8913 57.0144 16.9256 57.0033 16.9579C56.9922 16.9903 56.9747 17.0199 56.9519 17.0449C56.9291 17.07 56.9015 17.0899 56.8709 17.1036C56.8402 17.1172 56.8072 17.1242 56.7738 17.1241H54.6103C54.4561 17.1241 54.3853 17.0158 54.3853 16.8572V10.9212C54.3853 10.015 54.0017 9.49254 53.3246 9.49254C52.6475 9.49254 52.0725 10.1346 51.8298 11.0477V16.8567C51.8333 16.8926 51.8289 16.9289 51.817 16.9629C51.8052 16.9969 51.7861 17.0277 51.7612 17.0532C51.7363 17.0788 51.7062 17.0983 51.6731 17.1105C51.6399 17.1226 51.6046 17.1271 51.5695 17.1236H49.448C49.413 17.1271 49.3776 17.1226 49.3445 17.1105C49.3113 17.0983 49.2812 17.0788 49.2564 17.0532C49.2315 17.0277 49.2124 16.9969 49.2005 16.9629C49.1887 16.9289 49.1843 16.8926 49.1877 16.8567V7.49969C49.1876 7.46544 49.1944 7.43154 49.2077 7.40011C49.221 7.36868 49.2405 7.34041 49.2649 7.31706C49.2894 7.2937 49.3182 7.27577 49.3497 7.26439C49.3813 7.25302 49.4147 7.24843 49.448 7.25093H51.4811C51.5146 7.24772 51.5483 7.25181 51.5802 7.26293C51.612 7.27405 51.6411 7.29195 51.6657 7.31544C51.6903 7.33894 51.7098 7.3675 51.7228 7.39926C51.7359 7.43101 51.7422 7.46524 51.7414 7.49969V8.62072C52.0215 8.154 52.4094 7.76517 52.8708 7.48857C53.3322 7.21197 53.853 7.05613 54.3871 7.03479M73.1317 7.25183C73.1847 7.48247 73.1317 7.65964 72.9067 7.70496L71.0637 8.25641C71.0222 8.27689 70.9765 8.28697 70.9305 8.28582C70.8844 8.28467 70.8393 8.27233 70.7988 8.24981C70.7584 8.22729 70.7237 8.19524 70.6976 8.15629C70.6716 8.11734 70.655 8.0726 70.6491 8.02577C70.3839 7.11952 69.9349 6.4208 68.6474 6.4208C67.0642 6.4208 66.5617 7.49199 66.5617 8.93428V12.2525C66.5617 13.6948 67.1363 14.766 68.6474 14.766C70.0056 14.766 70.5258 13.9794 70.7331 12.9988C70.7377 12.9509 70.7537 12.9048 70.7798 12.8647C70.8059 12.8247 70.8412 12.7918 70.8826 12.769C70.924 12.7462 70.9702 12.7342 71.0172 12.7341C71.0642 12.7339 71.1105 12.7456 71.1521 12.7682L72.9995 13.3831C73.0442 13.3963 73.0858 13.4188 73.1216 13.4491C73.1575 13.4795 73.1868 13.5171 73.2079 13.5596C73.229 13.6021 73.2414 13.6485 73.2442 13.6961C73.2471 13.7437 73.2404 13.7914 73.2245 13.8362C72.7825 15.762 71.434 17.3253 68.6165 17.3253C65.455 17.3253 63.8542 15.2232 63.8542 12.3527V8.85589C63.8542 5.96722 65.4855 3.8833 68.6165 3.8833C71.3633 3.8833 72.6512 5.37861 73.1361 7.26905M82.384 10.4264V16.8608C82.3859 16.8964 82.3804 16.9319 82.368 16.9652C82.3556 16.9985 82.3365 17.0287 82.312 17.0539C82.2874 17.0791 82.2579 17.0987 82.2255 17.1114C82.193 17.1241 82.1583 17.1297 82.1236 17.1277H80.2099C80.1739 17.1316 80.1376 17.1276 80.1033 17.1158C80.069 17.1041 80.0376 17.0849 80.0113 17.0595C79.9849 17.0342 79.9641 17.0033 79.9504 16.969C79.9367 16.9347 79.9304 16.8978 79.9319 16.8608V15.8041C79.6601 16.2731 79.2723 16.6601 78.8077 16.926C78.3431 17.1919 77.8182 17.3273 77.2862 17.3185C75.4785 17.3185 74.3144 16.1249 74.3144 14.2898C74.3144 12.4546 75.4078 11.4351 78.0844 11.243C78.6642 11.1977 79.2465 11.1977 79.8262 11.243V10.5107C79.8262 9.54782 79.337 9.1545 78.5034 9.1545C78.2131 9.11477 77.9187 9.18487 77.6752 9.35169C77.4317 9.5185 77.2559 9.77059 77.1806 10.0608C77.0966 10.2733 77.0263 10.3095 76.8323 10.2551L74.923 9.75671C74.729 9.70233 74.7113 9.59403 74.7462 9.45402C75.0065 8.04344 76.3117 7.00714 78.6086 7.00714C81.0249 7.00714 82.3787 8.18527 82.3787 10.3974M79.8258 13.7655V12.866C79.3152 12.847 78.8038 12.8652 78.2957 12.9204C77.3233 13.0423 76.8009 13.3455 76.8009 14.114C76.8009 14.8054 77.2429 15.1806 78.0005 15.1806C78.4115 15.1885 78.8136 15.0566 79.1438 14.8055C79.474 14.5544 79.7139 14.1983 79.8258 13.7927M89.8308 7.42764V9.3353C89.8308 9.56594 89.7424 9.65611 89.5179 9.65611H89.2359C87.8468 9.65611 87.0313 10.2982 86.7533 11.3694V16.8576C86.7557 16.8907 86.7516 16.9239 86.7414 16.9553C86.7311 16.9867 86.7148 17.0157 86.6934 17.0406C86.672 17.0654 86.646 17.0856 86.6169 17.1001C86.5878 17.1145 86.5562 17.1228 86.5239 17.1245H84.3194C84.2871 17.1228 84.2555 17.1145 84.2264 17.1001C84.1973 17.0856 84.1713 17.0654 84.1499 17.0406C84.1285 17.0157 84.1122 16.9867 84.1019 16.9553C84.0916 16.9239 84.0876 16.8907 84.09 16.8576V7.49969C84.0885 7.46504 84.0943 7.43046 84.1071 7.39835C84.1199 7.36624 84.1394 7.33736 84.1641 7.31371C84.1889 7.29006 84.2183 7.27219 84.2505 7.26135C84.2826 7.25051 84.3167 7.24696 84.3503 7.25093H86.3343C86.5416 7.25093 86.5946 7.39094 86.5946 7.53594V8.85589C86.8494 8.31681 87.2511 7.86503 87.7512 7.55531C88.2513 7.24559 88.8283 7.09122 89.4122 7.11091C89.7605 7.11091 89.8542 7.16528 89.8542 7.4136M93.245 12.987V13.3622C93.245 14.3976 93.7696 15.1253 95.0089 15.1253C96.2482 15.1253 96.5391 14.6722 96.852 14.0763C97.0062 13.8095 97.0769 13.7737 97.3545 13.8951L98.7246 14.6092C99.007 14.7538 99.0243 14.8942 98.9014 15.1607C98.3105 16.5169 96.8334 17.3171 94.9904 17.3171C92.2059 17.3171 90.7474 15.6265 90.7474 13.3074V11.0486C90.7474 8.78838 92.1176 7.03433 94.9718 7.03433C97.6838 7.03433 99.0066 8.80152 99.0066 10.9946V12.5634C99.0066 12.8303 98.9182 13.0165 98.5646 13.0165L93.245 12.987ZM93.245 10.9027V11.242H96.6005V10.9031C96.6215 10.6732 96.5928 10.4413 96.5165 10.224C96.4402 10.0066 96.3182 9.8092 96.1591 9.64567C96.0001 9.48213 95.8078 9.35652 95.596 9.27774C95.3843 9.19896 95.1582 9.16895 94.9338 9.18985C94.7084 9.16867 94.4812 9.1983 94.2681 9.27665C94.055 9.355 93.8613 9.48017 93.7004 9.64341C93.5395 9.80664 93.4154 10.004 93.3367 10.2216C93.258 10.4392 93.2267 10.6713 93.245 10.9027Z" fill="black"/>
<path d="M12.0243 1.81269e-05H0.357115C0.310386 -0.000460981 0.264027 0.00856166 0.22072 0.0265644C0.177413 0.0445671 0.138016 0.0711927 0.104808 0.104902C0.0715996 0.138611 0.0452385 0.178734 0.0272488 0.222953C0.00925906 0.267171 -2.3362e-06 0.314607 4.4204e-10 0.362518V17.758C0.00140618 20.7389 1.1574 23.5971 3.21382 25.7044C5.27024 27.8117 8.05875 28.9955 10.9663 28.9955H12.0243C14.9314 28.9955 17.7193 27.8115 19.7749 25.7041C21.8305 23.5967 22.9853 20.7384 22.9853 17.758V11.2384C22.9853 9.76269 22.7018 8.30142 22.151 6.93802C21.6001 5.57462 20.7927 4.33581 19.7749 3.29231C18.7571 2.24881 17.5488 1.42107 16.2189 0.856328C14.8891 0.291591 13.4638 0.000924365 12.0243 0.000924365M19.4632 17.9469C19.4632 22.1782 16.4339 25.3746 11.7158 25.3746C6.1293 25.3746 3.51856 21.9761 3.51856 17.337V11.6725C3.51856 7.00533 6.12885 3.61233 11.707 3.61233C16.2266 3.61233 18.277 6.2613 19.0928 8.91072C19.1243 8.98103 19.1406 9.05747 19.1406 9.13482C19.1406 9.21216 19.1243 9.28861 19.0929 9.35893C19.0615 9.42925 19.0157 9.4918 18.9585 9.5423C18.9014 9.5928 18.8343 9.63008 18.7618 9.65158L15.7281 10.5578C15.3666 10.6707 15.1681 10.5578 15.0581 10.1826C14.5776 8.60033 13.5677 7.73577 11.7158 7.73577C8.84965 7.73577 7.89719 9.46263 7.89719 11.8044V17.1694C7.89719 19.5021 8.84965 21.238 11.7158 21.238C14.0747 21.238 15.3095 20.1124 15.3095 17.6665V16.9659H12.1481C12.0881 16.9743 12.0271 16.9684 11.9697 16.9486C11.9124 16.9288 11.8603 16.8956 11.8175 16.8518C11.7747 16.8079 11.7424 16.7545 11.723 16.6957C11.7037 16.6369 11.6979 16.5743 11.7061 16.5128V13.5439C11.7013 13.4832 11.7095 13.4221 11.73 13.3649C11.7505 13.3076 11.7829 13.2557 11.8249 13.2126C11.867 13.1695 11.9176 13.1363 11.9734 13.1152C12.0292 13.0942 12.0888 13.0859 12.1481 13.0908H19.0133C19.0711 13.0831 19.1299 13.0887 19.1854 13.1072C19.2409 13.1257 19.2916 13.1567 19.3339 13.1978C19.3763 13.2389 19.4091 13.2892 19.4301 13.345C19.4511 13.4008 19.4597 13.4607 19.4553 13.5204L19.4632 17.9469Z" fill="#2E008B"/>
<path d="M30.8745 20.971C30.8795 20.98 30.8825 20.9901 30.8831 21.0004C30.8838 21.0107 30.8821 21.021 30.8783 21.0306C30.8745 21.0402 30.8686 21.0487 30.861 21.0556C30.8535 21.0625 30.8445 21.0675 30.8348 21.0703L30.5254 21.1695C30.4768 21.1695 30.4502 21.1695 30.4286 21.1287C30.3841 20.953 30.2805 20.799 30.1361 20.694C29.9916 20.589 29.8157 20.5396 29.6392 20.5546C29.5193 20.5378 29.3972 20.5497 29.2825 20.5893C29.1678 20.6289 29.0635 20.6952 28.978 20.7829C28.8924 20.8707 28.8277 20.9775 28.7891 21.0951C28.7505 21.2127 28.7389 21.3379 28.7553 21.4609V22.6589C28.7389 22.7819 28.7505 22.9071 28.7891 23.0247C28.8277 23.1423 28.8924 23.2491 28.978 23.3369C29.0635 23.4246 29.1678 23.4909 29.2825 23.5305C29.3972 23.5701 29.5193 23.582 29.6392 23.5652C30.1373 23.5652 30.4639 23.33 30.4639 22.8012V22.3481H29.7413C29.7015 22.3481 29.6794 22.3481 29.6794 22.2801V22.0291C29.6794 21.9838 29.6794 21.9611 29.7413 21.9611H30.8613C30.8705 21.9597 30.8799 21.9605 30.8888 21.9633C30.8977 21.9662 30.9058 21.971 30.9126 21.9776C30.9194 21.9841 30.9247 21.9921 30.9281 22.0011C30.9314 22.01 30.9328 22.0196 30.932 22.0291V22.861C30.9335 23.03 30.9002 23.1973 30.8342 23.3521C30.7682 23.5069 30.671 23.6457 30.549 23.7592C30.427 23.8728 30.2829 23.9586 30.1263 24.0111C29.9697 24.0635 29.804 24.0814 29.6401 24.0636C29.4599 24.0853 29.2772 24.0654 29.1054 24.0054C28.9336 23.9453 28.7771 23.8467 28.6473 23.7166C28.5175 23.5866 28.4178 23.4284 28.3553 23.2537C28.2928 23.079 28.2693 22.8922 28.2863 22.707V21.4382C28.2693 21.253 28.293 21.0662 28.3555 20.8916C28.4179 20.717 28.5177 20.5589 28.6475 20.4289C28.7773 20.2988 28.9338 20.2002 29.1055 20.1402C29.2772 20.0802 29.4599 20.0603 29.6401 20.082C29.9129 20.0597 30.1849 20.1348 30.4099 20.2946C30.6349 20.4544 30.799 20.6891 30.8745 20.9588M33.2554 23.1198V22.6666C33.0469 22.6531 32.8377 22.6531 32.6292 22.6666C32.2411 22.7119 32.0073 22.852 32.0073 23.1818C32.0023 23.251 32.0129 23.3205 32.0382 23.3848C32.0635 23.4492 32.1029 23.5067 32.1533 23.553C32.2038 23.5993 32.2639 23.6331 32.3291 23.6518C32.3943 23.6704 32.4627 23.6735 32.5293 23.6608C32.69 23.659 32.8462 23.6062 32.9764 23.5095C33.1065 23.4128 33.2042 23.2771 33.2559 23.1211M33.6979 21.9638V23.9395C33.6979 23.9802 33.6979 23.9984 33.6316 23.9984H33.3222C33.278 23.9984 33.2559 23.9984 33.2559 23.9395V23.5643C33.1711 23.7113 33.0505 23.8332 32.9059 23.918C32.7614 24.0029 32.5977 24.0477 32.4312 24.0482C32.3172 24.0602 32.2022 24.047 32.0936 24.0096C31.9851 23.9722 31.8856 23.9114 31.8019 23.8313C31.7181 23.7512 31.6521 23.6537 31.6082 23.5452C31.5643 23.4368 31.5435 23.32 31.5472 23.2027C31.5472 22.6739 31.8955 22.3843 32.5748 22.3304C32.7964 22.3147 33.0188 22.3147 33.2404 22.3304V21.9974C33.2404 21.6176 33.0243 21.4595 32.676 21.4595C32.5521 21.4384 32.4249 21.4657 32.3196 21.536C32.2143 21.6063 32.1385 21.7145 32.1072 21.8392C32.1072 21.8891 32.0718 21.8936 32.0188 21.8845L31.7191 21.7984C31.6705 21.7984 31.6573 21.7622 31.6705 21.7214C31.7629 21.3236 32.1125 21.0657 32.6871 21.0657C33.2616 21.0657 33.6926 21.3553 33.6926 21.972M35.7208 21.0589C35.8737 21.0557 36.0233 21.1051 36.1456 21.1993C36.2679 21.2936 36.3558 21.4271 36.3952 21.5787C36.4769 21.4271 36.5953 21.2997 36.739 21.2086C36.8827 21.1176 37.0468 21.0661 37.2155 21.0589C37.3232 21.0599 37.4294 21.0841 37.5272 21.1302C37.6251 21.1762 37.7123 21.243 37.7831 21.3261C37.854 21.4092 37.9069 21.5067 37.9383 21.6122C37.9698 21.7178 37.979 21.829 37.9656 21.9385V23.9322C37.9656 23.9775 37.939 23.9956 37.8948 23.9956H37.5908C37.5422 23.9956 37.5201 23.9956 37.5201 23.9322V22.0291C37.5201 21.6765 37.3658 21.4853 37.0781 21.4853C36.9344 21.5022 36.799 21.5631 36.6897 21.6601C36.5803 21.7571 36.502 21.8857 36.4651 22.0291V23.9413C36.4651 23.9866 36.4651 24.0047 36.4032 24.0047H36.0651C36.0165 24.0047 36.0032 24.0047 36.0032 23.9413V22.0291C36.0032 21.6765 35.8534 21.4853 35.5612 21.4853C35.419 21.5064 35.2857 21.5688 35.1771 21.6652C35.0684 21.7616 34.989 21.8878 34.9482 22.0291V23.9186C34.9482 23.9639 34.9482 23.982 34.8863 23.982H34.5513C34.5027 23.982 34.4894 23.982 34.4894 23.9186V21.17C34.4894 21.1337 34.4894 21.111 34.5513 21.111H34.8775C34.9261 21.111 34.9394 21.1337 34.9394 21.17V21.5497C35.019 21.4063 35.1327 21.2859 35.27 21.1998C35.4072 21.1136 35.5635 21.0646 35.7243 21.0571M39.2252 22.228V22.8973C39.2188 22.9938 39.2325 23.0905 39.2653 23.1812C39.2981 23.2719 39.3494 23.3543 39.4157 23.4231C39.482 23.4919 39.5617 23.5455 39.6497 23.5803C39.7378 23.6151 39.832 23.6303 39.9262 23.625C40.3319 23.625 40.5745 23.3807 40.5745 22.8973V22.2235C40.5745 21.7441 40.3319 21.4867 39.9262 21.4867C39.8322 21.4845 39.7389 21.5025 39.6522 21.5395C39.5654 21.5765 39.4872 21.6317 39.4224 21.7014C39.3577 21.7712 39.3079 21.8541 39.2762 21.9448C39.2445 22.0355 39.2317 22.1319 39.2385 22.228M39.2385 20.067V21.5093C39.3248 21.365 39.4472 21.2469 39.593 21.1673C39.7387 21.0876 39.9026 21.0493 40.0676 21.0562C40.2044 21.054 40.3401 21.0818 40.4656 21.1376C40.5911 21.1935 40.7035 21.2761 40.7953 21.3801C40.8872 21.4841 40.9563 21.607 40.9981 21.7405C41.0399 21.8741 41.0534 22.0153 41.0377 22.1546V22.9548C41.053 23.0954 41.0385 23.2376 40.9954 23.3719C40.9522 23.5062 40.8814 23.6295 40.7877 23.7332C40.694 23.837 40.5796 23.9189 40.4523 23.9733C40.325 24.0277 40.1878 24.0534 40.0499 24.0487C39.8864 24.054 39.7243 24.0149 39.5803 23.9353C39.4362 23.8557 39.3152 23.7385 39.2296 23.5955V23.9299C39.2296 23.9707 39.1987 23.9843 39.1677 23.9843H38.8416C38.8018 23.9843 38.7797 23.9843 38.7797 23.9299V20.067C38.779 20.0591 38.78 20.0512 38.7827 20.0437C38.7853 20.0363 38.7895 20.0295 38.795 20.0239C38.8005 20.0182 38.8071 20.0139 38.8144 20.0112C38.8217 20.0085 38.8294 20.0074 38.8371 20.0081H39.1854C39.2252 20.0081 39.2385 20.0081 39.2385 20.067ZM42.2191 20.067V23.9322C42.2191 23.9775 42.2191 23.9956 42.1573 23.9956H41.8222C41.7692 23.9956 41.7559 23.9956 41.7559 23.9322V20.067C41.7559 20.0263 41.7559 20.0036 41.8222 20.0036H42.1573C42.1657 20.002 42.1744 20.0025 42.1827 20.0051C42.1909 20.0077 42.1984 20.0124 42.2045 20.0186C42.2106 20.0249 42.2151 20.0325 42.2177 20.041C42.2202 20.0494 42.2207 20.0584 42.2191 20.067ZM43.4549 21.1727V23.9367C43.4549 23.9775 43.4549 23.9956 43.3974 23.9956H43.0624C43.0094 23.9956 42.9961 23.9956 42.9961 23.9367V21.1727C42.9961 21.1319 42.9961 21.1138 43.0624 21.1138H43.3974C43.4416 21.1138 43.4549 21.1138 43.4549 21.1727ZM43.4549 20.0852V20.5913C43.4549 20.6412 43.4549 20.6683 43.3798 20.6683H43.0704C43.0602 20.6699 43.0497 20.6689 43.0399 20.6656C43.0302 20.6623 43.0213 20.6566 43.014 20.6491C43.0067 20.6417 43.0012 20.6325 42.9979 20.6225C42.9947 20.6125 42.9937 20.6018 42.9952 20.5913V20.0852C42.9937 20.0747 42.9947 20.064 42.9979 20.054C43.0012 20.0439 43.0067 20.0348 43.014 20.0273C43.0213 20.0199 43.0302 20.0142 43.0399 20.0109C43.0497 20.0076 43.0602 20.0066 43.0704 20.0081H43.3798C43.4372 20.0081 43.4549 20.0353 43.4549 20.0852ZM44.7114 22.0517V23.9367C44.7114 23.9775 44.7114 23.9956 44.654 23.9956H44.3366C44.2836 23.9956 44.2703 23.9956 44.2703 23.9367V21.17C44.2703 21.1337 44.2703 21.111 44.3322 21.111H44.6584C44.707 21.111 44.7203 21.1337 44.7203 21.17V21.5497C44.817 21.3997 44.9482 21.2763 45.1023 21.1904C45.2565 21.1045 45.4288 21.0588 45.6042 21.0571C45.7224 21.0539 45.8399 21.0772 45.9485 21.1254C46.057 21.1736 46.154 21.2455 46.2325 21.3362C46.3111 21.4268 46.3694 21.534 46.4033 21.6501C46.4372 21.7663 46.446 21.8887 46.4289 22.0087V23.9367C46.4289 23.9775 46.4289 23.9956 46.3626 23.9956H46.0276C45.9834 23.9956 45.9613 23.9956 45.9613 23.9367V22.0835C45.9613 21.7128 45.7982 21.4944 45.4455 21.4944C45.2868 21.5045 45.1346 21.5628 45.0082 21.6618C44.8818 21.7608 44.787 21.896 44.7357 22.0504M47.5135 22.0957C47.5063 22.1815 47.5179 22.2678 47.5474 22.3484C47.5769 22.429 47.6235 22.5019 47.6839 22.5617C47.7444 22.6214 47.817 22.6666 47.8967 22.694C47.9763 22.7213 48.0609 22.7301 48.1442 22.7196C48.2253 22.7305 48.3078 22.7223 48.3853 22.6956C48.4628 22.669 48.5334 22.6245 48.5916 22.5657C48.6499 22.5068 48.6943 22.4351 48.7215 22.356C48.7486 22.277 48.7578 22.1926 48.7484 22.1093C48.7544 22.0224 48.7429 21.9352 48.7146 21.8531C48.6863 21.771 48.6418 21.6957 48.5839 21.632C48.526 21.5683 48.4559 21.5175 48.3781 21.4828C48.3002 21.448 48.2161 21.4301 48.1312 21.4301C48.0463 21.4301 47.9622 21.448 47.8843 21.4828C47.8064 21.5175 47.7364 21.5683 47.6785 21.632C47.6206 21.6957 47.5761 21.771 47.5478 21.8531C47.5195 21.9352 47.508 22.0224 47.514 22.1093M48.9911 24.2793C48.9911 24.0713 48.8766 23.8769 48.4607 23.8769H47.9449C47.5569 23.8769 47.438 24.0804 47.438 24.2884C47.438 24.5775 47.6589 24.7678 48.2008 24.7678C48.7427 24.7678 48.9902 24.5688 48.9902 24.2798M49.4321 24.248C49.4321 24.7012 49.0883 25.1117 48.1756 25.1117C47.3332 25.1117 47.0026 24.7863 47.0026 24.3341C47.0045 24.1961 47.048 24.062 47.1271 23.9503C47.2063 23.8386 47.3171 23.7547 47.4446 23.7102C47.3866 23.6685 47.3386 23.614 47.3043 23.5505C47.2699 23.4871 47.25 23.4165 47.2461 23.344C47.2493 23.2547 47.2782 23.1683 47.3291 23.0957C47.3801 23.0231 47.4509 22.9677 47.5325 22.9362C47.3926 22.8536 47.2774 22.7332 47.1994 22.5881C47.1215 22.443 47.0839 22.2788 47.0906 22.1134C47.0839 21.974 47.1071 21.8349 47.1587 21.7058C47.2103 21.5767 47.2889 21.4609 47.389 21.3664C47.4891 21.2719 47.6083 21.2012 47.738 21.1592C47.8678 21.1172 48.0049 21.1049 48.1398 21.1233H49.3685C49.4039 21.1233 49.4215 21.1459 49.4215 21.1867V21.4445C49.4215 21.4944 49.395 21.5125 49.3597 21.5125H48.8704C48.9654 21.5928 49.0407 21.6947 49.0905 21.8101C49.1402 21.9255 49.1629 22.0512 49.1568 22.1773C49.1568 22.7106 48.8085 23.0835 48.1403 23.0835H47.91C47.716 23.0835 47.632 23.1741 47.632 23.2824C47.632 23.3907 47.7204 23.4813 47.91 23.4813H48.5142C49.1771 23.4813 49.4357 23.8203 49.4357 24.2408M53.6424 20.8954C53.6469 20.9042 53.6491 20.914 53.6489 20.9239C53.6487 20.9338 53.646 20.9435 53.6412 20.9521C53.6363 20.9607 53.6294 20.9679 53.6211 20.973C53.6129 20.9782 53.6034 20.9811 53.5938 20.9815L53.3074 21.0943C53.2984 21.0978 53.2888 21.0995 53.2792 21.0991C53.2696 21.0987 53.2601 21.0964 53.2514 21.0921C53.2428 21.0879 53.235 21.0819 53.2287 21.0744C53.2223 21.067 53.2175 21.0584 53.2146 21.049C53.1657 20.8935 53.0676 20.7593 52.9358 20.6675C52.804 20.5758 52.646 20.5319 52.4871 20.5428C52.0451 20.5428 51.7949 20.7553 51.7949 21.1033C51.7949 21.4513 51.9801 21.5565 52.6789 21.8447C53.3776 22.1328 53.6755 22.4414 53.6755 22.9775C53.6717 23.1322 53.6364 23.2843 53.5719 23.4243C53.5074 23.5642 53.4151 23.6887 53.3009 23.79C53.1868 23.8912 53.0533 23.9669 52.9089 24.0123C52.7646 24.0576 52.6126 24.0715 52.4628 24.0532C52.1888 24.0818 51.914 24.0092 51.6876 23.8485C51.4613 23.6877 51.2984 23.4494 51.2283 23.1764C51.2283 23.122 51.2283 23.0994 51.2725 23.0817L51.5722 22.9825C51.6296 22.9825 51.6517 22.9825 51.665 23.0368C51.7078 23.215 51.8124 23.3711 51.9593 23.4759C52.1062 23.5808 52.2854 23.6271 52.4632 23.6064C52.9052 23.6064 53.1907 23.3798 53.1907 23.0142C53.1907 22.6485 53.0232 22.5157 52.3836 22.2638C51.6164 21.952 51.3256 21.6444 51.3256 21.111C51.3311 20.9634 51.3666 20.8185 51.4296 20.6856C51.4926 20.5528 51.5819 20.4348 51.6918 20.3391C51.8017 20.2435 51.9297 20.1723 52.0678 20.1301C52.206 20.0878 52.3511 20.0755 52.4941 20.0938C52.7467 20.0758 52.998 20.1448 53.208 20.2897C53.4181 20.4347 53.575 20.6473 53.6539 20.894M54.3549 23.1048V21.1727C54.3549 21.1319 54.377 21.1092 54.4212 21.1092H54.7562C54.8004 21.1092 54.8225 21.1319 54.8225 21.1727V23.0214C54.8225 23.3966 54.9855 23.6137 55.3338 23.6137C55.4934 23.6041 55.6464 23.5456 55.773 23.4456C55.8996 23.3456 55.9939 23.2089 56.0436 23.0531V21.1727C56.0436 21.1319 56.0436 21.1092 56.1099 21.1092H56.4405C56.4936 21.1092 56.5068 21.1319 56.5068 21.1727V23.9322C56.5068 23.973 56.5068 23.9956 56.445 23.9956H56.1188C56.1103 23.9973 56.1016 23.9967 56.0933 23.9941C56.0851 23.9915 56.0776 23.9869 56.0715 23.9806C56.0654 23.9744 56.0609 23.9667 56.0584 23.9583C56.0558 23.9498 56.0553 23.9409 56.0569 23.9322V23.557C55.9615 23.7088 55.8307 23.8338 55.6764 23.9209C55.5221 24.0079 55.3491 24.0541 55.1729 24.0555C55.0549 24.0579 54.9378 24.0341 54.8296 23.9856C54.7215 23.9372 54.6248 23.8652 54.5464 23.7748C54.468 23.6843 54.4097 23.5775 54.3755 23.4616C54.3413 23.3458 54.332 23.2238 54.3482 23.1039M59.0919 22.8945V22.2053C59.1063 22.112 59.1 22.0165 59.0734 21.9259C59.0468 21.8354 59.0006 21.7522 58.9383 21.6826C58.8759 21.6129 58.7991 21.5585 58.7134 21.5235C58.6278 21.4885 58.5355 21.4737 58.4436 21.4803C58.3508 21.4776 58.2586 21.4948 58.1727 21.5307C58.0868 21.5667 58.0092 21.6207 57.9449 21.6892C57.8805 21.7577 57.8309 21.8393 57.7991 21.9286C57.7673 22.018 57.7541 22.1132 57.7603 22.2081V22.8877C57.7534 22.9836 57.7663 23.0799 57.798 23.1703C57.8297 23.2608 57.8796 23.3434 57.9444 23.4128C58.0092 23.4823 58.0875 23.537 58.1743 23.5735C58.261 23.6099 58.3543 23.6273 58.448 23.6245C58.8537 23.6245 59.0963 23.3712 59.0963 22.8923M57.3589 25.0487C57.3512 25.0494 57.3435 25.0483 57.3362 25.0456C57.3289 25.0429 57.3223 25.0386 57.3168 25.033C57.3114 25.0274 57.3071 25.0206 57.3045 25.0131C57.3018 25.0057 57.3008 24.9977 57.3015 24.9898V21.17C57.3015 21.1292 57.3236 21.111 57.3634 21.111H57.6895C57.6976 21.1096 57.7059 21.1101 57.7137 21.1125C57.7215 21.1149 57.7287 21.1191 57.7347 21.1248C57.7407 21.1305 57.7453 21.1375 57.7482 21.1454C57.7511 21.1532 57.7522 21.1616 57.7514 21.17V21.4953C57.8385 21.3538 57.9598 21.2377 58.1035 21.1583C58.2472 21.0789 58.4085 21.0389 58.5717 21.0422C58.709 21.0375 58.8456 21.0631 58.9725 21.1171C59.0993 21.1712 59.2133 21.2525 59.3069 21.3555C59.4005 21.4586 59.4715 21.581 59.5151 21.7145C59.5587 21.8481 59.5738 21.9896 59.5595 22.1297V22.9399C59.5745 23.0791 59.5605 23.2199 59.5184 23.3532C59.4763 23.4864 59.4072 23.609 59.3155 23.7128C59.2238 23.8166 59.1117 23.8993 58.9865 23.9554C58.8613 24.0115 58.726 24.0397 58.5894 24.0382C58.4248 24.0465 58.261 24.0088 58.1158 23.9289C57.9705 23.8491 57.8491 23.7303 57.7647 23.5851V24.9685C57.7654 24.9764 57.7643 24.9844 57.7617 24.9918C57.759 24.9993 57.7548 25.0061 57.7494 25.0117C57.7439 25.0173 57.7373 25.0216 57.73 25.0243C57.7227 25.0271 57.7149 25.0281 57.7072 25.0274L57.3589 25.0487ZM62.0801 22.8945V22.2053C62.0945 22.112 62.0882 22.0165 62.0616 21.9259C62.035 21.8354 61.9888 21.7522 61.9265 21.6826C61.8641 21.6129 61.7873 21.5585 61.7016 21.5235C61.616 21.4885 61.5237 21.4737 61.4317 21.4803C61.339 21.4776 61.2467 21.4948 61.1609 21.5307C61.075 21.5667 60.9974 21.6207 60.933 21.6892C60.8687 21.7577 60.819 21.8393 60.7873 21.9286C60.7555 22.018 60.7423 22.1132 60.7485 22.2081V22.8877C60.7417 22.9832 60.7544 23.0791 60.7858 23.1692C60.8173 23.2593 60.8668 23.3417 60.9311 23.4111C60.9955 23.4805 61.0732 23.5353 61.1594 23.5721C61.2456 23.6088 61.3384 23.6267 61.4317 23.6245C61.8375 23.6245 62.0801 23.3712 62.0801 22.8923M60.3427 25.0487C60.335 25.0494 60.3272 25.0483 60.32 25.0456C60.3127 25.0429 60.3061 25.0386 60.3006 25.033C60.2951 25.0274 60.2909 25.0206 60.2883 25.0131C60.2856 25.0057 60.2846 24.9977 60.2853 24.9898V21.17C60.2853 21.1292 60.3074 21.111 60.3471 21.111H60.6733C60.6814 21.1096 60.6896 21.1101 60.6975 21.1125C60.7053 21.1149 60.7125 21.1191 60.7185 21.1248C60.7245 21.1305 60.7291 21.1375 60.732 21.1454C60.7349 21.1532 60.736 21.1616 60.7352 21.17V21.4953C60.8223 21.3538 60.9436 21.2377 61.0873 21.1583C61.231 21.0789 61.3923 21.0389 61.5555 21.0422C61.6931 21.0369 61.8303 21.0619 61.9576 21.1157C62.085 21.1695 62.1996 21.2506 62.2937 21.3538C62.3878 21.4569 62.4592 21.5795 62.503 21.7134C62.5468 21.8473 62.5621 21.9892 62.5477 22.1297V22.9399C62.5627 23.0793 62.5486 23.2203 62.5064 23.3537C62.4642 23.4871 62.3949 23.6098 62.3029 23.7136C62.211 23.8175 62.0986 23.9001 61.9732 23.9561C61.8477 24.012 61.7122 24.04 61.5754 24.0382C61.4109 24.0456 61.2475 24.0073 61.1024 23.9276C60.9573 23.8479 60.8358 23.7296 60.7507 23.5851V24.9685C60.7513 24.9764 60.7503 24.9844 60.7477 24.9918C60.745 24.9993 60.7408 25.0061 60.7353 25.0117C60.7299 25.0173 60.7232 25.0216 60.716 25.0243C60.7087 25.0271 60.7009 25.0281 60.6932 25.0274L60.3427 25.0487ZM63.6672 22.2008V22.9331C63.6672 23.1165 63.7383 23.2924 63.8649 23.4222C63.9914 23.5519 64.163 23.6248 64.3419 23.6248C64.5209 23.6248 64.6925 23.5519 64.819 23.4222C64.9455 23.2924 65.0166 23.1165 65.0166 22.9331V22.2008C65.0166 22.0174 64.9455 21.8414 64.819 21.7117C64.6925 21.582 64.5209 21.5091 64.3419 21.5091C64.163 21.5091 63.9914 21.582 63.8649 21.7117C63.7383 21.8414 63.6672 22.0174 63.6672 22.2008ZM65.4793 22.1782V22.9331C65.4793 23.2424 65.3595 23.5391 65.1461 23.7578C64.9328 23.9765 64.6434 24.0994 64.3417 24.0994C64.04 24.0994 63.7506 23.9765 63.5373 23.7578C63.3239 23.5391 63.2041 23.2424 63.2041 22.9331V22.1918C63.2041 21.8824 63.3239 21.5858 63.5373 21.367C63.7506 21.1483 64.04 21.0254 64.3417 21.0254C64.6434 21.0254 64.9328 21.1483 65.1461 21.367C65.3595 21.5858 65.4793 21.8824 65.4793 22.1918M67.5915 21.1251V21.4445C67.5915 21.4944 67.5915 21.5125 67.5208 21.5125H67.4634C67.287 21.5064 67.1135 21.559 66.9688 21.6625C66.8241 21.766 66.716 21.9148 66.6607 22.0866V23.9231C66.6607 23.9639 66.6342 23.9775 66.6033 23.9775H66.255C66.2479 23.9782 66.2407 23.9773 66.2339 23.9748C66.2272 23.9723 66.2211 23.9683 66.216 23.9631C66.2109 23.9579 66.207 23.9517 66.2046 23.9448C66.2022 23.9378 66.2013 23.9305 66.202 23.9231V21.17C66.202 21.1246 66.202 21.111 66.2638 21.111H66.5812C66.6254 21.111 66.6475 21.1337 66.6475 21.1745V21.6276C66.7283 21.4599 66.8549 21.3199 67.0118 21.2245C67.1686 21.129 67.3491 21.0822 67.5314 21.0898C67.5977 21.0898 67.6154 21.0898 67.6154 21.1577M68.9382 20.4327V21.1242H69.538C69.5822 21.1242 69.5999 21.1468 69.5999 21.1967V21.4545C69.5999 21.5044 69.5999 21.5225 69.538 21.5225H68.9382V23.1904C68.9382 23.4483 69.0748 23.5656 69.3307 23.5656H69.5336C69.5778 23.5656 69.5999 23.5656 69.5999 23.6291V23.9227C69.5999 23.9725 69.5999 23.9907 69.5336 23.9907H69.2644C69.1642 24.0056 69.062 23.9975 68.9653 23.967C68.8685 23.9365 68.7795 23.8843 68.7048 23.8142C68.6301 23.7441 68.5716 23.6579 68.5334 23.5618C68.4951 23.4657 68.4782 23.362 68.4839 23.2584V21.527H68.1003C68.0649 21.527 68.0428 21.527 68.0428 21.459V21.2012C68.0428 21.1514 68.0649 21.1287 68.1003 21.1287H68.4883V20.4332C68.4883 20.3969 68.4883 20.3743 68.5546 20.3743H68.8719C68.925 20.3743 68.9382 20.3738 68.9382 20.4327ZM73.9913 20.9257C73.9913 20.9801 73.9913 21.0209 73.9162 21.0431L73.4225 21.2284C73.4102 21.235 73.3967 21.2387 73.3828 21.2392C73.369 21.2398 73.3552 21.2371 73.3425 21.2315C73.3298 21.2258 73.3184 21.2173 73.3093 21.2066C73.3002 21.1959 73.2936 21.1832 73.2899 21.1695C73.2485 21.0547 73.1709 20.9573 73.0696 20.8927C72.9682 20.828 72.8487 20.7998 72.7299 20.8124C72.4258 20.8124 72.2274 20.9615 72.2274 21.1876C72.2274 21.4137 72.3817 21.5084 73.0672 21.7527C73.7527 21.9969 74.0285 22.3313 74.0285 22.8855C74.0285 23.5502 73.4729 24.0564 72.6703 24.0564C72.3738 24.0932 72.0742 24.0194 71.8265 23.8484C71.5787 23.6774 71.3992 23.4207 71.3209 23.1252C71.3169 23.1136 71.3151 23.1014 71.3159 23.0891C71.3166 23.0768 71.3197 23.0649 71.3251 23.0539C71.3305 23.0429 71.338 23.0332 71.3471 23.0252C71.3563 23.0173 71.3669 23.0114 71.3784 23.0078L71.9118 22.8266C71.9826 22.8039 72.0175 22.8266 72.0351 22.8991C72.0643 23.0427 72.1457 23.1696 72.2629 23.2537C72.3801 23.3379 72.5242 23.3732 72.6658 23.3522C73.0274 23.3522 73.217 23.1941 73.217 22.9589C73.217 22.7237 73.0804 22.6417 72.5248 22.4437C71.7266 22.1501 71.4226 21.8243 71.4226 21.2203C71.4342 21.0595 71.4771 20.9028 71.5487 20.7593C71.6204 20.6158 71.7193 20.4885 71.8397 20.3849C71.9601 20.2812 72.0996 20.2033 72.2498 20.1558C72.4 20.1083 72.558 20.0922 72.7145 20.1083C72.9882 20.0803 73.2632 20.1476 73.4951 20.2994C73.7271 20.4511 73.9025 20.6784 73.9931 20.9448M75.5807 20.4744V21.1255H76.111C76.1224 21.1241 76.134 21.1253 76.1448 21.1291C76.1556 21.1329 76.1655 21.1392 76.1736 21.1475C76.1817 21.1558 76.1878 21.1659 76.1916 21.177C76.1953 21.1881 76.1964 21.2 76.195 21.2116V21.6865C76.1957 21.6978 76.194 21.7091 76.19 21.7197C76.186 21.7302 76.1797 21.7397 76.1717 21.7475C76.1637 21.7553 76.1541 21.7612 76.1436 21.7647C76.1331 21.7683 76.122 21.7694 76.111 21.7681H75.5807V23.0563C75.5807 23.2235 75.6691 23.3187 75.8803 23.3187H76.1097C76.1627 23.3187 76.1937 23.3459 76.1937 23.3957V23.9322C76.1937 23.9866 76.1627 24.0092 76.1097 24.0092H75.7544C75.1192 24.0092 74.8196 23.6658 74.8196 23.1592V21.7545H74.4934C74.4824 21.7558 74.4713 21.7547 74.4608 21.7512C74.4503 21.7476 74.4408 21.7417 74.4327 21.7339C74.4247 21.7261 74.4185 21.7166 74.4144 21.7061C74.4104 21.6955 74.4087 21.6842 74.4094 21.6729V21.1971C74.408 21.1855 74.4092 21.1736 74.4129 21.1625C74.4166 21.1514 74.4227 21.1413 74.4308 21.133C74.4389 21.1247 74.4488 21.1184 74.4596 21.1146C74.4705 21.1108 74.482 21.1096 74.4934 21.111H74.8328V20.474C74.8315 20.4633 74.8325 20.4525 74.8357 20.4423C74.839 20.4321 74.8444 20.4227 74.8516 20.4149C74.8588 20.4071 74.8675 20.4011 74.8773 20.3972C74.8871 20.3933 74.8975 20.3916 74.908 20.3924H75.5077C75.5564 20.3924 75.5785 20.4241 75.5785 20.474M78.233 23.0146V22.7428C78.0858 22.7338 77.9382 22.7338 77.791 22.7428C77.5046 22.779 77.349 22.8692 77.349 23.0953C77.349 23.3214 77.4816 23.4125 77.7026 23.4125C77.8239 23.4142 77.9424 23.3748 78.0396 23.3004C78.1369 23.226 78.2075 23.1208 78.2405 23.001M78.9945 22.0064V23.905C78.9945 23.9155 78.9924 23.9259 78.9884 23.9356C78.9843 23.9452 78.9784 23.9539 78.9709 23.9612C78.9635 23.9684 78.9547 23.9739 78.945 23.9775C78.9354 23.9811 78.9251 23.9827 78.9149 23.982H78.3505C78.3403 23.9827 78.33 23.9811 78.3204 23.9775C78.3108 23.9739 78.302 23.9684 78.2945 23.9612C78.2871 23.9539 78.2811 23.9452 78.2771 23.9356C78.273 23.9259 78.2709 23.9155 78.271 23.905V23.5933C78.1921 23.7333 78.0782 23.8492 77.9409 23.9289C77.8037 24.0085 77.6481 24.0491 77.4904 24.0464C77.3719 24.0563 77.2527 24.0396 77.1411 23.9975C77.0295 23.9555 76.9281 23.889 76.8441 23.8028C76.76 23.7166 76.6952 23.6127 76.6542 23.4983C76.6131 23.3839 76.5969 23.2617 76.6065 23.1401C76.6065 22.6113 76.9327 22.2991 77.722 22.2339C77.8921 22.2181 78.0633 22.2181 78.2334 22.2339V22.0291C78.2409 21.9752 78.236 21.9203 78.2191 21.8688C78.2022 21.8172 78.1738 21.7704 78.136 21.7322C78.0983 21.6939 78.0524 21.6653 78.0019 21.6485C77.9514 21.6318 77.8978 21.6274 77.8453 21.6358C77.7595 21.6239 77.6723 21.6444 77.6001 21.6935C77.5279 21.7426 77.4756 21.8169 77.4529 21.9027C77.4263 21.9661 77.4087 21.9797 77.3517 21.9616L76.7873 21.817C76.7298 21.817 76.7254 21.7672 76.7386 21.7264C76.8138 21.3104 77.1806 21.0077 77.8719 21.0077C78.5631 21.0077 78.9874 21.3512 78.9874 22.0023M81.2892 21.1255V21.6906C81.2892 21.7586 81.2627 21.7812 81.1968 21.7812H81.1129C80.9517 21.7603 80.7887 21.8001 80.6541 21.8932C80.5195 21.9863 80.4224 22.1264 80.3809 22.2874V23.905C80.3822 23.9147 80.3814 23.9245 80.3787 23.9338C80.3759 23.9431 80.3712 23.9517 80.3649 23.9591C80.3587 23.9664 80.3509 23.9722 80.3422 23.9762C80.3336 23.9801 80.3241 23.9821 80.3146 23.982H79.6707C79.6612 23.9821 79.6518 23.9801 79.6431 23.9762C79.6344 23.9722 79.6267 23.9664 79.6204 23.9591C79.6141 23.9517 79.6094 23.9431 79.6067 23.9338C79.6039 23.9245 79.6031 23.9147 79.6044 23.905V21.1473C79.6036 21.1372 79.6051 21.127 79.6087 21.1176C79.6123 21.1081 79.6179 21.0996 79.6251 21.0926C79.6323 21.0857 79.6409 21.0805 79.6503 21.0774C79.6597 21.0743 79.6697 21.0734 79.6795 21.0748H80.266C80.2765 21.074 80.287 21.0757 80.2967 21.0796C80.3065 21.0835 80.3153 21.0895 80.3224 21.0973C80.3296 21.1051 80.335 21.1145 80.3383 21.1247C80.3415 21.1349 80.3425 21.1457 80.3412 21.1564V21.5769C80.4157 21.4191 80.5333 21.2868 80.6797 21.1962C80.8261 21.1056 80.995 21.0604 81.1659 21.0662C81.2671 21.0662 81.2892 21.0662 81.2892 21.1568M82.7972 20.4744V21.1255H83.3276C83.3386 21.1248 83.3497 21.1266 83.3599 21.1307C83.3702 21.1348 83.3795 21.1412 83.3871 21.1494C83.3947 21.1577 83.4004 21.1675 83.4039 21.1782C83.4074 21.189 83.4085 21.2004 83.4071 21.2116V21.6865C83.4086 21.6976 83.4076 21.7088 83.4041 21.7194C83.4006 21.73 83.3948 21.7396 83.3871 21.7475C83.3794 21.7554 83.37 21.7614 83.3597 21.7649C83.3494 21.7685 83.3384 21.7696 83.3276 21.7681H82.7972V23.0563C82.7972 23.2235 82.8856 23.3187 83.0925 23.3187H83.3263C83.3366 23.3173 83.3472 23.3183 83.3572 23.3216C83.3671 23.325 83.3762 23.3305 83.3838 23.3379C83.3914 23.3452 83.3974 23.3543 83.4012 23.3643C83.405 23.3743 83.4066 23.385 83.4058 23.3957V23.9322C83.4058 23.9866 83.3749 24.0092 83.3263 24.0092H82.9691C82.334 24.0092 82.0388 23.6658 82.0388 23.1592V21.7545H81.7082C81.6974 21.756 81.6864 21.7549 81.6761 21.7513C81.6658 21.7478 81.6564 21.7418 81.6487 21.7339C81.641 21.726 81.6352 21.7164 81.6317 21.7058C81.6282 21.6952 81.6272 21.684 81.6286 21.6729V21.1971C81.6273 21.1859 81.6284 21.1745 81.6319 21.1637C81.6354 21.153 81.6411 21.1432 81.6487 21.1349C81.6563 21.1267 81.6656 21.1203 81.6758 21.1162C81.6861 21.1121 81.6972 21.1103 81.7082 21.111H82.0476V20.474C82.0462 20.4629 82.0472 20.4516 82.0507 20.4411C82.0542 20.4305 82.06 20.4209 82.0677 20.413C82.0754 20.4051 82.0848 20.3991 82.0951 20.3955C82.1054 20.392 82.1164 20.3909 82.1272 20.3924H82.7269C82.737 20.3923 82.747 20.3944 82.7562 20.3986C82.7654 20.4028 82.7737 20.409 82.7803 20.4167C82.787 20.4244 82.7921 20.4335 82.795 20.4434C82.798 20.4533 82.7989 20.4637 82.7977 20.474M86.1487 21.735C86.1487 21.7803 86.1487 21.8211 86.0868 21.8388L85.6152 22.0105C85.5622 22.0105 85.5357 22.0105 85.514 21.9516C85.4783 21.8517 85.4111 21.7668 85.323 21.7103C85.235 21.6539 85.1312 21.6291 85.0279 21.6398C84.7852 21.6398 84.6442 21.735 84.6442 21.8795C84.6442 22.0241 84.7454 22.0785 85.2882 22.2275C85.9189 22.3993 86.1721 22.6807 86.1721 23.1338C86.1721 23.6943 85.7302 24.04 85.0257 24.04C84.3211 24.04 83.9499 23.7822 83.804 23.3395C83.804 23.2761 83.804 23.2448 83.8792 23.2131L84.2937 23.0051C84.3556 22.9734 84.3905 23.0051 84.4215 23.0685C84.4673 23.1833 84.5478 23.28 84.6513 23.3443C84.7547 23.4086 84.8756 23.4371 84.996 23.4256C85.2824 23.4256 85.438 23.3305 85.438 23.1723C85.438 23.0142 85.2793 22.9371 84.7724 22.7926C84.1505 22.6254 83.8885 22.3395 83.8885 21.8863C83.8885 21.3349 84.3304 20.9801 84.9907 20.9801C85.231 20.9552 85.4727 21.0109 85.6794 21.1389C85.8861 21.2668 86.0468 21.4601 86.1372 21.6897M90.8999 20.2211V23.9095C90.8999 23.9549 90.8999 23.9866 90.8204 23.9866H90.1941C90.1839 23.9872 90.1736 23.9857 90.164 23.9821C90.1544 23.9785 90.1455 23.9729 90.1381 23.9657C90.1306 23.9585 90.1247 23.9498 90.1207 23.9401C90.1166 23.9305 90.1145 23.9201 90.1145 23.9095V22.4537H88.8226V23.9186C88.8234 23.9293 88.8218 23.9401 88.818 23.9501C88.8142 23.9601 88.8083 23.9691 88.8007 23.9764C88.7931 23.9838 88.7839 23.9894 88.774 23.9927C88.764 23.996 88.7535 23.997 88.7431 23.9956H88.0991C88.0889 23.9963 88.0787 23.9947 88.069 23.9911C88.0594 23.9875 88.0506 23.982 88.0431 23.9747C88.0357 23.9675 88.0297 23.9588 88.0257 23.9492C88.0216 23.9395 88.0196 23.9291 88.0196 23.9186V20.2211C88.0195 20.2102 88.0217 20.1994 88.026 20.1894C88.0303 20.1794 88.0367 20.1705 88.0446 20.1632C88.0526 20.1559 88.0619 20.1504 88.0721 20.1471C88.0822 20.1438 88.093 20.1428 88.1036 20.1441H88.7431C88.7535 20.1427 88.764 20.1437 88.774 20.147C88.7839 20.1504 88.7931 20.1559 88.8007 20.1633C88.8083 20.1706 88.8142 20.1797 88.818 20.1897C88.8218 20.1997 88.8234 20.2104 88.8226 20.2211V21.6856H90.1145V20.2211C90.1145 20.2106 90.1166 20.2002 90.1207 20.1905C90.1247 20.1809 90.1306 20.1722 90.1381 20.165C90.1455 20.1578 90.1544 20.1522 90.164 20.1486C90.1736 20.145 90.1839 20.1435 90.1941 20.1441H90.8336C90.8911 20.1441 90.9132 20.1758 90.9132 20.2211M92.2625 22.1695V22.2688H93.2504V22.1695C93.2557 22.0997 93.247 22.0294 93.2246 21.9632C93.2022 21.897 93.1667 21.8362 93.1204 21.7847C93.074 21.7333 93.0177 21.6922 92.955 21.6641C92.8924 21.636 92.8248 21.6215 92.7564 21.6215C92.6881 21.6215 92.6205 21.636 92.5578 21.6641C92.4952 21.6922 92.4389 21.7333 92.3925 21.7847C92.3461 21.8362 92.3107 21.897 92.2883 21.9632C92.2659 22.0294 92.2571 22.0997 92.2625 22.1695ZM92.2625 22.7844V22.8945C92.2509 22.9663 92.2564 23.0398 92.2783 23.109C92.3003 23.1781 92.3382 23.2408 92.3888 23.2918C92.4393 23.3427 92.5011 23.3805 92.5689 23.4018C92.6367 23.4231 92.7086 23.4274 92.7783 23.4143C92.8891 23.4318 93.0025 23.4111 93.1006 23.3555C93.1987 23.2999 93.2761 23.2125 93.3206 23.1071C93.3692 23.0255 93.3913 23.0164 93.4705 23.0527L93.8762 23.2652C93.9602 23.306 93.9646 23.3468 93.9292 23.4279C93.818 23.6377 93.6494 23.8095 93.4441 23.9222C93.2388 24.0349 93.0058 24.0836 92.7739 24.0623C92.613 24.0842 92.4494 24.0697 92.2945 24.0198C92.1397 23.97 91.9974 23.886 91.8776 23.7737C91.7578 23.6614 91.6635 23.5235 91.6013 23.3698C91.539 23.2162 91.5104 23.0504 91.5174 22.8841V22.2053C91.5096 22.0401 91.5373 21.8751 91.5984 21.722C91.6595 21.5689 91.7525 21.4313 91.871 21.3191C91.9895 21.2068 92.1306 21.1224 92.2843 21.072C92.438 21.0216 92.6006 21.0063 92.7606 21.0272C92.9163 21.0113 93.0735 21.0301 93.2214 21.0823C93.3693 21.1345 93.5045 21.2189 93.6176 21.3297C93.7307 21.4405 93.8191 21.5751 93.8767 21.7242C93.9343 21.8733 93.9597 22.0334 93.9513 22.1936V22.6467C93.9513 22.7237 93.9248 22.7776 93.8148 22.7776L92.2625 22.7844ZM96.1868 21.1255V21.6906C96.1868 21.7586 96.1647 21.7812 96.094 21.7812H96.0145C95.8533 21.7603 95.6903 21.8001 95.5557 21.8932C95.4211 21.9863 95.324 22.1264 95.2825 22.2874V23.905C95.2831 23.9145 95.2819 23.9241 95.2789 23.9331C95.2759 23.9422 95.2712 23.9505 95.265 23.9576C95.2588 23.9648 95.2514 23.9706 95.243 23.9748C95.2346 23.979 95.2255 23.9815 95.2162 23.982H94.5679C94.5584 23.9821 94.549 23.9801 94.5403 23.9762C94.5316 23.9722 94.5239 23.9664 94.5176 23.9591C94.5113 23.9517 94.5066 23.9431 94.5038 23.9338C94.5011 23.9245 94.5003 23.9147 94.5016 23.905V21.1473C94.5008 21.1372 94.5023 21.127 94.5059 21.1176C94.5094 21.1081 94.515 21.0996 94.5222 21.0926C94.5294 21.0857 94.5381 21.0805 94.5475 21.0774C94.5569 21.0743 94.5669 21.0734 94.5767 21.0748H95.1632C95.2251 21.0748 95.2383 21.1156 95.2383 21.1564V21.5769C95.3129 21.4191 95.4305 21.2868 95.5769 21.1962C95.7233 21.1056 95.8922 21.0604 96.0631 21.0662C96.1687 21.0662 96.1864 21.0662 96.1864 21.1568M97.3063 22.1695V22.2688H98.295V22.1695C98.3004 22.0997 98.2917 22.0294 98.2693 21.9632C98.2469 21.897 98.2114 21.8362 98.165 21.7847C98.1187 21.7333 98.0624 21.6922 97.9997 21.6641C97.9371 21.636 97.8695 21.6215 97.8011 21.6215C97.7328 21.6215 97.6652 21.636 97.6025 21.6641C97.5399 21.6922 97.4836 21.7333 97.4372 21.7847C97.3908 21.8362 97.3553 21.897 97.333 21.9632C97.3106 22.0294 97.3018 22.0997 97.3072 22.1695M97.3072 22.7844V22.8945C97.2956 22.9663 97.3011 23.0398 97.323 23.109C97.345 23.1781 97.3829 23.2408 97.4334 23.2918C97.484 23.3427 97.5458 23.3805 97.6136 23.4018C97.6814 23.4231 97.7533 23.4274 97.823 23.4143C97.9344 23.432 98.0484 23.4115 98.1473 23.356C98.2462 23.3004 98.3244 23.2129 98.3697 23.1071C98.4139 23.0255 98.436 23.0164 98.5151 23.0527L98.9209 23.2652C99.0049 23.306 99.0093 23.3468 98.9739 23.4279C98.8627 23.6377 98.6941 23.8095 98.4888 23.9222C98.2835 24.0349 98.0505 24.0836 97.8186 24.0623C97.6584 24.0827 97.4957 24.0672 97.342 24.0167C97.1882 23.9662 97.0471 23.8819 96.9283 23.7698C96.8096 23.6576 96.7161 23.5203 96.6543 23.3674C96.5926 23.2144 96.5641 23.0495 96.5709 22.8841V22.2053C96.5632 22.0401 96.5908 21.8751 96.6519 21.722C96.713 21.5689 96.8061 21.4313 96.9246 21.3191C97.0431 21.2068 97.1841 21.1224 97.3378 21.072C97.4915 21.0216 97.6541 21.0063 97.8142 21.0272C97.9698 21.0113 98.127 21.0301 98.2749 21.0823C98.4228 21.1345 98.558 21.2189 98.6711 21.3297C98.7842 21.4405 98.8726 21.5751 98.9302 21.7242C98.9878 21.8733 99.0133 22.0334 99.0049 22.1936V22.6467C99.0049 22.7237 98.9783 22.7776 98.8683 22.7776L97.3072 22.7844Z" fill="black"/>
</g>
</g>
<defs>
<clipPath id="clip0_2606_84033">
<rect width="99" height="29" fill="white"/>
</clipPath>
</defs>
</svg>
