<svg width="114" height="21" viewBox="0 0 114 21" fill="none" xmlns="http://www.w3.org/2000/svg">
<g clip-path="url(#clip0_2606_84116)">
<path d="M55.09 20.5299L1.18999 20.5299C0.924778 20.5299 0.670425 20.4246 0.482887 20.2371C0.295349 20.0495 0.189995 19.7952 0.189995 19.5299V10.1899C0.189995 7.60143 1.21828 5.11894 3.04864 3.28859C4.87899 1.45823 7.36148 0.429947 9.95 0.429947L55.09 0.429947C55.3552 0.429947 55.6096 0.535303 55.7971 0.722839C55.9846 0.910376 56.09 1.16473 56.09 1.42995V19.5699C56.09 19.8352 55.9846 20.0895 55.7971 20.2771C55.6096 20.4646 55.3552 20.5699 55.09 20.5699V20.5299Z" fill="#35A8E0"/>
<path d="M55.1 20.76H1.20001C0.884403 20.76 0.581721 20.6346 0.358553 20.4114C0.135385 20.1883 0.0100098 19.8856 0.0100098 19.57V10.23C0.0100098 7.57782 1.06358 5.03428 2.93894 3.15891C4.81431 1.28355 7.35784 0.22998 10.01 0.22998H55.1C55.4156 0.22998 55.7183 0.355355 55.9415 0.578524C56.1646 0.801692 56.29 1.10437 56.29 1.41998V19.57C56.29 19.8856 56.1646 20.1883 55.9415 20.4114C55.7183 20.6346 55.4156 20.76 55.1 20.76ZM9.99001 0.70998C7.46331 0.712627 5.04085 1.71753 3.25421 3.50418C1.46756 5.29082 0.462658 7.71328 0.460011 10.24V19.58C0.460011 19.7736 0.536921 19.9593 0.673822 20.0962C0.810724 20.2331 0.996402 20.31 1.19001 20.31H55.1C55.1959 20.31 55.2908 20.2911 55.3794 20.2544C55.4679 20.2177 55.5484 20.164 55.6162 20.0962C55.684 20.0284 55.7378 19.9479 55.7744 19.8593C55.8111 19.7708 55.83 19.6758 55.83 19.58V1.42998C55.83 1.33412 55.8111 1.23919 55.7744 1.15062C55.7378 1.06205 55.684 0.981579 55.6162 0.913793C55.5484 0.846006 55.4679 0.792234 55.3794 0.755548C55.2908 0.718863 55.1959 0.699981 55.1 0.699981L9.99001 0.70998Z" fill="white"/>
<path d="M19.06 9.78003V17.27C19.06 17.3072 19.0453 17.3428 19.019 17.369C18.9928 17.3953 18.9571 17.41 18.92 17.41H15.98C15.9429 17.41 15.9073 17.3953 15.881 17.369C15.8548 17.3428 15.84 17.3072 15.84 17.27C15.8399 17.2474 15.8343 17.2251 15.8237 17.2051C15.8131 17.1852 15.7978 17.168 15.7791 17.1553C15.7604 17.1425 15.7389 17.1344 15.7164 17.1318C15.6939 17.1291 15.6712 17.132 15.65 17.14C15.356 17.2337 15.0551 17.3039 14.75 17.35C14.3828 17.4081 14.0118 17.4382 13.64 17.44C12.7396 17.4252 11.8503 17.2386 11.02 16.89C10.1529 16.5445 9.36648 16.0236 8.71001 15.36C8.05598 14.7152 7.54194 13.9425 7.20001 13.09C6.86956 12.2561 6.69991 11.3671 6.70001 10.47C6.70032 9.56977 6.86994 8.6776 7.20001 7.84003C7.53949 6.97217 8.05731 6.18521 8.72001 5.53003C9.37648 4.86646 10.1629 4.34558 11.03 4.00003C12.7167 3.31623 14.6033 3.31623 16.29 4.00003C17.1098 4.32821 17.8573 4.81405 18.49 5.43003C18.5033 5.44307 18.5139 5.45863 18.5211 5.4758C18.5283 5.49297 18.532 5.51141 18.532 5.53003C18.532 5.54866 18.5283 5.5671 18.5211 5.58427C18.5139 5.60144 18.5033 5.617 18.49 5.63003L16.42 7.70003C16.407 7.71334 16.3914 7.72391 16.3742 7.73112C16.3571 7.73834 16.3386 7.74205 16.32 7.74205C16.3014 7.74205 16.2829 7.73834 16.2658 7.73112C16.2486 7.72391 16.233 7.71334 16.22 7.70003C15.8866 7.38574 15.4963 7.13797 15.07 6.97003C14.1587 6.60402 13.1413 6.60402 12.23 6.97003C11.7608 7.15342 11.3351 7.4327 10.98 7.79003C10.629 8.13941 10.3504 8.5547 10.1604 9.01204C9.97029 9.46938 9.87244 9.95977 9.87244 10.455C9.87244 10.9503 9.97029 11.4407 10.1604 11.898C10.3504 12.3554 10.629 12.7707 10.98 13.12C11.299 13.4434 11.6754 13.7045 12.09 13.89C12.4913 14.0704 12.9212 14.1787 13.36 14.21C13.797 14.243 14.2364 14.2024 14.66 14.09C15.0642 13.9842 15.4467 13.8082 15.79 13.57C15.8093 13.5567 15.8248 13.5387 15.8353 13.5177C15.8458 13.4967 15.8509 13.4735 15.85 13.45V12.97C15.85 12.9329 15.8353 12.8973 15.809 12.871C15.7828 12.8448 15.7471 12.83 15.71 12.83H13.2C13.1629 12.83 13.1273 12.8153 13.101 12.789C13.0748 12.7628 13.06 12.7272 13.06 12.69V9.78003C13.06 9.7429 13.0748 9.70729 13.101 9.68104C13.1273 9.65478 13.1629 9.64003 13.2 9.64003H18.91C18.9292 9.63866 18.9485 9.64126 18.9667 9.64768C18.9848 9.65409 19.0015 9.66419 19.0155 9.67733C19.0296 9.69047 19.0408 9.70637 19.0485 9.72404C19.0561 9.74172 19.0601 9.76078 19.06 9.78003Z" fill="white"/>
<path d="M30 17.33L29.52 15.89C29.5111 15.8601 29.4925 15.834 29.4672 15.8159C29.4418 15.7978 29.4111 15.7887 29.38 15.79H25.2C25.1706 15.7908 25.1422 15.801 25.1188 15.8189C25.0955 15.8369 25.0784 15.8617 25.07 15.89L24.57 17.38C24.5616 17.4082 24.5445 17.433 24.5212 17.451C24.4978 17.4689 24.4694 17.4791 24.44 17.48H21.36C21.3374 17.4798 21.3151 17.4742 21.2951 17.4636C21.2751 17.453 21.258 17.4377 21.2452 17.419C21.2324 17.4003 21.2244 17.3788 21.2217 17.3564C21.2191 17.3339 21.2219 17.3111 21.23 17.29L25.86 3.68996C25.8684 3.66174 25.8855 3.63689 25.9088 3.61893C25.9322 3.60098 25.9606 3.59084 25.99 3.58996H28.81C28.8411 3.58867 28.8718 3.59781 28.8972 3.61592C28.9225 3.63403 28.9411 3.66009 28.95 3.68996L33.34 17.29C33.3485 17.3119 33.3512 17.3356 33.3481 17.3589C33.345 17.3822 33.336 17.4044 33.3221 17.4233C33.3081 17.4423 33.2896 17.4574 33.2683 17.4673C33.247 17.4772 33.2235 17.4815 33.2 17.48H30.14C30.1207 17.48 30.1017 17.4761 30.084 17.4684C30.0663 17.4608 30.0504 17.4496 30.0373 17.4355C30.0242 17.4214 30.0141 17.4048 30.0076 17.3866C30.0012 17.3685 29.9986 17.3492 30 17.33ZM26.41 12.55H28.27C28.2935 12.5515 28.3169 12.5472 28.3383 12.5373C28.3596 12.5274 28.3781 12.5123 28.3921 12.4933C28.406 12.4744 28.415 12.4522 28.4181 12.4289C28.4212 12.4056 28.4185 12.3819 28.41 12.36L27.51 9.57996C27.5019 9.55039 27.4843 9.5243 27.4599 9.50571C27.4355 9.48712 27.4057 9.47705 27.375 9.47705C27.3443 9.47705 27.3145 9.48712 27.2901 9.50571C27.2657 9.5243 27.2481 9.55039 27.24 9.57996L26.24 12.36C26.2292 12.3846 26.2256 12.4118 26.2299 12.4383C26.2341 12.4649 26.2459 12.4897 26.2638 12.5097C26.2817 12.5298 26.3051 12.5442 26.331 12.5514C26.3569 12.5585 26.3843 12.558 26.41 12.55Z" fill="white"/>
<path d="M45.61 3.52002H48.67C48.7055 3.51993 48.7396 3.5333 48.7656 3.55743C48.7916 3.58156 48.8075 3.61465 48.81 3.65002L49.61 17.27C49.6114 17.2892 49.6088 17.3085 49.6024 17.3267C49.5959 17.3448 49.5858 17.3615 49.5727 17.3755C49.5596 17.3896 49.5437 17.4008 49.526 17.4085C49.5083 17.4161 49.4893 17.4201 49.47 17.42H46.55C46.5145 17.4201 46.4804 17.4067 46.4544 17.3826C46.4284 17.3585 46.4125 17.3254 46.41 17.29L46.12 12.47C46.12 12.4329 46.1052 12.3973 46.079 12.371C46.0527 12.3448 46.0171 12.33 45.98 12.33C45.9429 12.33 45.9073 12.3448 45.881 12.371C45.8547 12.3973 45.84 12.4329 45.84 12.47L44.2 17.33C44.1916 17.3582 44.1745 17.3831 44.1512 17.401C44.1278 17.419 44.0994 17.4291 44.07 17.43H41.07C41.0406 17.4291 41.0122 17.419 40.9888 17.401C40.9655 17.3831 40.9484 17.3582 40.94 17.33L39.14 12.19C39.14 12.1529 39.1252 12.1173 39.099 12.091C39.0727 12.0648 39.0371 12.05 39 12.05C38.9629 12.05 38.9273 12.0648 38.901 12.091C38.8747 12.1173 38.86 12.1529 38.86 12.19L38.54 17.25C38.5375 17.2854 38.5216 17.3185 38.4956 17.3426C38.4696 17.3667 38.4355 17.3801 38.4 17.38H35.46C35.4407 17.3801 35.4217 17.3761 35.404 17.3685C35.3863 17.3608 35.3704 17.3496 35.3573 17.3355C35.3442 17.3215 35.3341 17.3048 35.3276 17.2867C35.3212 17.2685 35.3186 17.2492 35.32 17.23L36.2 3.66002C36.2025 3.62465 36.2184 3.59156 36.2444 3.56743C36.2704 3.5433 36.3045 3.52993 36.34 3.53002H39.4C39.4294 3.5309 39.4578 3.54104 39.4812 3.55899C39.5045 3.57694 39.5216 3.6018 39.53 3.63002L42.41 11.85C42.4181 11.8796 42.4357 11.9057 42.4601 11.9243C42.4845 11.9429 42.5143 11.9529 42.545 11.9529C42.5757 11.9529 42.6055 11.9429 42.6299 11.9243C42.6543 11.9057 42.6719 11.8796 42.68 11.85L45.48 3.63002C45.4866 3.59994 45.5029 3.57287 45.5264 3.55298C45.5499 3.5331 45.5793 3.52151 45.61 3.52002Z" fill="white"/>
<path d="M58.28 0.469971H112.2C112.465 0.469971 112.72 0.575328 112.907 0.762864C113.095 0.950401 113.2 1.20475 113.2 1.46997V10.81C113.2 13.3985 112.172 15.881 110.341 17.7113C108.511 19.5417 106.029 20.57 103.44 20.57H58.28C58.0148 20.57 57.7604 20.4646 57.5729 20.2771C57.3854 20.0895 57.28 19.8352 57.28 19.57V1.42997C57.2903 1.17175 57.4002 0.927554 57.5867 0.748583C57.7731 0.569613 58.0216 0.469764 58.28 0.469971Z" fill="#1D1D1B"/>
<path d="M103.4 20.76H58.28C57.9644 20.76 57.6617 20.6346 57.4385 20.4114C57.2154 20.1883 57.09 19.8856 57.09 19.57V1.42999C57.09 1.11438 57.2154 0.811701 57.4385 0.588532C57.6617 0.365364 57.9644 0.23999 58.28 0.23999H112.2C112.516 0.23999 112.818 0.365364 113.041 0.588532C113.265 0.811701 113.39 1.11438 113.39 1.42999V10.77C113.387 13.4187 112.334 15.9581 110.461 17.8311C108.588 19.704 106.049 20.7573 103.4 20.76ZM58.28 0.70999C58.0864 0.70999 57.9007 0.786901 57.7638 0.923802C57.6269 1.0607 57.55 1.24638 57.55 1.43999V19.57C57.55 19.7636 57.6269 19.9493 57.7638 20.0862C57.9007 20.2231 58.0864 20.3 58.28 20.3H103.4C105.927 20.2973 108.349 19.2924 110.136 17.5058C111.922 15.7191 112.927 13.2967 112.93 10.77V1.42999C112.93 1.23638 112.853 1.0507 112.716 0.913802C112.579 0.776901 112.394 0.69999 112.2 0.69999L58.28 0.70999Z" fill="white"/>
<path d="M66.2 17.43C65.7572 17.4291 65.3166 17.3686 64.89 17.25C64.4504 17.128 64.0322 16.9391 63.65 16.69C62.9832 16.2645 62.4359 15.676 62.06 14.98C61.7018 14.3188 61.5064 13.5818 61.49 12.83C61.4886 12.8108 61.4912 12.7915 61.4977 12.7734C61.5041 12.7552 61.5142 12.7386 61.5273 12.7245C61.5404 12.7104 61.5563 12.6992 61.574 12.6915C61.5917 12.6839 61.6108 12.68 61.63 12.68H64.6C64.6371 12.68 64.6727 12.6948 64.699 12.721C64.7253 12.7473 64.74 12.7829 64.74 12.82C64.742 13.0855 64.8258 13.3439 64.98 13.56C65.1006 13.7278 65.2495 13.8733 65.42 13.99C65.6387 14.1404 65.8949 14.227 66.16 14.24C66.4283 14.2535 66.6959 14.202 66.94 14.09C67.101 14.0272 67.2474 13.9318 67.37 13.81C67.4677 13.7117 67.5518 13.6007 67.62 13.48C67.6717 13.3835 67.7056 13.2785 67.72 13.17C67.7452 13.0076 67.7452 12.8424 67.72 12.68C67.7049 12.5685 67.6711 12.4603 67.62 12.36C67.555 12.2373 67.4706 12.1258 67.37 12.03C67.2431 11.911 67.0979 11.8131 66.94 11.74L66.5 11.57L66 11.4L65 11.06C64.6502 10.9246 64.3151 10.7537 64 10.55C63.5669 10.2904 63.1869 9.95105 62.88 9.55C62.2787 8.7354 61.9975 7.72828 62.09 6.72C62.1353 6.2065 62.2814 5.70696 62.52 5.25001C62.7377 4.83115 63.0252 4.45241 63.37 4.13C63.7022 3.81871 64.0841 3.56521 64.5 3.38C64.925 3.19545 65.378 3.08388 65.84 3.05C66.3305 3.01197 66.8239 3.0559 67.3 3.18C67.7604 3.28631 68.1998 3.46883 68.6 3.72C68.9794 3.96046 69.3172 4.26105 69.6 4.61C69.8595 4.94459 70.0622 5.3196 70.2 5.72C70.3343 6.1064 70.4085 6.51111 70.42 6.92001C70.4214 6.93921 70.4188 6.9585 70.4124 6.97666C70.406 6.99481 70.3959 7.01145 70.3827 7.02553C70.3696 7.03961 70.3537 7.05082 70.336 7.05848C70.3183 7.06613 70.2993 7.07005 70.28 7.07H67.38C67.3461 7.07035 67.3132 7.05838 67.2875 7.03631C67.2617 7.01424 67.2449 6.98357 67.24 6.95C67.2366 6.85425 67.2103 6.76071 67.1633 6.6772C67.1164 6.59369 67.0501 6.52264 66.97 6.47C66.8236 6.37657 66.6656 6.30262 66.5 6.25001H66.34C66.2342 6.23131 66.1259 6.23131 66.02 6.25001C65.8901 6.27164 65.7649 6.31562 65.65 6.38C65.5185 6.45654 65.4137 6.57177 65.35 6.71C65.2497 6.90445 65.2282 7.13011 65.29 7.34001C65.3482 7.55428 65.4835 7.73948 65.67 7.86C65.8593 7.96523 66.0566 8.0555 66.26 8.13L66.94 8.37L67.59 8.58001C67.81 8.65334 68.0333 8.74001 68.26 8.84001C69.0473 9.18589 69.7175 9.75247 70.1896 10.4712C70.6616 11.19 70.9153 12.0301 70.92 12.89C70.9261 13.7566 70.6756 14.6056 70.2 15.33C69.5166 16.3573 68.4574 17.0755 67.25 17.33C66.9044 17.3994 66.5525 17.4329 66.2 17.43Z" fill="white"/>
<path d="M108.94 9.39005C108.946 10.1588 108.796 10.9208 108.5 11.63C108.211 12.3162 107.794 12.9407 107.27 13.47C106.745 14.0014 106.124 14.4289 105.44 14.73C104.781 15.0229 104.071 15.1859 103.35 15.21C103.332 15.21 103.313 15.2137 103.296 15.2207C103.279 15.2277 103.264 15.2381 103.251 15.2511C103.238 15.2641 103.228 15.2795 103.221 15.2965C103.214 15.3135 103.21 15.3317 103.21 15.35V17.29C103.21 17.3272 103.195 17.3628 103.169 17.389C103.143 17.4153 103.107 17.43 103.07 17.43H100.16C100.123 17.43 100.087 17.4153 100.061 17.389C100.035 17.3628 100.02 17.3272 100.02 17.29V3.69005C100.02 3.65292 100.035 3.61731 100.061 3.59105C100.087 3.5648 100.123 3.55005 100.16 3.55005H103.2C103.969 3.55707 104.729 3.72393 105.43 4.04005C106.113 4.34707 106.733 4.77763 107.26 5.31005C107.784 5.83937 108.201 6.46392 108.49 7.15005C108.79 7.85861 108.943 8.62064 108.94 9.39005ZM103.2 11.89C103.2 11.9093 103.204 11.9284 103.212 11.946C103.219 11.9637 103.23 11.9796 103.244 11.9928C103.259 12.0059 103.275 12.016 103.293 12.0224C103.311 12.0288 103.331 12.0314 103.35 12.03C103.641 12.0033 103.926 11.9255 104.19 11.8C104.489 11.66 104.76 11.4669 104.99 11.23C105.221 10.9901 105.404 10.7084 105.53 10.4C105.791 9.75897 105.791 9.04113 105.53 8.40005C105.404 8.0918 105.221 7.81018 104.99 7.57005C104.76 7.33324 104.489 7.14012 104.19 7.00005C103.926 6.87483 103.641 6.79698 103.35 6.77005C103.314 6.76715 103.279 6.77796 103.251 6.80026C103.223 6.82257 103.205 6.85469 103.2 6.89005V11.89Z" fill="white"/>
<path d="M90.11 3.54002C91.0383 3.53489 91.9576 3.72216 92.81 4.09002C93.6328 4.44058 94.3825 4.94262 95.02 5.57002C95.6525 6.2015 96.1583 6.94828 96.51 7.77002C96.8716 8.62598 97.058 9.54578 97.058 10.475C97.058 11.4043 96.8716 12.3241 96.51 13.18C96.1583 14.0018 95.6525 14.7485 95.02 15.38C94.3852 16.0184 93.6354 16.5307 92.81 16.89C91.9557 17.2514 91.0376 17.4376 90.11 17.4376C89.1824 17.4376 88.2643 17.2514 87.41 16.89C85.7505 16.1848 84.4307 14.8614 83.73 13.2C83.3711 12.3434 83.1862 11.4238 83.1862 10.495C83.1862 9.56621 83.3711 8.64668 83.73 7.79002C84.4307 6.12867 85.7505 4.80527 87.41 4.10002C88.2616 3.72872 89.181 3.53804 90.11 3.54002ZM90.11 14.23C90.6114 14.235 91.1085 14.1362 91.57 13.94C92.4709 13.5582 93.1881 12.841 93.57 11.94C93.7633 11.4793 93.8629 10.9847 93.8629 10.485C93.8629 9.98537 93.7633 9.49074 93.57 9.03002C93.1881 8.12906 92.4709 7.41186 91.57 7.03002C91.1093 6.83667 90.6146 6.73709 90.115 6.73709C89.6153 6.73709 89.1207 6.83667 88.66 7.03002C87.759 7.41186 87.0418 8.12906 86.66 9.03002C86.4666 9.49074 86.3671 9.98537 86.3671 10.485C86.3671 10.9847 86.4666 11.4793 86.66 11.94C87.0418 12.841 87.759 13.5582 88.66 13.94C89.1215 14.1362 89.6185 14.235 90.12 14.23H90.11Z" fill="white"/>
<path d="M78.9 6.58997H75.96C75.8827 6.58997 75.82 6.65265 75.82 6.72997V17.29C75.82 17.3673 75.8827 17.43 75.96 17.43H78.9C78.9773 17.43 79.04 17.3673 79.04 17.29V6.72997C79.04 6.65265 78.9773 6.58997 78.9 6.58997Z" fill="white"/>
<path d="M81.54 3.54004H73.31C73.2327 3.54004 73.17 3.60272 73.17 3.68004V6.62004C73.17 6.69736 73.2327 6.76004 73.31 6.76004H81.54C81.6173 6.76004 81.68 6.69736 81.68 6.62004V3.68004C81.68 3.60272 81.6173 3.54004 81.54 3.54004Z" fill="white"/>
</g>
<defs>
<clipPath id="clip0_2606_84116">
<rect width="113.39" height="20.52" fill="white" transform="translate(0 0.23999)"/>
</clipPath>
</defs>
</svg>
