<svg width="168" height="23" viewBox="0 0 168 23" fill="none" xmlns="http://www.w3.org/2000/svg">
<g clip-path="url(#clip0_2606_84013)">
<path d="M0 11.9254C0 4.32873 3.34515 0.5 8.62206 0.5C12.274 0.5 15.0352 2.26243 15.8011 6.24414L15.9238 6.88331L12.7945 7.55182L12.6718 6.97552C12.0878 4.30149 10.5856 3.26834 8.5607 3.26834C5.70643 3.26834 3.43613 5.73071 3.43613 11.7158C3.43613 17.3678 5.49273 19.7379 8.37662 19.7379C10.4332 19.7379 12.8262 18.6755 12.8262 14.9368V14.2998H8.31526V11.6551H15.9556V22.1395H13.224L13.0399 19.5556C12.0264 21.6513 10.0333 22.5042 7.70167 22.5042C3.03835 22.5 0 18.8243 0 11.9254Z" fill="black"/>
<path d="M27.7345 20.6767C26.7823 21.6785 25.5255 22.4706 23.5007 22.4999C20.6168 22.4999 18.7443 20.5845 18.7443 18.1243C18.7443 15.4502 20.9849 14.1425 22.9484 13.5956L27.7049 12.2586V11.7116C27.7049 10.0099 26.63 9.15912 24.9437 9.15912C23.378 9.15912 22.1211 10.1315 21.5689 11.2254L21.4758 11.4077L19.0511 10.1315L19.2055 9.82762C19.8805 8.45917 21.753 6.5752 25.2187 6.5752C28.6845 6.5752 30.8955 8.30829 30.8955 11.4371V19.4298C30.8955 20.1885 30.9273 21.1923 31.0796 21.8608L31.141 22.1353H27.9503L27.9186 21.9823C27.8255 21.5569 27.7641 21.1315 27.7345 20.6767ZM24.328 20.0983C25.7392 20.0983 26.9982 19.2769 27.7027 18.3967V14.568L24.3893 15.5718C23.1325 15.9657 22.0259 16.6049 22.0259 17.9126C22.0259 19.2203 22.9167 20.1004 24.328 20.1004V20.0983Z" fill="black"/>
<path d="M49.424 9.3122C48.1672 9.3122 46.8469 10.163 46.1106 10.8923V22.1354H42.9199V11.6509C42.9199 10.1002 42.1222 9.3101 40.5882 9.3101C39.3314 9.3101 38.0111 10.1609 37.2748 10.8902V22.1333H34.0841V6.94203H37.1225V8.61435C38.2883 7.39888 39.945 6.57739 41.6631 6.57739C43.8106 6.57739 45.0992 7.54977 45.7128 8.88678C46.8786 7.51833 48.658 6.57739 50.4988 6.57739C53.6599 6.57739 54.9484 8.67513 54.9484 10.9531V22.1354H51.7577V11.6509C51.7577 10.1002 50.9601 9.3101 49.4261 9.3101L49.424 9.3122Z" fill="black"/>
<path d="M61.4821 20.7376L61.1753 22.1353H58.4755V0.864624H61.6662V8.18888C62.5866 7.15573 63.9979 6.57733 65.4705 6.57733C68.968 6.57733 71.3314 9.16125 71.3314 14.327C71.3314 19.4927 68.8453 22.5021 65.3478 22.5021C63.7821 22.5021 62.3412 21.8629 61.4821 20.7396V20.7376ZM64.7342 19.9475C66.5454 19.9475 68.0793 18.3066 68.0793 14.4171C68.0793 10.5276 66.484 9.15916 64.6728 9.15916C63.4456 9.15916 62.4322 9.76689 61.6662 10.5569V18.4889C62.4639 19.3104 63.507 19.9475 64.7342 19.9475Z" fill="black"/>
<path d="M73.9677 0.864624H77.1584V22.1353H73.9677V0.864624Z" fill="black"/>
<path d="M79.981 14.7525C79.981 9.95137 82.4057 6.57739 86.6395 6.57739C89.6165 6.57739 92.7437 8.33982 92.7437 13.8094V15.2366H83.1103V15.4189C83.1103 18.3674 84.676 20.0083 86.7601 20.0083C88.11 20.0083 89.2462 19.4614 90.0122 18.0929L90.1962 17.7576L92.712 18.8222L92.5596 19.1261C91.4234 21.3747 89.3986 22.5 86.6691 22.5C82.8035 22.5 79.981 19.7946 79.981 14.7504V14.7525ZM89.7371 13.1409V12.9272C89.7371 10.1609 88.2645 9.12778 86.6395 9.12778C85.0145 9.12778 83.4171 10.3433 83.142 13.1388H89.7392L89.7371 13.1409Z" fill="black"/>
<path d="M101.211 0.864624H105.845L111.92 22.1353H108.513L107.009 16.5442H99.891L98.3867 22.1353H95.1642L101.211 0.864624ZM106.275 13.9309L103.452 3.47788L100.629 13.9309H106.275Z" fill="#EF681C"/>
<path d="M111.12 6.94202H114.311L116.826 17.7911L119.619 6.94202H122.626L125.357 17.7911L127.966 6.94202H130.882L126.923 22.1354H123.762L121.001 11.3177L118.208 22.1354H115.079L111.12 6.94202Z" fill="#EF681C"/>
<path d="M140.297 20.6767C139.345 21.6785 138.088 22.4706 136.063 22.4999C133.18 22.4999 131.307 20.5845 131.307 18.1243C131.307 15.4502 133.546 14.1425 135.511 13.5956L140.268 12.2586V11.7116C140.268 10.0099 139.193 9.15912 137.506 9.15912C135.943 9.15912 134.684 10.1315 134.132 11.2254L134.041 11.4077L131.616 10.1315L131.77 9.82762C132.445 8.45917 134.318 6.5752 137.784 6.5752C141.249 6.5752 143.46 8.30829 143.46 11.4371V19.4298C143.46 20.1885 143.492 21.1923 143.645 21.8608L143.706 22.1353H140.515L140.483 21.9823C140.392 21.5569 140.331 21.1315 140.299 20.6767H140.297ZM136.893 20.0983C138.304 20.0983 139.563 19.2769 140.268 18.3967V14.568L136.954 15.5718C135.695 15.9657 134.591 16.6049 134.591 17.9126C134.591 19.2203 135.482 20.1004 136.893 20.1004V20.0983Z" fill="#EF681C"/>
<path d="M146.556 6.94203H149.533V9.79838C151.558 7.45755 153.369 6.75971 154.903 6.72827V9.67683C152.755 9.67683 151.067 10.863 149.749 12.047V22.1354H146.558V6.94203H146.556Z" fill="#EF681C"/>
<path d="M155.237 14.7525C155.237 9.95137 157.662 6.57739 161.896 6.57739C164.873 6.57739 168.002 8.33982 168.002 13.8094V15.2366H158.369V15.4189C158.369 18.3674 159.934 20.0083 162.021 20.0083C163.371 20.0083 164.507 19.4614 165.273 18.0929L165.457 17.7576L167.972 18.8222L167.82 19.1261C166.684 21.3747 164.659 22.5 161.93 22.5C158.064 22.5 155.241 19.7946 155.241 14.7504L155.237 14.7525ZM164.993 13.1409V12.9272C164.993 10.1609 163.521 9.12778 161.894 9.12778C160.267 9.12778 158.671 10.3433 158.396 13.1388H164.993V13.1409Z" fill="#EF681C"/>
</g>
<defs>
<clipPath id="clip0_2606_84013">
<rect width="168" height="22" fill="white" transform="translate(0 0.5)"/>
</clipPath>
</defs>
</svg>
