<svg width="134" height="45" viewBox="0 0 134 45" fill="none" xmlns="http://www.w3.org/2000/svg">
<g clip-path="url(#clip0_2606_84070)">
<path d="M20.8234 31.0095C25.6768 31.0095 29.6113 27.1042 29.6113 22.2867C29.6113 17.4693 25.6768 13.564 20.8234 13.564C15.97 13.564 12.0356 17.4693 12.0356 22.2867C12.0356 27.1042 15.97 31.0095 20.8234 31.0095Z" fill="#FF5F00"/>
<path d="M20.8234 11.2394L24.8199 7.27253V2.5166H16.827V7.27253L20.8234 11.2394Z" fill="#FF5F00"/>
<path d="M15.2585 12.7322L16.7196 7.29381L14.3131 3.15637L7.39453 7.14452L9.80099 11.2606L15.2585 12.7322Z" fill="#FF8300"/>
<path d="M11.1761 16.7631L9.71504 11.346L5.54671 8.9574L1.55026 15.8247L5.74008 18.2133L11.1761 16.7631Z" fill="#FF5F00"/>
<path d="M9.69356 22.2868L5.69711 18.3199H0.884186V26.2536H5.69711L9.69356 22.2868Z" fill="#FF8300"/>
<path d="M11.1761 27.8105L5.74008 26.3602L1.55026 28.7489L5.54671 35.6162L9.71504 33.2275L11.1761 27.8105Z" fill="#FF5F00"/>
<path d="M15.237 31.8625L9.80099 33.3128L7.39453 37.4502L14.3131 41.3957L16.7196 37.2583L15.237 31.8625Z" fill="#FF8300"/>
<path d="M20.8234 33.3341L16.827 37.3009V42.0782H24.8199V37.3009L20.8234 33.3341Z" fill="#FF5F00"/>
<path d="M26.3884 31.8625L24.9273 37.2583L27.3338 41.3957L34.2524 37.4502L31.8459 33.3128L26.3884 31.8625Z" fill="#FF8300"/>
<path d="M30.4493 27.8105L31.9104 33.2275L36.0787 35.6162L40.0966 28.7489L35.9283 26.3602L30.4493 27.8105Z" fill="#FF5F00"/>
<path d="M31.9533 22.2868L35.9498 26.2536H40.7412V18.3199H35.9498L31.9533 22.2868Z" fill="#FF8300"/>
<path d="M30.4493 16.7631L35.9283 18.2133L40.0966 15.8247L36.0787 8.9574L31.9318 11.346L30.4493 16.7631Z" fill="#FF5F00"/>
<path d="M26.3884 12.7322L31.8459 11.282L34.2524 7.14452L27.3338 3.15637L24.9273 7.29381L26.3884 12.7322Z" fill="#FF8300"/>
<path d="M54.5784 7.22986C58.0806 7.22986 59.821 8.93602 59.821 8.93602L58.1236 12.0284C58.1236 12.0284 56.8989 10.8128 54.8792 10.8128C52.3438 10.8128 51.334 12.3483 51.334 14.0758C51.334 16.1232 52.6876 17.5735 54.7503 17.5735C56.018 17.5735 57.0063 16.9123 57.1138 16.7417V16.1445H55.3949V13.2654H60.4656V20.8152H57.2212V20.2393C57.2212 20.0261 57.2427 19.8555 57.2642 19.8128H57.1782C57.0063 20.0474 55.932 21.0498 53.7619 21.0498C50.1092 21.0498 47.1012 18.3412 47.1012 14.1611C47.1656 10.237 50.0878 7.22986 54.5784 7.22986Z" fill="black"/>
<path d="M77.1605 7.72034H82.8973C85.7979 7.72034 87.7747 9.27721 87.7747 12.0284C87.7747 13.5426 87.0012 14.9502 85.755 15.6966V15.7393C85.7979 15.8033 86.0558 16.1445 86.3351 16.635L88.6556 20.8364H84.3154L82.2527 16.7203H81.1354V20.8364H77.139V7.72034H77.1605ZM82.3387 13.6706C83.2411 13.6706 83.7353 13.1374 83.7353 12.2843C83.7353 11.4526 83.3915 10.9194 82.1883 10.9194H81.1354V13.6492L82.3387 13.6706Z" fill="black"/>
<path d="M89.644 7.72034H95.0155C99.0979 7.72034 101.698 10.109 101.698 14.2464C101.698 18.3838 99.0979 20.8364 95.0155 20.8364H89.644V7.72034ZM94.7577 17.5947C96.5411 17.5947 97.5939 16.4644 97.5939 14.2464C97.5939 12.0497 96.4766 10.9407 94.7577 10.9407H93.6404V17.5947H94.7577Z" fill="black"/>
<path d="M118.328 7.72034H122.131L125.397 13.0947C125.934 13.9905 126.343 15.0995 126.343 15.0995H126.407C126.407 15.0995 126.257 13.9265 126.257 13.0947V7.72034H130.103V20.8364H126.235L122.948 15.2061C122.475 14.417 122.002 13.2227 122.002 13.2227H121.938C121.938 13.2227 122.088 14.3744 122.088 15.2061V20.8364H118.307V7.72034H118.328Z" fill="black"/>
<path d="M48.1755 23.8436H52.5372L54.1916 29.1327C54.4495 29.9645 54.7288 31.2441 54.7288 31.2441H54.7932C54.7932 31.2441 55.0726 29.9858 55.3304 29.1327L56.9848 23.8436H61.3251L62.292 36.9597H58.5748L58.2096 31.5C58.1451 30.519 58.2096 29.3887 58.2096 29.3887H58.1451C58.1451 29.3887 57.8228 30.6683 57.5435 31.5L56.3403 35.2323H53.1603L51.9356 31.5C51.6777 30.6683 51.334 29.3887 51.334 29.3887H51.2695C51.2695 29.3887 51.3125 30.4977 51.248 31.5L50.9042 36.9597H47.1441L48.1755 23.8436Z" fill="black"/>
<path d="M70.3708 23.5237C74.711 23.5237 77.6117 26.4668 77.6117 30.3483C77.6117 34.3365 74.711 37.3436 70.3708 37.3436C66.0306 37.3436 63.1299 34.3365 63.1299 30.3483C63.1299 26.4668 66.0306 23.5237 70.3708 23.5237ZM70.3708 33.782C72.1327 33.782 73.4218 32.3957 73.4218 30.3697C73.4218 28.4289 72.1541 27.1066 70.3708 27.1066C68.5874 27.1066 67.3197 28.4289 67.3197 30.3697C67.3197 32.3957 68.6089 33.782 70.3708 33.782Z" fill="black"/>
<path d="M68.7808 7.46448C73.121 7.46448 76.0217 10.4076 76.0217 14.2891C76.0217 18.2773 73.121 21.2844 68.7808 21.2844C64.4406 21.2844 61.5399 18.2773 61.5399 14.2891C61.5614 10.4076 64.4406 7.46448 68.7808 7.46448ZM68.7808 17.7228C70.5427 17.7228 71.8319 16.3365 71.8319 14.3104C71.8319 12.3697 70.5642 11.0474 68.7808 11.0474C66.9974 11.0474 65.7298 12.3697 65.7298 14.3104C65.7298 16.3365 67.0189 17.7228 68.7808 17.7228Z" fill="black"/>
<path d="M109.884 7.46448C114.224 7.46448 117.125 10.4076 117.125 14.2891C117.125 18.2773 114.224 21.2844 109.884 21.2844C105.544 21.2844 102.643 18.2773 102.643 14.2891C102.643 10.4076 105.544 7.46448 109.884 7.46448ZM109.884 17.7228C111.646 17.7228 112.935 16.3365 112.935 14.3104C112.935 12.3697 111.667 11.0474 109.884 11.0474C108.122 11.0474 106.833 12.3697 106.833 14.3104C106.833 16.3365 108.101 17.7228 109.884 17.7228Z" fill="black"/>
<path d="M85.6261 23.5237C89.9663 23.5237 92.8669 26.4668 92.8669 30.3483C92.8669 34.3365 89.9663 37.3436 85.6261 37.3436C81.2858 37.3436 78.3852 34.3365 78.3852 30.3483C78.3852 26.4668 81.3073 23.5237 85.6261 23.5237ZM85.6261 33.782C87.3879 33.782 88.6771 32.3957 88.6771 30.3697C88.6771 28.4289 87.4094 27.1066 85.6261 27.1066C83.8427 27.1066 82.575 28.4289 82.575 30.3697C82.575 32.3957 83.8642 33.782 85.6261 33.782Z" fill="black"/>
<path d="M94.1991 23.8436H99.5706C103.653 23.8436 106.253 26.2323 106.253 30.3697C106.253 34.5071 103.653 36.9597 99.5706 36.9597H94.1991V23.8436ZM99.3128 33.7394C101.096 33.7394 102.149 32.609 102.149 30.391C102.149 28.1943 101.032 27.0853 99.3128 27.0853H98.1955V33.7394H99.3128Z" fill="black"/>
<path d="M109.777 31.7773L105.415 23.865H109.691L110.958 26.5735C111.324 27.4053 111.71 28.5569 111.71 28.5569H111.775C111.775 28.5569 112.162 27.4053 112.548 26.5735L113.795 23.865H118.092L113.795 31.7773V36.9598H109.798L109.777 31.7773Z" fill="black"/>
</g>
<defs>
<clipPath id="clip0_2606_84070">
<rect width="133" height="45" fill="white" transform="translate(0.390015)"/>
</clipPath>
</defs>
</svg>
