<svg width="56" height="56" viewBox="0 0 56 56" fill="none" xmlns="http://www.w3.org/2000/svg">
<path d="M22.1665 4.66663C12.5005 4.66663 4.6665 12.5006 4.6665 22.1666C4.6665 31.8326 12.5005 39.6666 22.1665 39.6666C31.8325 39.6666 39.6665 31.8326 39.6665 22.1666C39.6665 12.5006 31.8325 4.66663 22.1665 4.66663Z" fill="#FF3D00"/>
<path d="M22.6313 19.7148L24.4998 18.5481V4.78511C23.6841 4.78511 22.9823 4.66663 22.1665 4.66663C21.3507 4.66663 20.6489 4.78511 19.8332 4.78511V18.0833L22.6313 19.7148ZM19.8332 20.7675V18.0833L8.28499 11.4342C7.35075 12.7148 6.53499 14 5.95166 15.5175L17.4998 22.1666L19.8332 20.7675ZM19.8332 23.5657L17.4998 22.1666L5.95166 28.8157C6.53499 30.2148 7.35075 31.6184 8.28499 32.899L19.8332 26.25V23.5657ZM22.1665 24.8509L19.8332 26.25V39.5481C20.6489 39.6666 21.3507 39.6666 22.1665 39.6666C22.9823 39.6666 23.6841 39.5481 24.4998 39.5481V26.25L22.1665 24.8509ZM27.1841 22.399L24.4998 24.0351V26.25L36.048 32.899C36.9823 31.6184 37.798 30.3333 38.3813 28.8157L27.1841 22.399ZM24.4998 20.7675L27.1841 22.2851L38.2674 15.1666C37.6841 13.7675 36.8683 12.3684 35.8156 11.2018L24.4998 18.5481V20.7675Z" fill="#FFCCBC"/>
<path d="M22.1665 8.16663C14.4328 8.16663 8.1665 14.4329 8.1665 22.1666C8.1665 29.9003 14.4328 36.1666 22.1665 36.1666C29.9002 36.1666 36.1665 29.9003 36.1665 22.1666C36.1665 14.4329 29.9002 8.16663 22.1665 8.16663Z" fill="#FF3D00"/>
<path d="M22.1666 33.8333C21.1184 33.8333 20.1842 33.7149 19.1315 33.4824C16.1009 32.6667 13.649 30.7982 12.0175 28C10.3815 25.2018 10.0351 22.1667 10.8509 19.1315C11.6666 16.1009 13.5351 13.6491 16.3333 12.0176C19.0175 10.5 22.1666 10.0352 25.2018 10.8509C28.2324 11.6667 30.6842 13.5352 32.3157 16.3333C35.5833 21.9343 33.6009 29.0482 28 32.3158C26.1315 33.3685 24.149 33.8333 22.1666 33.8333ZM22.1666 12.8333C20.5351 12.8333 18.899 13.2982 17.5 14.1185C15.2851 15.3991 13.7675 17.3815 13.1842 19.8333C12.4824 22.1667 12.8333 24.6185 14.1184 26.8333C15.399 29.0482 17.3815 30.5658 19.8333 31.1491C22.2851 31.8509 24.7324 31.5 26.9518 30.2149C31.3815 27.6491 32.899 21.9343 30.3333 17.5C29.0481 15.2852 27.0657 13.7676 24.6184 13.1843C23.7981 12.9518 22.9824 12.8333 22.1666 12.8333Z" fill="#B22702"/>
<path d="M16.1006 29.2852L14.583 31.0352C15.6312 31.8509 16.7979 32.5482 18.083 33.0176L18.8988 30.7982C17.9645 30.5658 16.9163 29.9824 16.1006 29.2852ZM12.9515 23.7982L10.6182 24.1491C10.8506 25.5482 11.3154 26.8333 12.0173 28L13.9997 26.8333C13.5348 25.8991 13.1839 24.8509 12.9515 23.7982ZM30.2145 26.8333C29.6312 27.7676 28.9339 28.5833 28.1182 29.2852L29.6312 31.0352C30.6839 30.2148 31.4997 29.1667 32.2015 27.8815L30.2145 26.8333ZM25.3154 30.9167C24.3812 31.2676 23.2145 31.5 22.1663 31.5V33.8333C23.5654 33.8333 24.8506 33.6009 26.1312 33.1315L25.3154 30.9167ZM25.2015 10.8509C24.1488 10.6185 23.1006 10.5 22.1663 10.5V12.8333C22.9821 12.8333 23.7979 12.9518 24.6182 13.1842C24.8506 13.2982 25.083 13.2982 25.4339 13.4167L26.2497 11.2018C25.7848 11.0833 25.5479 10.9648 25.2015 10.8509ZM29.6312 13.1842L28.1182 14.9342C28.9339 15.6315 29.6312 16.4518 30.2145 17.3815L32.2015 16.2148C31.6182 15.1667 30.6839 14.1185 29.6312 13.1842ZM33.6006 20.1842L31.2673 20.5352C31.4997 21.5833 31.4997 22.6315 31.2673 23.7982L33.6006 24.1491C33.833 22.8685 33.833 21.4648 33.6006 20.1842ZM12.0173 16.3333C11.5479 17.1491 11.083 18.0833 10.8506 19.1315C10.7321 19.4824 10.7321 19.8333 10.6182 20.1842L12.9515 20.5352C12.9515 20.2982 13.0654 19.9518 13.0654 19.7148C13.2979 18.8991 13.6488 18.2018 13.9997 17.5L12.0173 16.3333ZM18.2015 11.2018C16.9163 11.6667 15.7497 12.3685 14.7015 13.1842L16.2145 14.9342C17.0348 14.2324 17.9645 13.6491 19.0173 13.2982L18.2015 11.2018Z" fill="#FBE9E7"/>
<path d="M33.833 16.3333C24.167 16.3333 16.333 24.1672 16.333 33.8333C16.333 43.4993 24.167 51.3333 33.833 51.3333C43.499 51.3333 51.333 43.4993 51.333 33.8333C51.333 24.1672 43.499 16.3333 33.833 16.3333Z" fill="#546E7A"/>
<path d="M34.2979 31.3814L36.1663 30.2148V16.4517C35.3506 16.3333 34.6488 16.3333 33.833 16.3333C33.0173 16.3333 32.3154 16.4517 31.4997 16.4517V29.7499L34.2979 31.3814ZM31.4997 32.4342V29.7499L19.9515 23.1008C19.0173 24.3814 18.2015 25.6666 17.6182 27.1842L29.1663 33.8333L31.4997 32.4342ZM31.4997 35.2323L29.1663 33.8333L17.6182 40.4823C18.2015 41.8814 19.0173 43.2851 19.9515 44.5657L31.4997 37.9166V35.2323ZM33.833 36.5175L31.4997 37.9166V51.2148C32.3154 51.3333 33.0173 51.3333 33.833 51.3333C34.6488 51.3333 35.3506 51.2148 36.1663 51.2148V37.9166L33.833 36.5175ZM38.8506 34.0657L36.1663 35.7017V37.9166L47.7145 44.5657C48.6488 43.2851 49.4645 41.9999 50.0479 40.4823L38.8506 34.0657ZM36.1663 32.4342L38.8506 33.9517L49.9339 26.8333C49.3506 25.4342 48.5348 24.0351 47.4821 22.8684L36.1663 30.2148V32.4342Z" fill="#90A4AE"/>
<path d="M33.833 19.8333C26.0993 19.8333 19.833 26.0995 19.833 33.8333C19.833 41.567 26.0993 47.8333 33.833 47.8333C41.5667 47.8333 47.833 41.567 47.833 33.8333C47.833 26.0995 41.5667 19.8333 33.833 19.8333Z" fill="#546E7A"/>
<path d="M33.8333 45.5C29.75 45.5 25.8991 43.3991 23.6842 39.6666C22.1666 36.9824 21.7018 33.8333 22.5175 30.7981C23.3333 27.7675 25.2018 25.3157 28 23.6842C30.6842 22.1666 33.8333 21.7018 36.8685 22.5175C39.8991 23.3333 42.3509 25.2018 43.9824 28C45.5 30.6842 45.9648 33.8333 45.1491 36.8685C44.3333 39.8991 42.4648 42.3509 39.6666 43.9824C37.7981 45.0351 35.8157 45.5 33.8333 45.5ZM29.1666 25.7851C26.9518 27.0657 25.4342 29.0481 24.8509 31.5C24.1491 33.8333 24.5 36.2851 25.7851 38.5C28.3509 42.9342 34.0657 44.4518 38.5 41.8815C40.7148 40.6009 42.2324 38.6185 42.8157 36.1666C43.5175 33.7148 43.1666 31.2675 41.8815 29.0481C39.3157 24.7324 33.6009 23.2148 29.1666 25.7851Z" fill="#37474F"/>
<path d="M27.7676 40.9518L26.25 42.7018C27.2982 43.5175 28.4648 44.2148 29.75 44.6842L30.5658 42.4648C29.6315 42.2324 28.5833 41.649 27.7676 40.9518ZM24.6185 35.4648L22.2852 35.8157C22.5176 37.2148 22.9824 38.5 23.6842 39.6666L25.6667 38.5C25.2018 37.5657 24.8509 36.5175 24.6185 35.4648ZM41.8815 38.5C41.2982 39.4342 40.6009 40.25 39.7852 40.9518L41.2982 42.7018C42.3509 41.8815 43.1667 40.8333 43.8685 39.5481L41.8815 38.5ZM36.9824 42.5833C36.0482 42.9342 34.8815 43.1666 33.8333 43.1666V45.5C35.2324 45.5 36.5176 45.2675 37.7982 44.7981L36.9824 42.5833ZM36.8685 22.5175C35.8158 22.2851 34.7676 22.1666 33.8333 22.1666V24.5C34.6491 24.5 35.4648 24.6184 36.2852 24.8509C36.5176 24.9648 36.75 24.9648 37.1009 25.0833L37.9167 22.8684C37.4518 22.75 37.2148 22.6315 36.8685 22.5175ZM41.2982 24.8509L39.7852 26.6009C40.6009 27.2981 41.2982 28.1184 41.8815 29.0481L43.8685 27.8815C43.2852 26.8333 42.3509 25.7851 41.2982 24.8509ZM45.2676 31.8509L42.9342 32.2018C43.1667 33.25 43.1667 34.2981 42.9342 35.4648L45.2676 35.8157C45.5 34.5351 45.5 33.1315 45.2676 31.8509ZM23.6842 28C23.2148 28.8157 22.75 29.75 22.5176 30.7981C22.3991 31.149 22.3991 31.5 22.2852 31.8509L24.6185 32.2018C24.6185 31.9648 24.7324 31.6184 24.7324 31.3815C24.9648 30.5657 25.3158 29.8684 25.6667 29.1666L23.6842 28ZM29.8685 22.8684C28.5833 23.3333 27.4167 24.0351 26.3685 24.8509L27.8815 26.6009C28.7018 25.899 29.6315 25.3157 30.6842 24.9648L29.8685 22.8684Z" fill="#ECEFF1"/>
</svg>
