<svg width="56" height="56" viewBox="0 0 56 56" fill="none" xmlns="http://www.w3.org/2000/svg">
<path d="M33.7489 25.3575C33.7489 25.34 38.2814 24.6094 40.2589 21.4113L39.5939 20.895C39.5939 20.895 40.2501 20.23 40.2501 18.1562C40.2501 14.105 36.8814 11.6375 36.1289 11.235C34.3526 10.2987 31.6051 9.625 27.3439 9.625C21.4376 9.625 11.6989 11.3837 9.29264 11.83C9.17889 11.8563 8.94264 11.9 8.67139 11.9613L11.3751 15.75C19.1539 14.6563 22.9689 14 26.3201 14C30.3626 14 33.2501 14.98 33.2501 17.9375H34.1076C34.1076 21.6213 31.7976 24.1588 29.3214 24.9637C28.3326 25.2875 27.5189 25.375 26.6876 25.375C24.0626 25.375 23.0739 24.5 23.0739 24.5L23.4851 24.3337L23.0651 20.5013L17.0101 21.4113L19.1101 41.195L19.1539 41.5975L22.3126 42.4725C22.3126 42.4725 21.9101 44.3187 18.7076 44.9575C17.9026 45.115 17.2376 45.2463 16.8001 45.3338L18.3751 49C18.3751 49 25.8301 48.7463 33.7314 46.5588C37.9533 45.3906 41.2345 43.5181 43.422 41.6194C45.2595 40.0269 46.3751 37.7519 46.3751 33.9062C46.3751 27.4837 39.7514 25.4363 33.7489 25.3575ZM33.2064 42.1838C31.4564 42.6825 30.0826 42.8838 28.8751 42.8838C26.0314 42.875 25.0339 42 25.0339 42L25.4364 41.7463L23.9139 28.1313L26.3245 28.4331C26.3245 28.4331 28.1533 28 29.7501 28C33.6876 28 38.5001 28.7831 38.5001 33.25C38.5001 33.2937 38.4958 33.3331 38.4958 33.3725L39.3751 33.25C39.3751 37.94 37.2401 40.7225 33.2064 42.1838Z" fill="url(#paint0_linear_1520_24463)"/>
<path d="M25.056 41.965L27.016 40.1669L25.791 29.1594L23.481 28.2056L26.1235 27.58C26.2022 27.5625 28.0703 27.125 29.7503 27.125C37.7041 27.125 39.3753 30.4544 39.3753 33.25C39.3753 40.4294 28.1535 41.6544 27.6766 41.7025L25.056 41.965ZM27.5453 29.085L28.7353 39.7688C31.4347 39.2744 37.6253 37.6513 37.6253 33.25C37.6253 32.1694 37.6253 28.875 29.7503 28.875C28.9935 28.875 28.1666 28.98 27.5453 29.085Z" fill="url(#paint1_linear_1520_24463)"/>
<path d="M39.3008 23.73C40.9239 22.2994 42.8664 19.8975 42.8489 16.6206C42.8227 11.83 40.1102 6.125 27.3439 6.125C18.6114 6.125 7.31957 8.65375 6.81207 8.77187C6.69832 8.79375 6.58894 8.84187 6.49269 8.91187C6.09894 9.19187 6.00707 9.73875 6.28707 10.1325L10.6621 16.2575C10.8327 16.4981 11.1039 16.625 11.3752 16.625C11.4102 16.625 11.4408 16.6119 11.4714 16.6119C11.4802 16.6119 11.4889 16.6163 11.4977 16.6163C12.9239 16.415 14.2146 16.2313 15.3958 16.0606C20.5408 15.3212 23.6471 14.875 26.3202 14.875C32.3752 14.875 32.3752 17.1806 32.3752 17.9375C32.3752 20.8294 28.6652 21.9319 26.7883 22.3081L26.2458 17.4037C26.1933 16.9225 25.7558 16.5813 25.2789 16.6294C25.2658 16.6337 25.2571 16.6381 25.2483 16.6425C25.2483 16.6381 25.2439 16.6337 25.2439 16.6337L16.4939 17.9462L16.4983 17.955C16.0346 18.025 15.7064 18.4406 15.7546 18.9087L18.2658 41.4881L15.5796 42.0175C15.1071 42.1094 14.8008 42.5687 14.8927 43.0456C14.9058 43.1069 14.9364 43.1594 14.9583 43.2163C14.9539 43.2163 14.9452 43.2206 14.9452 43.2206L17.5702 49.3456C17.5746 49.3456 17.5789 49.3456 17.5789 49.35C17.7189 49.6606 18.0208 49.875 18.3752 49.875C18.3971 49.875 18.4189 49.875 18.4364 49.8706C18.5283 49.8662 27.5846 49.2013 35.3896 47.0269C44.5946 44.4631 49.8752 39.76 49.8752 34.125C49.8752 26.1363 43.5664 24.1544 39.3008 23.73ZM34.9214 45.3425C28.4508 47.145 21.0789 47.8887 18.9308 48.0769L16.9796 43.5225L22.3302 42.4681L20.0158 41.3875L17.5877 19.5519L24.6052 18.5019L25.0864 22.82L23.0958 24.4869L25.8958 24.22C26.2327 24.1894 34.1252 23.3756 34.1252 17.9375C34.1252 14.7437 31.5002 13.125 26.3202 13.125C23.5202 13.125 20.3702 13.58 15.1464 14.3281C14.1183 14.4769 12.9939 14.6388 11.7777 14.8094L8.48769 10.2025C11.7383 9.53313 20.4796 7.875 27.3439 7.875C36.4396 7.875 41.0683 10.8194 41.0989 16.6294C41.1208 21.0656 36.3783 23.7037 36.3302 23.73L33.3246 25.375H37.1877C41.2739 25.375 48.1252 26.5125 48.1252 34.125C48.1252 40.9281 38.8896 44.2356 34.9214 45.3425Z" fill="url(#paint2_linear_1520_24463)"/>
<defs>
<linearGradient id="paint0_linear_1520_24463" x1="27.5233" y1="9.625" x2="27.5233" y2="49" gradientUnits="userSpaceOnUse">
<stop stop-color="#6DC7FF"/>
<stop offset="1" stop-color="#E6ABFF"/>
</linearGradient>
<linearGradient id="paint1_linear_1520_24463" x1="31.4277" y1="6.05237" x2="31.4277" y2="49.9485" gradientUnits="userSpaceOnUse">
<stop stop-color="#1A6DFF"/>
<stop offset="1" stop-color="#C822FF"/>
</linearGradient>
<linearGradient id="paint2_linear_1520_24463" x1="28.0002" y1="6.05238" x2="28.0002" y2="49.9485" gradientUnits="userSpaceOnUse">
<stop stop-color="#1A6DFF"/>
<stop offset="1" stop-color="#C822FF"/>
</linearGradient>
</defs>
</svg>
