<svg width="56" height="56" viewBox="0 0 56 56" fill="none" xmlns="http://www.w3.org/2000/svg">
<path d="M36.6836 49.6052H12.3613V51.1254H36.6836V49.6052Z" fill="#4B3C39"/>
<path d="M10.8405 49.6052H9.32031V51.1254H10.8405V49.6052Z" fill="#4B3C39"/>
<path d="M18.4418 26.8029C23.0594 26.8029 26.8026 23.0597 26.8026 18.4421C26.8026 13.8246 23.0594 10.0814 18.4418 10.0814C13.8243 10.0814 10.0811 13.8246 10.0811 18.4421C10.0811 23.0597 13.8243 26.8029 18.4418 26.8029Z" fill="#A80132"/>
<path d="M32.8827 18.4421C32.8833 19.9814 32.6369 21.5109 32.153 22.9722C30.0127 23.6807 28.0677 24.88 26.4734 26.4742C24.8792 28.0684 23.6799 30.0134 22.9714 32.1538C20.0727 33.1114 16.9451 33.1258 14.0377 32.1949C11.1303 31.264 8.59272 29.4357 6.78929 26.9726C4.98586 24.5094 4.00938 21.5382 4.00007 18.4854C3.99076 15.4326 4.9491 12.4554 6.73747 9.98134C8.52585 7.50724 11.0523 5.66351 13.9539 4.7149C16.8556 3.76629 19.9832 3.76161 22.8877 4.70152C25.7922 5.64143 28.3241 7.47759 30.1198 9.94632C31.9156 12.415 32.8829 15.3894 32.8827 18.4421ZM26.8021 18.4421C26.8021 16.7885 26.3118 15.1721 25.3931 13.7971C24.4744 12.4222 23.1686 11.3506 21.6409 10.7178C20.1132 10.085 18.4321 9.91939 16.8102 10.242C15.1884 10.5646 13.6987 11.3609 12.5294 12.5302C11.3601 13.6994 10.5638 15.1892 10.2412 16.811C9.91862 18.4329 10.0842 20.1139 10.717 21.6417C11.3498 23.1694 12.4214 24.4752 13.7964 25.3939C15.1713 26.3126 16.7878 26.8029 18.4414 26.8029C19.5395 26.8035 20.627 26.5877 21.6416 26.1677C22.6562 25.7478 23.5782 25.1319 24.3547 24.3554C25.1312 23.5789 25.747 22.657 26.1669 21.6424C26.5869 20.6277 26.8027 19.5403 26.8021 18.4421Z" fill="#E3DECB"/>
<path d="M32.1535 22.9722C34.2929 22.2658 36.5679 22.0697 38.7965 22.3996C41.0252 22.7295 43.1458 23.5763 44.9887 24.8722C46.8317 26.1682 48.3458 27.8773 49.4101 29.863C50.4744 31.8488 51.0594 34.056 51.1182 36.3082C51.1771 38.5604 50.7081 40.7951 49.7489 42.8337C48.7897 44.8723 47.3669 46.6581 45.5941 48.0485C43.8213 49.4389 41.7479 50.3952 39.5394 50.8411C37.331 51.2869 35.0489 51.2098 32.8756 50.616C32.9131 49.3942 32.682 48.179 32.1986 47.0562C31.7153 45.9335 30.9914 44.9304 30.0782 44.1179C29.1649 43.3054 28.0845 42.7032 26.9131 42.3538C25.7417 42.0043 24.5079 41.9162 23.2987 42.0956C22.5975 40.3777 22.2386 38.5394 22.2422 36.6839C22.2424 33.6464 23.2003 30.6863 24.9797 28.2247C26.7591 25.763 29.2694 23.925 32.1535 22.9722ZM45.1356 38.3181C46.0601 36.947 46.5574 35.3327 46.5644 33.6791C46.5714 32.0255 46.088 30.4069 45.1751 29.0281C44.2623 27.6493 42.9611 26.5721 41.436 25.9328C39.911 25.2935 38.2306 25.1208 36.6074 25.4365C34.9842 25.7522 33.4911 26.5421 32.3169 27.7064C31.1426 28.8708 30.34 30.3571 30.0105 31.9776C29.6811 33.598 29.8395 35.2798 30.4658 36.8102C31.0922 38.3406 32.1582 39.6509 33.5293 40.5755C34.4394 41.1899 35.4617 41.6189 36.5377 41.838C37.6137 42.0571 38.7224 42.062 39.8003 41.8523C40.8782 41.6427 41.9042 41.2226 42.8197 40.6162C43.7351 40.0097 44.5221 39.2288 45.1356 38.3181Z" fill="#F7F3E1"/>
<path d="M29.196 43.4334C30.3655 44.2229 31.3161 45.2956 31.9593 46.5515C32.6026 47.8074 32.9175 49.2057 32.8748 50.6161C30.7306 50.0283 28.751 48.9536 27.0899 47.4758C25.4289 45.998 24.1312 44.1569 23.2979 42.0957C25.3621 41.7858 27.4674 42.2633 29.196 43.4334Z" fill="#D1013E"/>
<path d="M42.878 26.7118C44.249 27.6363 45.3151 28.9466 45.9414 30.477C46.5677 32.0075 46.7262 33.6892 46.3967 35.3097C46.0672 36.9302 45.2646 38.4165 44.0904 39.5808C42.9161 40.7451 41.423 41.5351 39.7998 41.8508C38.1766 42.1665 36.4962 41.9938 34.9712 41.3545C33.4462 40.7152 32.145 39.638 31.2321 38.2592C30.3193 36.8804 29.8358 35.2618 29.8428 33.6082C29.8499 31.9546 30.3471 30.3402 31.2717 28.9692C31.8851 28.0585 32.6721 27.2775 33.5876 26.6711C34.503 26.0647 35.529 25.6446 36.6069 25.435C37.6849 25.2253 38.7935 25.2302 39.8695 25.4493C40.9456 25.6683 41.9679 26.0974 42.878 26.7118Z" fill="#D1013E"/>
<path d="M20.4822 25.1225C19.8065 25.2237 19.1246 25.2773 18.4414 25.2828C16.1938 25.2815 13.9778 24.7528 11.9717 23.7391C12.755 24.6981 13.742 25.4705 14.8611 26.0005C15.9802 26.5304 17.2032 26.8046 18.4414 26.803C18.7743 26.8011 19.1068 26.7795 19.4371 26.7384C21.5806 26.4843 23.5422 25.4093 24.9096 23.7391C23.5187 24.4375 22.0233 24.9047 20.4822 25.1225Z" fill="#8F0029"/>
<path d="M32.3607 14.6418C31.8253 16.5951 30.8856 18.4141 29.6025 19.9812C28.3193 21.5482 26.7213 22.8282 24.912 23.7383C23.5446 25.4084 21.583 26.4835 19.4395 26.7376C19.1084 26.7791 18.7752 26.8009 18.4415 26.8029C17.2033 26.8045 15.9803 26.5304 14.8612 26.0004C13.7422 25.4705 12.7551 24.698 11.9718 23.7391C10.1619 22.8295 8.56336 21.5496 7.28 19.9823C5.99665 18.4151 5.05711 16.5956 4.52234 14.6418C3.94532 16.7238 3.84487 18.9091 4.22844 21.0353C4.61202 23.1615 5.46976 25.1739 6.73795 26.923C8.00613 28.6722 9.65215 30.113 11.5537 31.1386C13.4553 32.1642 15.5635 32.7481 17.7217 32.847C17.9619 32.8592 18.1983 32.8835 18.4415 32.8835C19.9808 32.8841 21.5103 32.6377 22.9716 32.1538C23.6801 30.0135 24.8794 28.0684 26.4736 26.4742C28.0678 24.88 30.0128 23.6807 32.1532 22.9722C32.5492 21.7639 32.7835 20.5085 32.8502 19.2387C32.8654 18.9742 32.8829 18.7112 32.8829 18.4421C32.879 17.1577 32.7034 15.8796 32.3607 14.6418Z" fill="#C7C3B2"/>
<path d="M31.5698 39.5175C29.7319 37.6801 28.4239 35.3809 27.7837 32.8622C27.1435 30.3436 27.1947 27.6988 27.9321 25.2068C26.1636 26.5522 24.7299 28.2881 23.7429 30.279C22.7559 32.2698 22.2423 34.4618 22.2422 36.6839C22.2386 38.5394 22.5975 40.3777 23.2987 42.0956C24.5079 41.9162 25.7417 42.0044 26.9131 42.3538C28.0845 42.7032 29.1649 43.3054 30.0782 44.118C30.9914 44.9305 31.7153 45.9335 32.1986 47.0563C32.682 48.1791 32.9131 49.3942 32.8756 50.616C36.5195 51.6105 40.4079 51.1378 43.7073 49.2992C47.0068 47.4607 49.4546 44.4027 50.526 40.7807C47.7486 42.9001 44.2967 43.9401 40.8108 43.7078C37.3248 43.4755 34.0414 41.9867 31.5698 39.5175Z" fill="#E3DECB"/>
<path d="M29.196 43.4334C27.4674 42.2633 25.3621 41.7858 23.2979 42.0957C24.1312 44.1569 25.4289 45.998 27.0899 47.4758C28.751 48.9536 30.7306 50.0283 32.8748 50.6161C32.9175 49.2057 32.6026 47.8074 31.9593 46.5515C31.3161 45.2956 30.3655 44.2229 29.196 43.4334Z" fill="#8F0029"/>
<path d="M16.2929 14.0132C15.8682 14.4384 15.579 14.9799 15.4618 15.5694C15.3447 16.1589 15.4049 16.7699 15.6348 17.3251C15.8648 17.8804 16.2541 18.3551 16.7537 18.6892C17.2533 19.0233 17.8407 19.2018 18.4417 19.2022H19.9618V20.7224C19.9618 21.1255 19.8016 21.5122 19.5166 21.7973C19.2315 22.0824 18.8448 22.2425 18.4417 22.2425C18.0385 22.2425 17.6518 22.0824 17.3667 21.7973C17.0817 21.5122 16.9215 21.1255 16.9215 20.7224H15.4014C15.4014 21.5287 15.7217 22.302 16.2918 22.8722C16.862 23.4424 17.6353 23.7627 18.4417 23.7627C19.248 23.7627 20.0213 23.4424 20.5915 22.8722C21.1616 22.302 21.4819 21.5287 21.4819 20.7224V16.162C21.4829 15.7626 21.4045 15.3671 21.2515 14.9982C21.0984 14.6294 20.8737 14.2946 20.5904 14.0132C20.0121 13.4594 19.2424 13.1502 18.4417 13.1502C17.641 13.1502 16.8712 13.4594 16.2929 14.0132ZM16.9215 16.162C16.9215 15.7588 17.0817 15.3721 17.3667 15.0871C17.6518 14.802 18.0385 14.6418 18.4417 14.6418C18.8448 14.6418 19.2315 14.802 19.5166 15.0871C19.8016 15.3721 19.9618 15.7588 19.9618 16.162V17.6821H18.4417C18.0385 17.6821 17.6518 17.5219 17.3667 17.2369C17.0817 16.9518 16.9215 16.5651 16.9215 16.162Z" fill="#F7F3E1"/>
<path d="M42.7267 31.7845C42.6564 31.429 42.5165 31.091 42.315 30.7899C42.1134 30.4888 41.8542 30.2306 41.5524 30.0303L39.2645 28.4569L38.4041 29.7095L40.6927 31.2874C40.9648 31.4624 41.1576 31.7368 41.2301 32.052C41.2466 32.1301 41.2473 32.2106 41.2323 32.2889C41.2173 32.3672 41.1868 32.4417 41.1427 32.5081C41.0688 32.5962 40.9753 32.6657 40.8697 32.7111C40.7641 32.7566 40.6494 32.7766 40.5346 32.7696C40.2593 32.7632 39.9922 32.674 39.7685 32.5134L39.0145 32.0011C38.5034 31.5996 37.8561 31.413 37.2097 31.4808C36.5634 31.5487 35.9689 31.8656 35.5523 32.3644C35.2952 32.7183 35.1588 33.1455 35.1632 33.5828C35.1758 34.0131 35.2926 34.4339 35.5036 34.8091C35.7147 35.1843 36.0136 35.5026 36.3747 35.7369L38.6626 37.3102L39.523 36.0576L37.2367 34.4843C37.0799 34.3883 36.948 34.2566 36.8518 34.1C36.7557 33.9433 36.6979 33.7661 36.6833 33.5828C36.6799 33.4651 36.7163 33.3497 36.7867 33.2552C36.9749 33.0871 37.2184 32.9942 37.4708 32.9942C37.7231 32.9942 37.9666 33.0871 38.1548 33.2552L38.9103 33.7683C39.3872 34.1025 39.9539 34.2848 40.5361 34.2912C40.8925 34.3006 41.2458 34.224 41.5664 34.068C41.8869 33.9121 42.1652 33.6813 42.3778 33.3951C42.5411 33.1638 42.6562 32.902 42.7162 32.6253C42.7761 32.3486 42.7797 32.0626 42.7267 31.7845Z" fill="#F7F3E1"/>
<path d="M38.1879 42.7645C36.7623 42.7627 35.3569 42.4268 34.0845 41.7837C32.8122 41.1406 31.7083 40.2082 30.8615 39.0613C30.0147 37.9144 29.4485 36.585 29.2084 35.1797C28.9683 33.7744 29.061 32.3324 29.479 30.9694C29.897 29.6064 30.6287 28.3604 31.6153 27.3313C32.602 26.3023 33.8161 25.5188 35.1603 25.0438C36.5045 24.5689 37.9413 24.4156 39.3555 24.5964C40.7696 24.7771 42.1217 25.2869 43.3032 26.0847C44.9225 27.1781 46.1478 28.7627 46.7988 30.6049C47.4497 32.4472 47.4919 34.4498 46.919 36.3178C46.3461 38.1859 45.1885 39.8205 43.6167 40.9811C42.0448 42.1417 40.1418 42.7669 38.1879 42.7645ZM38.2153 26.0429C36.3935 26.0408 34.6316 26.6931 33.2504 27.881C31.8692 29.0688 30.9606 30.7133 30.69 32.5149C30.4195 34.3164 30.805 36.1552 31.7764 37.6964C32.7478 39.2376 34.2404 40.3786 35.9824 40.9116C37.7244 41.4447 39.5999 41.3344 41.2674 40.6007C42.9349 39.8671 44.2834 38.5589 45.0674 36.9145C45.8514 35.27 46.0186 33.3987 45.5387 31.6413C45.0588 29.8839 43.9636 28.3573 42.4527 27.3396C41.2003 26.4961 39.7252 26.0446 38.2153 26.0429Z" fill="#4B3C39"/>
<path d="M29.6226 42.8033C27.6934 41.5036 25.339 40.9938 23.0449 41.3789C23.1285 41.6183 23.203 41.8616 23.2988 42.0957C23.4001 42.3414 23.5063 42.5836 23.6173 42.8223C23.9216 42.7848 24.228 42.7655 24.5347 42.7645C25.5339 42.7649 26.5233 42.9626 27.4459 43.3462C28.3686 43.7298 29.2065 44.2917 29.9115 44.9999C30.6166 45.708 31.1748 46.5483 31.5544 47.4727C31.9339 48.3971 32.1272 49.3873 32.1232 50.3865C32.3718 50.4694 32.6233 50.5469 32.8787 50.6145C33.1341 50.6822 33.3735 50.7384 33.6236 50.7924C33.698 49.2294 33.3691 47.6735 32.6684 46.2744C31.9677 44.8752 30.9188 43.6799 29.6226 42.8033Z" fill="#4B3C39"/>
<path d="M18.4262 27.563C17.0005 27.5613 15.5951 27.2254 14.3228 26.5822C13.0505 25.9391 11.9466 25.0067 11.0998 23.8598C10.2529 22.7129 9.68678 21.3835 9.44668 19.9782C9.20659 18.5729 9.29926 17.1309 9.71725 15.7679C10.1352 14.4049 10.8669 13.1589 11.8536 12.1298C12.8402 11.1008 14.0544 10.3173 15.3986 9.84236C16.7428 9.36739 18.1796 9.21414 19.5937 9.39491C21.0079 9.57567 22.36 10.0854 23.5415 10.8832C25.1607 11.9767 26.3861 13.5612 27.0371 15.4035C27.688 17.2457 27.7302 19.2483 27.1573 21.1164C26.5844 22.9844 25.4268 24.6191 23.8549 25.7796C22.2831 26.9402 20.3801 27.5654 18.4262 27.563ZM18.4535 10.8414C16.6318 10.8393 14.8699 11.4916 13.4887 12.6795C12.1075 13.8674 11.1989 15.5118 10.9283 17.3134C10.6578 19.1149 11.0433 20.9537 12.0147 22.4949C12.986 24.0361 14.4787 25.1771 16.2207 25.7102C17.9627 26.2432 19.8382 26.1329 21.5057 25.3992C23.1732 24.6656 24.5217 23.3574 25.3057 21.713C26.0896 20.0685 26.2569 18.1972 25.777 16.4398C25.2971 14.6824 24.2019 13.1558 22.6909 12.1381C21.4386 11.2946 19.9634 10.8432 18.4535 10.8414Z" fill="#4B3C39"/>
<path d="M22.1829 8.27921C22.7659 8.81126 23.4613 9.15634 24.0831 9.62986C25.0818 10.3899 25.8647 11.4601 26.8193 12.2901C27.1895 12.6401 27.63 12.9073 28.1114 13.0737C28.2014 13.111 28.2988 13.127 28.396 13.1204C28.4931 13.1138 28.5875 13.0848 28.6716 13.0357C28.7842 12.9381 28.8662 12.8101 28.908 12.6671C29.1883 11.8016 29.1319 10.8622 28.7499 10.0365C28.3797 9.25115 27.8639 8.54317 27.2298 7.9501C26.3237 6.9841 25.2064 6.24087 23.9652 5.77858C23.0653 5.48063 22.1099 5.20472 21.6052 6.37447C21.4847 6.71195 21.4758 7.07922 21.5798 7.42215C21.6838 7.76508 21.8952 8.06553 22.1829 8.27921Z" fill="#FFFCED"/>
<path d="M27.9492 14.578C27.619 15.2458 27.4914 15.9956 27.5821 16.7351C27.5943 17.111 27.6951 17.4787 27.8763 17.8083C27.9793 17.9823 28.1212 18.1301 28.291 18.2401C28.4607 18.35 28.6536 18.4192 28.8545 18.4422C29.1516 18.4401 29.4421 18.3546 29.693 18.1955C29.9438 18.0364 30.145 17.8101 30.2735 17.5422C30.5061 17.114 30.6193 16.6311 30.6012 16.1441C30.5832 15.6571 30.4345 15.1839 30.1709 14.7741C29.9453 14.3629 29.5734 14.0517 29.1289 13.9023C28.8863 13.8774 28.642 13.9292 28.4304 14.0504C28.2188 14.1716 28.0505 14.3561 27.9492 14.578Z" fill="#FFFCED"/>
</svg>
