<svg width="56" height="56" viewBox="0 0 56 56" fill="none" xmlns="http://www.w3.org/2000/svg">
<path d="M33.6435 46.5645C34.9029 46.5645 35.9238 45.5436 35.9238 44.2843C35.9238 43.0249 34.9029 42.004 33.6435 42.004C32.3842 42.004 31.3633 43.0249 31.3633 44.2843C31.3633 45.5436 32.3842 46.5645 33.6435 46.5645Z" fill="#FFBF40"/>
<path d="M28.3222 46.5645C29.5816 46.5645 30.6025 45.5436 30.6025 44.2843C30.6025 43.0249 29.5816 42.004 28.3222 42.004C27.0629 42.004 26.042 43.0249 26.042 44.2843C26.042 45.5436 27.0629 46.5645 28.3222 46.5645Z" fill="#FFBF40"/>
<path d="M20.7216 45.8044C21.981 45.8044 23.0019 44.7835 23.0019 43.5242C23.0019 42.2649 21.981 41.244 20.7216 41.244C19.4623 41.244 18.4414 42.2649 18.4414 43.5242C18.4414 44.7835 19.4623 45.8044 20.7216 45.8044Z" fill="#D1013E"/>
<path d="M10.8408 26.0424C12.1001 26.0424 13.121 25.0215 13.121 23.7621C13.121 22.5028 12.1001 21.4819 10.8408 21.4819C9.58145 21.4819 8.56055 22.5028 8.56055 23.7621C8.56055 25.0215 9.58145 26.0424 10.8408 26.0424Z" fill="#FFBF40"/>
<path d="M15.4013 29.8428C16.6607 29.8428 17.6816 28.8219 17.6816 27.5625C17.6816 26.3032 16.6607 25.2823 15.4013 25.2823C14.142 25.2823 13.1211 26.3032 13.1211 27.5625C13.1211 28.8219 14.142 29.8428 15.4013 29.8428Z" fill="#D1013E"/>
<path d="M10.8408 32.123C12.1001 32.123 13.121 31.1021 13.121 29.8427C13.121 28.5834 12.1001 27.5625 10.8408 27.5625C9.58145 27.5625 8.56055 28.5834 8.56055 29.8427C8.56055 31.1021 9.58145 32.123 10.8408 32.123Z" fill="#D1013E"/>
<path d="M13.8808 38.9637C15.1402 38.9637 16.1611 37.9428 16.1611 36.6834C16.1611 35.4241 15.1402 34.4032 13.8808 34.4032C12.6215 34.4032 11.6006 35.4241 11.6006 36.6834C11.6006 37.9428 12.6215 38.9637 13.8808 38.9637Z" fill="#D1013E"/>
<path d="M29.8427 42.004C31.1021 42.004 32.123 40.9831 32.123 39.7238C32.123 38.4644 31.1021 37.4435 29.8427 37.4435C28.5834 37.4435 27.5625 38.4644 27.5625 39.7238C27.5625 40.9831 28.5834 42.004 29.8427 42.004Z" fill="#D1013E"/>
<path d="M41.2441 38.2036C42.5035 38.2036 43.5244 37.1827 43.5244 35.9234C43.5244 34.664 42.5035 33.6431 41.2441 33.6431C39.9848 33.6431 38.9639 34.664 38.9639 35.9234C38.9639 37.1827 39.9848 38.2036 41.2441 38.2036Z" fill="#FFBF40"/>
<path d="M28.3222 37.4435C29.5816 37.4435 30.6025 36.4226 30.6025 35.1633C30.6025 33.904 29.5816 32.8831 28.3222 32.8831C27.0629 32.8831 26.042 33.904 26.042 35.1633C26.042 36.4226 27.0629 37.4435 28.3222 37.4435Z" fill="#FFBF40"/>
<path d="M23.7617 42.004C25.021 42.004 26.0419 40.9831 26.0419 39.7238C26.0419 38.4644 25.021 37.4435 23.7617 37.4435C22.5023 37.4435 21.4814 38.4644 21.4814 39.7238C21.4814 40.9831 22.5023 42.004 23.7617 42.004Z" fill="#FFBF40"/>
<path d="M15.4013 17.6815C16.6607 17.6815 17.6816 16.6606 17.6816 15.4012C17.6816 14.1419 16.6607 13.121 15.4013 13.121C14.142 13.121 13.1211 14.1419 13.1211 15.4012C13.1211 16.6606 14.142 17.6815 15.4013 17.6815Z" fill="#FFBF40"/>
<path d="M49.6045 35.1633V35.1709L42.2317 42.5437L32.2139 27.9653L49.6045 35.1633ZM43.5239 35.9234C43.5239 35.4724 43.3901 35.0315 43.1396 34.6565C42.889 34.2816 42.5329 33.9893 42.1162 33.8167C41.6996 33.6441 41.2411 33.599 40.7988 33.6869C40.3565 33.7749 39.9502 33.9921 39.6313 34.311C39.3124 34.6299 39.0952 35.0362 39.0072 35.4785C38.9192 35.9208 38.9644 36.3793 39.137 36.796C39.3095 37.2126 39.6018 37.5688 39.9768 37.8193C40.3518 38.0699 40.7926 38.2036 41.2436 38.2036C41.8484 38.2036 42.4284 37.9634 42.856 37.5358C43.2836 37.1081 43.5239 36.5281 43.5239 35.9234Z" fill="#F7F3E1"/>
<path d="M49.6046 16.9214V35.1633L32.214 27.9654L30.557 25.5559C30.5189 25.3257 30.4526 25.101 30.3594 24.887L49.6046 16.9214Z" fill="#E3DECB"/>
<path d="M49.6048 16.9138V16.9214L30.3595 24.887C30.2101 24.5163 29.9878 24.1793 29.7058 23.896C29.4238 23.6127 29.0878 23.3888 28.7178 23.2376L28.8242 23.002L36.6834 4H36.691L49.6048 16.9138Z" fill="#F7F3E1"/>
<path d="M40.4001 44.3755L36.6909 48.0847H18.4338L14.7246 44.3755L25.8218 28.5278C26.3304 28.8888 26.9387 29.0827 27.5624 29.0827C28.1861 29.0827 28.7943 28.8888 29.303 28.5278L40.4001 44.3755ZM35.9233 44.2843C35.9233 43.8333 35.7895 43.3925 35.539 43.0175C35.2884 42.6425 34.9323 42.3502 34.5156 42.1776C34.099 42.0051 33.6405 41.9599 33.1982 42.0479C32.7558 42.1359 32.3495 42.353 32.0306 42.6719C31.7117 42.9908 31.4946 43.3971 31.4066 43.8395C31.3186 44.2818 31.3638 44.7403 31.5363 45.1569C31.7089 45.5736 32.0012 45.9297 32.3762 46.1803C32.7512 46.4308 33.192 46.5645 33.643 46.5645C34.2478 46.5645 34.8278 46.3243 35.2554 45.8967C35.683 45.469 35.9233 44.8891 35.9233 44.2843ZM32.1229 39.7238C32.1229 39.2728 31.9891 38.832 31.7386 38.457C31.488 38.082 31.1319 37.7897 30.7152 37.6172C30.2986 37.4446 29.8401 37.3994 29.3978 37.4874C28.9554 37.5754 28.5491 37.7925 28.2302 38.1114C27.9113 38.4303 27.6942 38.8366 27.6062 39.279C27.5182 39.7213 27.5634 40.1798 27.7359 40.5964C27.9085 41.0131 28.2008 41.3692 28.5758 41.6198C28.9508 41.8703 29.3916 42.0041 29.8426 42.0041C30.4474 42.0041 31.0274 41.7638 31.455 41.3362C31.8826 40.9086 32.1229 40.3286 32.1229 39.7238ZM30.6027 35.1633C30.6027 34.7123 30.469 34.2715 30.2184 33.8965C29.9678 33.5215 29.6117 33.2293 29.1951 33.0567C28.7784 32.8841 28.3199 32.8389 27.8776 32.9269C27.4353 33.0149 27.029 33.2321 26.7101 33.551C26.3912 33.8699 26.174 34.2762 26.086 34.7185C25.998 35.1608 26.0432 35.6193 26.2158 36.0359C26.3884 36.4526 26.6806 36.8087 27.0556 37.0593C27.4306 37.3098 27.8715 37.4436 28.3225 37.4436C28.9272 37.4436 29.5072 37.2033 29.9348 36.7757C30.3625 36.3481 30.6027 35.7681 30.6027 35.1633ZM30.6027 44.2843C30.6027 43.8333 30.469 43.3925 30.2184 43.0175C29.9678 42.6425 29.6117 42.3502 29.1951 42.1776C28.7784 42.0051 28.3199 41.9599 27.8776 42.0479C27.4353 42.1359 27.029 42.353 26.7101 42.6719C26.3912 42.9908 26.174 43.3971 26.086 43.8395C25.998 44.2818 26.0432 44.7403 26.2158 45.1569C26.3884 45.5736 26.6806 45.9297 27.0556 46.1803C27.4306 46.4308 27.8715 46.5645 28.3225 46.5645C28.9272 46.5645 29.5072 46.3243 29.9348 45.8967C30.3625 45.469 30.6027 44.8891 30.6027 44.2843ZM26.0422 39.7238C26.0422 39.2728 25.9085 38.832 25.6579 38.457C25.4074 38.082 25.0512 37.7897 24.6346 37.6172C24.2179 37.4446 23.7594 37.3994 23.3171 37.4874C22.8748 37.5754 22.4685 37.7925 22.1496 38.1114C21.8307 38.4303 21.6135 38.8366 21.5255 39.279C21.4376 39.7213 21.4827 40.1798 21.6553 40.5964C21.8279 41.0131 22.1202 41.3692 22.4951 41.6198C22.8701 41.8703 23.311 42.0041 23.762 42.0041C24.3667 42.0041 24.9467 41.7638 25.3743 41.3362C25.802 40.9086 26.0422 40.3286 26.0422 39.7238ZM23.0019 43.5242C23.0019 43.0732 22.8682 42.6324 22.6176 42.2574C22.367 41.8824 22.0109 41.5901 21.5943 41.4176C21.1776 41.245 20.7191 41.1998 20.2768 41.2878C19.8345 41.3758 19.4282 41.593 19.1093 41.9118C18.7904 42.2307 18.5732 42.637 18.4852 43.0794C18.3972 43.5217 18.4424 43.9802 18.615 44.3968C18.7876 44.8135 19.0798 45.1696 19.4548 45.4202C19.8298 45.6707 20.2707 45.8045 20.7216 45.8045C21.3264 45.8045 21.9064 45.5642 22.334 45.1366C22.7616 44.709 23.0019 44.129 23.0019 43.5242Z" fill="#E3DECB"/>
<path d="M36.6833 4L28.8241 23.002L28.7177 23.2376C28.3524 23.0821 27.9594 23.002 27.5624 23.002C27.1653 23.002 26.7724 23.0821 26.4071 23.2376L26.3006 23.002L18.4414 4H36.6833Z" fill="#E3DECB"/>
<path d="M26.3011 23.002L26.4075 23.2376C26.0385 23.3885 25.7032 23.6113 25.4213 23.8932C25.1394 24.1751 24.9166 24.5104 24.7657 24.8794L5.52051 16.9214V16.9138L18.4343 4H18.4419L26.3011 23.002ZM17.6818 15.4012C17.6818 14.9502 17.5481 14.5094 17.2975 14.1344C17.047 13.7594 16.6908 13.4671 16.2742 13.2945C15.8575 13.122 15.399 13.0768 14.9567 13.1648C14.5144 13.2528 14.1081 13.4699 13.7892 13.7888C13.4703 14.1077 13.2531 14.514 13.1651 14.9564C13.0771 15.3987 13.1223 15.8572 13.2949 16.2738C13.4675 16.6905 13.7597 17.0466 14.1347 17.2972C14.5097 17.5477 14.9506 17.6815 15.4016 17.6815C16.0063 17.6815 16.5863 17.4412 17.0139 17.0136C17.4416 16.586 17.6818 16.006 17.6818 15.4012Z" fill="#F7F3E1"/>
<path d="M5.52051 16.9214L24.7657 24.8794C24.6725 25.096 24.6061 25.3232 24.5681 25.5559L22.9112 27.9654L5.52051 35.1633V16.9214ZM17.6818 27.5625C17.6818 27.1115 17.5481 26.6707 17.2975 26.2957C17.047 25.9207 16.6908 25.6284 16.2742 25.4558C15.8575 25.2833 15.399 25.2381 14.9567 25.3261C14.5144 25.4141 14.1081 25.6312 13.7892 25.9501C13.4703 26.269 13.2531 26.6753 13.1651 27.1177C13.0771 27.56 13.1223 28.0185 13.2949 28.4351C13.4675 28.8518 13.7597 29.2079 14.1347 29.4585C14.5097 29.709 14.9506 29.8428 15.4016 29.8428C16.0063 29.8428 16.5863 29.6025 17.0139 29.1749C17.4416 28.7473 17.6818 28.1673 17.6818 27.5625ZM13.1213 23.7621C13.1213 23.3111 12.9876 22.8703 12.737 22.4953C12.4865 22.1203 12.1303 21.828 11.7137 21.6554C11.297 21.4829 10.8385 21.4377 10.3962 21.5257C9.9539 21.6137 9.5476 21.8308 9.2287 22.1497C8.9098 22.4686 8.69263 22.8749 8.60464 23.3173C8.51666 23.7596 8.56182 24.2181 8.7344 24.6347C8.90699 25.0514 9.19925 25.4075 9.57424 25.6581C9.94922 25.9086 10.3901 26.0424 10.8411 26.0424C11.4458 26.0424 12.0258 25.8021 12.4534 25.3745C12.8811 24.9469 13.1213 24.3669 13.1213 23.7621ZM13.1213 29.8428C13.1213 29.3918 12.9876 28.9509 12.737 28.5759C12.4865 28.2009 12.1303 27.9087 11.7137 27.7361C11.297 27.5635 10.8385 27.5183 10.3962 27.6063C9.9539 27.6943 9.5476 27.9115 9.2287 28.2304C8.9098 28.5493 8.69263 28.9556 8.60464 29.3979C8.51666 29.8402 8.56182 30.2987 8.7344 30.7154C8.90699 31.132 9.19925 31.4882 9.57424 31.7387C9.94922 31.9893 10.3901 32.123 10.8411 32.123C11.4458 32.123 12.0258 31.8828 12.4534 31.4551C12.8811 31.0275 13.1213 30.4475 13.1213 29.8428Z" fill="#E3DECB"/>
<path d="M22.9112 27.9653L12.8933 42.5437L5.52051 35.1709V35.1633L22.9112 27.9653ZM16.1616 36.6835C16.1616 36.2325 16.0279 35.7916 15.7773 35.4166C15.5268 35.0416 15.1707 34.7494 14.754 34.5768C14.3373 34.4042 13.8789 34.359 13.4365 34.447C12.9942 34.535 12.5879 34.7522 12.269 35.0711C11.9501 35.39 11.733 35.7963 11.645 36.2386C11.557 36.6809 11.6021 37.1394 11.7747 37.5561C11.9473 37.9727 12.2396 38.3289 12.6146 38.5794C12.9895 38.83 13.4304 38.9637 13.8814 38.9637C14.4862 38.9637 15.0661 38.7235 15.4938 38.2958C15.9214 37.8682 16.1616 37.2882 16.1616 36.6835Z" fill="#F7F3E1"/>
<path d="M42.2321 42.5437L32.2142 27.9654L30.5572 25.5559C30.5192 25.3257 30.4528 25.101 30.3596 24.887C30.2101 24.5163 29.9878 24.1793 29.7058 23.896C29.4238 23.6127 29.0879 23.3888 28.7178 23.2377C28.3525 23.0822 27.9595 23.002 27.5625 23.002C27.1655 23.002 26.7725 23.0822 26.4072 23.2377C26.0381 23.3885 25.7029 23.6114 25.421 23.8932C25.1391 24.1751 24.9162 24.5104 24.7654 24.8794C24.6722 25.096 24.6058 25.3232 24.5678 25.5559L22.9108 27.9654L12.8929 42.5437L8.56048 48.8448H4V51.125H16.1613V48.8448H11.6008L14.7247 44.3755L25.8219 28.5278C26.3305 28.8888 26.9388 29.0827 27.5625 29.0827C28.1862 29.0827 28.7945 28.8888 29.3031 28.5278L40.4003 44.3755L43.5242 48.8448H38.9637V51.125H51.125V48.8448H46.5645L42.2321 42.5437Z" fill="#614E4A"/>
<path d="M13.8812 13.8811C13.8812 13.818 13.8949 13.7579 13.8994 13.6956C13.6187 13.941 13.4027 14.2517 13.2703 14.6002C13.1379 14.9488 13.0932 15.3246 13.1402 15.6944C13.1872 16.0643 13.3245 16.417 13.5398 16.7213C13.7552 17.0257 14.0421 17.2724 14.3753 17.4398C14.7084 17.6072 15.0776 17.6901 15.4504 17.6813C15.8231 17.6724 16.188 17.572 16.5128 17.3889C16.8376 17.2059 17.1125 16.9457 17.3131 16.6315C17.5137 16.3172 17.634 15.9584 17.6633 15.5867C17.3355 15.8784 16.9303 16.0689 16.4965 16.1353C16.0628 16.2016 15.6191 16.1409 15.2191 15.9605C14.8191 15.7802 14.4799 15.4878 14.2425 15.1188C14.005 14.7497 13.8796 14.3199 13.8812 13.8811Z" fill="#FF9C00"/>
<path d="M9.32063 22.2419C9.32063 22.1788 9.33431 22.1188 9.33888 22.0565C9.05817 22.3019 8.8421 22.6125 8.70971 22.9611C8.57732 23.3096 8.53266 23.6854 8.57967 24.0553C8.62668 24.4252 8.76391 24.7778 8.97927 25.0822C9.19464 25.3865 9.48154 25.6333 9.81471 25.8007C10.1479 25.9681 10.5171 26.051 10.8898 26.0421C11.2626 26.0332 11.6274 25.9328 11.9523 25.7498C12.2771 25.5667 12.5519 25.3066 12.7525 24.9923C12.9532 24.678 13.0735 24.3192 13.1028 23.9475C12.775 24.2392 12.3697 24.4298 11.936 24.4961C11.5022 24.5625 11.0585 24.5018 10.6585 24.3214C10.2585 24.141 9.91933 23.8486 9.6819 23.4796C9.44448 23.1106 9.319 22.6807 9.32063 22.2419Z" fill="#FF9C00"/>
<path d="M26.8021 33.6432C26.8021 33.5801 26.8158 33.52 26.8203 33.4577C26.5396 33.7031 26.3236 34.0138 26.1912 34.3623C26.0588 34.7109 26.0141 35.0867 26.0611 35.4565C26.1081 35.8264 26.2454 36.1791 26.4607 36.4834C26.6761 36.7878 26.963 37.0345 27.2962 37.2019C27.6293 37.3693 27.9985 37.4522 28.3713 37.4433C28.744 37.4345 29.1089 37.3341 29.4337 37.151C29.7585 36.9679 30.0334 36.7078 30.234 36.3935C30.4346 36.0793 30.5549 35.7205 30.5842 35.3488C30.2564 35.6405 29.8512 35.831 29.4174 35.8974C28.9837 35.9637 28.54 35.903 28.14 35.7226C27.74 35.5422 27.4008 35.2499 27.1633 34.8809C26.9259 34.5118 26.8005 34.082 26.8021 33.6432Z" fill="#FF9C00"/>
<path d="M22.2415 38.2036C22.2415 38.1406 22.2552 38.0805 22.2598 38.0182C21.9791 38.2636 21.763 38.5743 21.6306 38.9228C21.4982 39.2714 21.4536 39.6471 21.5006 40.017C21.5476 40.3869 21.6848 40.7396 21.9002 41.0439C22.1155 41.3483 22.4024 41.595 22.7356 41.7624C23.0688 41.9298 23.438 42.0127 23.8107 42.0038C24.1835 41.995 24.5483 41.8946 24.8732 41.7115C25.198 41.5284 25.4728 41.2683 25.6734 40.954C25.8741 40.6398 25.9944 40.281 26.0237 39.9093C25.6959 40.201 25.2906 40.3915 24.8569 40.4578C24.4231 40.5242 23.9794 40.4635 23.5794 40.2831C23.1794 40.1027 22.8402 39.8104 22.6028 39.4413C22.3654 39.0723 22.2399 38.6424 22.2415 38.2036Z" fill="#FF9C00"/>
<path d="M26.8021 42.7641C26.8021 42.701 26.8158 42.641 26.8203 42.5787C26.5396 42.8241 26.3236 43.1347 26.1912 43.4833C26.0588 43.8319 26.0141 44.2076 26.0611 44.5775C26.1081 44.9474 26.2454 45.3 26.4607 45.6044C26.6761 45.9088 26.963 46.1555 27.2962 46.3229C27.6293 46.4903 27.9985 46.5732 28.3713 46.5643C28.744 46.5554 29.1089 46.455 29.4337 46.272C29.7585 46.0889 30.0334 45.8288 30.234 45.5145C30.4346 45.2002 30.5549 44.8415 30.5842 44.4698C30.2564 44.7615 29.8512 44.952 29.4174 45.0183C28.9837 45.0847 28.54 45.024 28.14 44.8436C27.74 44.6632 27.4008 44.3708 27.1633 44.0018C26.9259 43.6328 26.8005 43.2029 26.8021 42.7641Z" fill="#FF9C00"/>
<path d="M32.1234 42.7641C32.1234 42.701 32.137 42.641 32.1416 42.5787C31.8609 42.8241 31.6448 43.1347 31.5124 43.4833C31.3801 43.8319 31.3354 44.2076 31.3824 44.5775C31.4294 44.9474 31.5666 45.3 31.782 45.6044C31.9974 45.9088 32.2843 46.1555 32.6174 46.3229C32.9506 46.4903 33.3198 46.5732 33.6926 46.5643C34.0653 46.5554 34.4302 46.455 34.755 46.272C35.0798 46.0889 35.3546 45.8288 35.5553 45.5145C35.7559 45.2002 35.8762 44.8415 35.9055 44.4698C35.5777 44.7615 35.1725 44.952 34.7387 45.0183C34.305 45.0847 33.8613 45.024 33.4613 44.8436C33.0613 44.6632 32.7221 44.3708 32.4846 44.0018C32.2472 43.6328 32.1217 43.2029 32.1234 42.7641Z" fill="#FF9C00"/>
<path d="M39.724 34.4032C39.724 34.3401 39.7376 34.2801 39.7422 34.2178C39.4615 34.4632 39.2454 34.7738 39.113 35.1224C38.9806 35.471 38.936 35.8467 38.983 36.2166C39.03 36.5865 39.1672 36.9391 39.3826 37.2435C39.598 37.5479 39.8849 37.7946 40.218 37.962C40.5512 38.1294 40.9204 38.2123 41.2932 38.2034C41.6659 38.1945 42.0308 38.0941 42.3556 37.9111C42.6804 37.728 42.9552 37.4679 43.1559 37.1536C43.3565 36.8393 43.4768 36.4806 43.5061 36.1089C43.1783 36.4006 42.7731 36.5911 42.3393 36.6574C41.9055 36.7238 41.4619 36.6631 41.0619 36.4827C40.6619 36.3023 40.3226 36.0099 40.0852 35.6409C39.8478 35.2719 39.7223 34.842 39.724 34.4032Z" fill="#FF9C00"/>
<path d="M13.8812 26.0423C13.8812 25.9792 13.8949 25.9192 13.8994 25.8569C13.6187 26.1023 13.4027 26.4129 13.2703 26.7615C13.1379 27.1101 13.0932 27.4858 13.1402 27.8557C13.1872 28.2256 13.3245 28.5782 13.5398 28.8826C13.7552 29.187 14.0421 29.4337 14.3753 29.6011C14.7084 29.7685 15.0776 29.8514 15.4504 29.8425C15.8231 29.8336 16.188 29.7332 16.5128 29.5502C16.8376 29.3671 17.1125 29.107 17.3131 28.7927C17.5137 28.4784 17.634 28.1197 17.6633 27.748C17.3355 28.0397 16.9303 28.2302 16.4965 28.2965C16.0628 28.3629 15.6191 28.3022 15.2191 28.1218C14.8191 27.9414 14.4799 27.649 14.2425 27.28C14.005 26.911 13.8796 26.4811 13.8812 26.0423Z" fill="#A80132"/>
<path d="M9.32063 28.3226C9.32063 28.2595 9.33431 28.1995 9.33888 28.1371C9.05817 28.3826 8.8421 28.6932 8.70971 29.0418C8.57732 29.3903 8.53266 29.7661 8.57967 30.136C8.62668 30.5059 8.76391 30.8585 8.97927 31.1629C9.19464 31.4672 9.48154 31.714 9.81471 31.8814C10.1479 32.0488 10.5171 32.1317 10.8898 32.1228C11.2626 32.1139 11.6274 32.0135 11.9523 31.8304C12.2771 31.6474 12.5519 31.3873 12.7525 31.073C12.9532 30.7587 13.0735 30.3999 13.1028 30.0282C12.775 30.3199 12.3697 30.5105 11.936 30.5768C11.5022 30.6431 11.0585 30.5825 10.6585 30.4021C10.2585 30.2217 9.91933 29.9293 9.6819 29.5603C9.44448 29.1913 9.319 28.7614 9.32063 28.3226Z" fill="#A80132"/>
<path d="M12.3607 35.1633C12.3607 35.1002 12.3744 35.0402 12.3789 34.9778C12.0982 35.2233 11.8821 35.5339 11.7498 35.8825C11.6174 36.231 11.5727 36.6068 11.6197 36.9767C11.6667 37.3466 11.8039 37.6992 12.0193 38.0036C12.2347 38.3079 12.5216 38.5547 12.8548 38.7221C13.1879 38.8895 13.5571 38.9724 13.9299 38.9635C14.3026 38.9546 14.6675 38.8542 14.9923 38.6711C15.3171 38.4881 15.5919 38.228 15.7926 37.9137C15.9932 37.5994 16.1135 37.2406 16.1428 36.8689C15.815 37.1606 15.4098 37.3512 14.976 37.4175C14.5423 37.4838 14.0986 37.4232 13.6986 37.2428C13.2986 37.0624 12.9594 36.77 12.7219 36.401C12.4845 36.032 12.359 35.6021 12.3607 35.1633Z" fill="#A80132"/>
<path d="M19.2015 42.0041C19.2015 41.941 19.2152 41.8809 19.2197 41.8186C18.939 42.064 18.723 42.3747 18.5906 42.7232C18.4582 43.0718 18.4135 43.4476 18.4605 43.8174C18.5075 44.1873 18.6448 44.54 18.8601 44.8443C19.0755 45.1487 19.3624 45.3954 19.6956 45.5628C20.0287 45.7302 20.398 45.8131 20.7707 45.8042C21.1435 45.7954 21.5083 45.695 21.8331 45.5119C22.1579 45.3288 22.4328 45.0687 22.6334 44.7544C22.834 44.4402 22.9543 44.0814 22.9837 43.7097C22.6559 44.0014 22.2506 44.1919 21.8168 44.2583C21.3831 44.3246 20.9394 44.2639 20.5394 44.0835C20.1394 43.9031 19.8002 43.6108 19.5628 43.2418C19.3253 42.8727 19.1999 42.4429 19.2015 42.0041Z" fill="#A80132"/>
<path d="M28.3226 38.2036C28.3226 38.1406 28.3363 38.0805 28.3408 38.0182C28.0601 38.2636 27.8441 38.5743 27.7117 38.9228C27.5793 39.2714 27.5346 39.6471 27.5816 40.017C27.6286 40.3869 27.7659 40.7396 27.9812 41.0439C28.1966 41.3483 28.4835 41.595 28.8167 41.7624C29.1498 41.9298 29.519 42.0127 29.8918 42.0038C30.2645 41.995 30.6294 41.8946 30.9542 41.7115C31.279 41.5284 31.5539 41.2683 31.7545 40.954C31.9551 40.6398 32.0754 40.281 32.1047 39.9093C31.7769 40.201 31.3717 40.3915 30.9379 40.4578C30.5042 40.5242 30.0605 40.4635 29.6605 40.2831C29.2605 40.1027 28.9213 39.8104 28.6839 39.4413C28.4464 39.0723 28.321 38.6424 28.3226 38.2036Z" fill="#A80132"/>
<path d="M48.0832 34.5431L41.3564 41.2698L42.2321 42.5437L49.6048 35.1709V35.1633L48.0832 34.5332V34.5431Z" fill="#A80132"/>
<path d="M48.083 34.5332L49.6047 35.1633V16.9214L48.083 17.5515V34.5332Z" fill="#D1013E"/>
<path d="M36.6833 4L36.0547 5.52016H36.0615L48.083 17.5416V17.5515L49.6046 16.9214V16.9138L36.6909 4H36.6833Z" fill="#A80132"/>
<path d="M33.643 46.5645H28.3225H19.0593L15.6086 43.113L14.7246 44.3755L18.4338 48.0847H36.6909L40.4001 44.3755L39.5146 43.1107L36.0616 46.5645H33.643Z" fill="#7D0126"/>
<path d="M36.0548 5.52016L36.6833 4H18.4414L19.07 5.52016H36.0548Z" fill="#D1013E"/>
<path d="M7.03915 17.5416L19.0598 5.52016H19.0705L18.4419 4H18.4343L5.52051 16.9138V16.9214L7.03915 17.5492V17.5416Z" fill="#A80132"/>
<path d="M7.03915 17.5492L5.52051 16.9214V35.1633L7.03915 34.5347V17.5492Z" fill="#D1013E"/>
<path d="M7.03915 34.5347L5.52051 35.1633V35.1709L12.8933 42.5437L13.7674 41.2713L7.03915 34.5431V34.5347Z" fill="#A80132"/>
<path d="M45.8044 49.6048L29.8427 26.8024H25.2823L9.32056 49.6048H4V51.125H16.1613V48.8448H11.6008L14.7247 44.3755L25.8219 28.5278C26.3305 28.8888 26.9388 29.0826 27.5625 29.0826C28.1862 29.0826 28.7945 28.8888 29.3031 28.5278L40.4003 44.3755L43.5242 48.8448H38.9637V51.125H51.125V49.6048H45.8044Z" fill="#4B3C39"/>
<path d="M27.5628 29.0827C29.2419 29.0827 30.6031 27.7215 30.6031 26.0423C30.6031 24.3632 29.2419 23.002 27.5628 23.002C25.8837 23.002 24.5225 24.3632 24.5225 26.0423C24.5225 27.7215 25.8837 29.0827 27.5628 29.0827Z" fill="#A80132"/>
<path d="M27.5628 23.002C26.9615 23.002 26.3737 23.1803 25.8737 23.5144C25.3737 23.8485 24.984 24.3233 24.7539 24.8789C24.5238 25.4344 24.4636 26.0457 24.5809 26.6355C24.6982 27.2252 24.9878 27.767 25.413 28.1922C25.8381 28.6174 26.3799 28.9069 26.9696 29.0242C27.5594 29.1416 28.1707 29.0813 28.7263 28.8512C29.2818 28.6211 29.7566 28.2314 30.0907 27.7315C30.4248 27.2315 30.6031 26.6437 30.6031 26.0423C30.6031 25.236 30.2828 24.4627 29.7126 23.8925C29.1424 23.3223 28.3691 23.002 27.5628 23.002ZM27.5628 28.3226C27.1118 28.3226 26.6709 28.1888 26.296 27.9383C25.921 27.6877 25.6287 27.3316 25.4561 26.9149C25.2835 26.4983 25.2384 26.0398 25.3264 25.5975C25.4143 25.1552 25.6315 24.7489 25.9504 24.43C26.2693 24.1111 26.6756 23.8939 27.1179 23.8059C27.5603 23.7179 28.0187 23.7631 28.4354 23.9357C28.8521 24.1083 29.2082 24.4005 29.4587 24.7755C29.7093 25.1505 29.843 25.5913 29.843 26.0423C29.843 26.6471 29.6028 27.2271 29.1752 27.6547C28.7475 28.0823 28.1675 28.3226 27.5628 28.3226Z" fill="#D1013E"/>
</svg>
