<svg width="56" height="56" viewBox="0 0 56 56" fill="none" xmlns="http://www.w3.org/2000/svg">
<path d="M52.7082 37.023C52.7082 35.1348 52.3265 33.6003 51.8575 33.6003C51.3924 33.6003 51.0107 35.1348 51.0107 37.023C51.0107 38.9112 51.3924 40.4417 51.8575 40.4417C52.3265 40.4417 52.7082 38.9112 52.7082 37.023Z" fill="url(#paint0_linear_1501_24498)"/>
<path d="M48.6621 17.0237H50.6974V34.7849C50.6974 35.3176 50.2681 35.7469 49.7354 35.7469H49.6321C49.0994 35.7469 48.6701 35.3176 48.6701 34.7849V17.0237H48.6621Z" fill="url(#paint1_linear_1501_24498)"/>
<path d="M48.0294 37.0547C48.0294 34.2681 47.3854 32.0062 46.5904 32.0062C45.7954 32.0062 45.1514 34.2681 45.1514 37.0547C45.1514 39.8453 45.7954 42.1072 46.5904 42.1072C47.3854 42.1072 48.0294 39.8453 48.0294 37.0547Z" fill="url(#paint2_linear_1501_24498)"/>
<path d="M53.1694 16.5943C53.1694 18.4826 51.635 20.013 49.7507 20.013C47.8625 20.013 46.332 18.4826 46.332 16.5943C46.332 14.7061 47.8625 13.1757 49.7507 13.1757C51.635 13.1757 53.1694 14.7061 53.1694 16.5943Z" fill="url(#paint3_radial_1501_24498)"/>
<path d="M41.9004 32.0062H46.5911V42.1072H41.9004V32.0062Z" fill="url(#paint4_linear_1501_24498)"/>
<path d="M47.6367 33.6003H51.8584V40.4417H47.6367V33.6003Z" fill="url(#paint5_linear_1501_24498)"/>
<path d="M19.0938 6.71997H28.2248V10.7707H19.0938V6.71997Z" fill="url(#paint6_linear_1501_24498)"/>
<path d="M5.40723 18.105H42.5118V41.5746H5.40723V18.105Z" fill="url(#paint7_radial_1501_24498)"/>
<path d="M42.5118 18.1407H5.40723C8.12627 14.7061 11.7596 12.1103 15.8899 10.6554C25.4582 7.43543 36.0243 10.4089 42.5118 18.1407Z" fill="url(#paint8_linear_1501_24498)"/>
<path d="M37.3805 16.9522H10.2497C9.97537 16.825 9.77264 16.5825 9.70108 16.2884C9.62555 15.9942 9.68916 15.6841 9.87202 15.4456C17.9934 8.67583 29.7838 8.66788 37.9131 15.4218C38.1278 15.712 38.1676 16.0936 38.0245 16.4195C37.8933 16.6819 37.6627 16.8727 37.3805 16.9522Z" fill="#42241F"/>
<path d="M36.9867 16.5308H10.961C10.6867 16.5467 10.4323 16.3798 10.3369 16.1254C10.2415 15.867 10.325 15.5768 10.5436 15.4098C10.9491 15.1077 11.3903 14.7937 11.8991 14.4677C13.044 13.7363 14.2485 13.1161 15.5047 12.6073C16.574 12.1661 17.6751 11.8123 18.8001 11.5539C19.0227 11.4982 19.2493 11.4465 19.4719 11.4068H19.4838C20.4578 11.216 21.4436 11.0848 22.4334 11.0172C23.2563 10.9616 24.0832 10.9576 24.91 10.9934H24.9219C25.8998 11.0371 26.8738 11.1444 27.8358 11.3114C28.5076 11.4346 29.1078 11.5698 29.6286 11.7049C30.4435 11.9156 31.2425 12.17 32.0296 12.4642C33.3732 12.973 34.6652 13.617 35.8856 14.3803C36.4461 14.7181 36.939 15.064 37.3763 15.39C37.5909 15.5569 37.6744 15.8431 37.587 16.0975C37.4995 16.3559 37.261 16.5308 36.9867 16.5308Z" fill="url(#paint9_linear_1501_24498)"/>
<path d="M3.36035 44.9536C3.60681 45.852 3.8652 46.7544 4.10769 47.6687H43.828C44.146 46.7583 44.4481 45.852 44.7502 44.9536L42.5082 41.5627H5.43939C4.75167 42.6917 4.05204 43.8207 3.36035 44.9536Z" fill="url(#paint10_linear_1501_24498)"/>
<path d="M44.7502 44.9535C44.5793 45.8678 44.4004 46.794 44.2215 47.7202C44.0943 48.3841 43.5139 48.8691 42.8342 48.8691H5.28038C4.60062 48.8691 4.01626 48.3881 3.89303 47.7202L3.73402 46.9053C3.61079 46.2534 3.48756 45.6054 3.36035 44.9535H44.7502Z" fill="url(#paint11_linear_1501_24498)"/>
<path d="M24.9141 10.9934C24.5006 12.818 24.0753 14.6466 23.6619 16.4752C23.6619 16.4871 23.6579 16.499 23.6499 16.507C23.642 16.507 23.638 16.503 23.638 16.4951C23.2325 14.6704 22.831 12.8418 22.4375 11.0172C23.2643 10.9616 24.0912 10.9576 24.9141 10.9934Z" fill="url(#paint12_linear_1501_24498)"/>
<path d="M32.0338 12.4602C29.2432 13.8197 26.4486 15.1673 23.65 16.5069C23.6381 16.5189 23.6262 16.5308 23.6143 16.5308C23.6262 16.5189 23.6381 16.5069 23.6381 16.495C23.6381 16.4871 23.662 16.4871 23.662 16.4751C25.0493 14.7459 26.4406 13.0326 27.8399 11.3074C28.5117 11.4306 29.112 11.5658 29.6367 11.7009C30.4476 11.9116 31.2467 12.166 32.0338 12.4602Z" fill="url(#paint13_linear_1501_24498)"/>
<path d="M36.987 16.5308H23.6621C27.7287 15.8033 31.8033 15.0838 35.8899 14.3762C36.4504 14.7141 36.9433 15.06 37.3806 15.3859C37.5992 15.5529 37.6906 15.8391 37.5992 16.1015C37.5117 16.3598 37.2653 16.5348 36.987 16.5308Z" fill="url(#paint14_linear_1501_24498)"/>
<path d="M23.6142 16.5308C20.9151 15.2309 18.2119 13.923 15.5088 12.6073C16.5781 12.166 17.6793 11.8162 18.8082 11.5538C19.0308 11.4982 19.2534 11.4505 19.48 11.4067H19.4919C20.8674 13.1121 22.2348 14.8254 23.6142 16.5308Z" fill="url(#paint15_linear_1501_24498)"/>
<path d="M23.5823 16.5308H10.961C10.6867 16.5467 10.4323 16.3797 10.3369 16.1253C10.2415 15.8669 10.325 15.5767 10.5436 15.4098C10.9491 15.1077 11.3903 14.7936 11.8991 14.4677C15.7909 15.1514 19.6826 15.8391 23.5823 16.5308Z" fill="url(#paint16_linear_1501_24498)"/>
<path d="M42.5206 41.5587H5.41992L7.04578 39.5831V20.3311L5.41992 18.1249H42.5206L40.8629 20.2675V39.5195L42.5206 41.5587Z" fill="url(#paint17_linear_1501_24498)"/>
<path d="M17.9967 39.5989H7.03704C6.75083 36.5261 6.57592 33.1432 6.59182 29.5019C6.60772 26.2223 6.77468 23.1614 7.03704 20.351H17.9967C17.8258 23.4596 17.7304 26.7391 17.7343 30.1697C17.7343 33.4572 17.8337 36.6056 17.9967 39.5989Z" fill="url(#paint18_linear_1501_24498)"/>
<path d="M16.0609 28.2418C16.0211 28.4406 15.9138 28.6194 15.7627 28.7546C14.9876 29.4662 14.4628 30.4083 14.268 31.4418C14.0574 32.5947 14.3396 33.7793 15.0472 34.7134C15.1386 34.8287 15.2221 35.0474 15.1704 35.1507C15.079 35.3018 14.9279 35.3972 14.753 35.421C13.628 35.4449 12.5031 35.4528 11.3781 35.429C11.2071 35.421 11.0481 35.3415 10.9368 35.2103C10.8215 35.0792 10.7699 34.9082 10.7858 34.7333C10.7659 33.9741 10.7858 33.2148 10.8494 32.4555C10.905 32.221 10.8692 32.4197 11.5291 30.5514C11.7199 30.0227 11.7478 30.0227 11.9744 29.4185C12.1016 29.0885 12.197 28.8142 12.2645 28.6314C12.1731 28.6433 12.0777 28.6552 11.9783 28.6632C11.6762 28.687 11.3701 28.6791 11.068 28.6353C11.0163 28.858 10.9249 29.0726 10.8017 29.2634C10.754 29.3509 10.6864 29.4304 10.6029 29.49C10.4479 29.5814 10.3405 29.5099 9.92315 29.5059C9.70451 29.5059 9.64091 29.498 9.42624 29.5059C9.1122 29.5139 8.95319 29.3747 8.94922 29.0647C8.94922 28.3134 8.94922 27.562 8.94922 26.8147C8.94922 26.5325 9.10028 26.4092 9.36662 26.4092C11.4814 26.4092 13.5923 26.4092 15.7031 26.4092C15.8065 26.3933 15.9138 26.4291 15.9893 26.5046C16.0648 26.5802 16.1006 26.6875 16.0847 26.7948C16.0728 27.2719 16.1046 27.7608 16.0609 28.2418Z" fill="#F61426"/>
<path d="M12.7337 35.7707C12.2606 35.7707 11.8114 35.7707 11.3741 35.7588C11.1157 35.7508 10.8733 35.6356 10.7023 35.4448C10.5274 35.2579 10.44 35.0035 10.4559 34.7491C10.432 33.9739 10.4559 33.1988 10.5195 32.4276L10.5274 32.3799C10.5552 32.2725 10.591 32.1652 10.6347 32.0619C10.7063 31.871 10.8574 31.4695 11.2191 30.4479C11.3264 30.1538 11.3821 30.0265 11.4457 29.8636C11.5013 29.7324 11.5649 29.5853 11.6683 29.307L11.7756 29.0089C11.6166 29.0129 11.4616 29.0049 11.3026 28.993C11.2469 29.152 11.1674 29.3031 11.076 29.4422C11.0005 29.5734 10.8971 29.6847 10.7739 29.7642C10.6149 29.8556 10.4241 29.8874 10.2452 29.8477C10.1617 29.8397 10.0623 29.8318 9.92716 29.8278H9.73237C9.64094 29.8278 9.56939 29.8278 9.43423 29.8278C9.21559 29.8437 9.00491 29.7721 8.83795 29.625C8.69484 29.474 8.61534 29.2713 8.62726 29.0606C8.62726 28.5517 8.62726 28.0429 8.62726 27.5341V26.8066C8.61534 26.6118 8.68689 26.421 8.82205 26.2779C8.96913 26.1388 9.16789 26.0672 9.37063 26.0752H15.7071C15.8979 26.0593 16.0887 26.1308 16.2279 26.266C16.363 26.4051 16.4346 26.5959 16.4147 26.7867C16.4147 26.9299 16.4147 27.073 16.4147 27.2121C16.4147 27.5579 16.4266 27.9117 16.3948 28.2735C16.3511 28.5478 16.212 28.7982 16.0053 28.985C15.2738 29.6409 14.7809 30.5234 14.602 31.4894C14.3993 32.5508 14.6577 33.6519 15.3136 34.5106C15.4964 34.7292 15.5561 35.0274 15.4686 35.2977C15.3255 35.5561 15.0631 35.723 14.769 35.7508C14.0415 35.7628 13.3697 35.7707 12.7337 35.7707ZM11.1714 32.511C11.1118 33.2465 11.0919 33.9859 11.1118 34.7252C11.1118 34.8127 11.1436 35.0989 11.3861 35.1029C12.4077 35.1228 13.5048 35.1188 14.7491 35.091C14.7888 35.079 14.8246 35.0592 14.8524 35.0313C14.8405 34.9916 14.8206 34.9518 14.7928 34.9161C14.0335 33.9103 13.7235 32.6383 13.9461 31.398C14.1409 30.2929 14.6974 29.2832 15.5322 28.5279C15.6276 28.4444 15.6992 28.3331 15.7389 28.2099C15.7628 27.8919 15.7588 27.5619 15.7548 27.22C15.7548 27.073 15.7548 26.9259 15.7548 26.7788C15.7588 26.7629 15.7588 26.747 15.7548 26.7311H9.37063C9.3428 26.7271 9.31497 26.7311 9.28715 26.739C9.28715 26.739 9.28715 26.7629 9.28715 26.8026V27.5301C9.28715 28.0389 9.28715 28.5478 9.28715 29.0526C9.28317 29.0884 9.28715 29.1242 9.30305 29.1599C9.30305 29.1599 9.31895 29.1758 9.4064 29.1758H9.41833C9.56144 29.1758 9.64492 29.1758 9.7443 29.1758H9.92716C10.0941 29.1758 10.2134 29.1878 10.3048 29.1957C10.3485 29.2037 10.3923 29.2037 10.436 29.2037C10.4718 29.1639 10.4996 29.1242 10.5274 29.0765C10.6308 28.9175 10.7063 28.7426 10.75 28.5557L10.8216 28.2695L11.1157 28.3093C11.39 28.349 11.6723 28.357 11.9505 28.3331C12.042 28.3252 12.1294 28.3172 12.2129 28.3013L12.7535 28.2178L12.5746 28.7346C12.5071 28.9214 12.4077 29.1957 12.2845 29.5296C12.1771 29.8198 12.1095 29.9709 12.0539 30.106C11.9943 30.2452 11.9386 30.3843 11.8432 30.6586C11.4775 31.6882 11.3225 32.0937 11.2509 32.2845C11.2191 32.36 11.1913 32.4355 11.1714 32.511Z" fill="#392727"/>
<path d="M29.4774 39.591H18.5138C18.3349 36.5937 18.2315 33.4294 18.2275 30.1141C18.2275 26.6875 18.3349 23.4278 18.5138 20.343H29.4774C29.6245 23.4755 29.7079 26.755 29.7079 30.1697C29.704 33.4374 29.6205 36.5817 29.4774 39.591Z" fill="url(#paint19_linear_1501_24498)"/>
<path d="M27.4857 28.1741C27.4419 28.3729 27.3386 28.5518 27.1875 28.6909C26.4124 29.3985 25.8876 30.3406 25.6929 31.3742C25.4822 32.527 25.7644 33.7116 26.472 34.6458C26.5754 34.769 26.6191 34.928 26.5952 35.083C26.5038 35.2341 26.3488 35.3295 26.1778 35.3534C25.0528 35.3772 23.9279 35.3852 22.8029 35.3613C22.6319 35.3534 22.469 35.2738 22.3577 35.1427C22.2463 35.0115 22.1907 34.8405 22.2106 34.6696C22.1867 33.9064 22.2066 33.1471 22.2702 32.3878C22.3298 32.1533 22.2901 32.3521 22.9539 30.4797C23.1408 29.951 23.1726 29.951 23.3992 29.3468C23.5224 29.0169 23.6218 28.7426 23.6854 28.5597C23.5939 28.5716 23.4985 28.5836 23.3992 28.5915C23.097 28.6154 22.791 28.6074 22.4928 28.5637C22.4411 28.7863 22.3497 29.001 22.2225 29.1918C22.1748 29.2792 22.1112 29.3587 22.0277 29.4184C21.8687 29.5098 21.7653 29.4382 21.3479 29.4343C21.1293 29.4343 21.0617 29.4223 20.8471 29.4343C20.537 29.4382 20.374 29.3031 20.374 28.989C20.374 28.2417 20.374 27.4904 20.374 26.7391C20.374 26.4608 20.5251 26.3376 20.7914 26.3376C22.9023 26.3376 25.0131 26.3376 27.1239 26.3376C27.2313 26.3217 27.3386 26.3575 27.4141 26.433C27.4896 26.5085 27.5214 26.6158 27.5055 26.7192C27.5016 27.2081 27.5214 27.6971 27.4857 28.1741Z" fill="#F61426"/>
<path d="M24.1545 35.7071C23.6854 35.7071 23.2322 35.7071 22.795 35.6952C22.5405 35.6872 22.2981 35.5719 22.1232 35.3811C21.9522 35.1903 21.8648 34.9359 21.8807 34.6815C21.8568 33.8944 21.8846 33.1033 21.9721 32.3202L21.9522 32.3123C21.98 32.2049 22.0158 32.0976 22.0595 31.9943C22.1311 31.8035 22.2822 31.402 22.6439 30.3843C22.7512 30.0862 22.8069 29.955 22.8705 29.796C22.9261 29.6648 22.9897 29.5177 23.0931 29.2434C23.1329 29.1361 23.1686 29.0288 23.2044 28.9413C23.0454 28.9453 22.8864 28.9413 22.7274 28.9294C22.6678 29.0884 22.5922 29.2394 22.4968 29.3825C22.4253 29.5137 22.3219 29.625 22.1987 29.7085C22.0357 29.7999 21.8489 29.8278 21.67 29.792C21.5905 29.784 21.4871 29.7721 21.352 29.7721H21.1572C21.0657 29.7721 20.9942 29.7721 20.859 29.7721C20.6444 29.788 20.4297 29.7125 20.2628 29.5694C20.1196 29.4183 20.0401 29.2116 20.0521 29.0049C20.0521 28.504 20.0521 28.0031 20.0521 27.5023V26.751C20.0401 26.5562 20.1117 26.3654 20.2469 26.2223C20.3939 26.0831 20.5927 26.0116 20.7954 26.0195H27.1319C27.3227 26.0036 27.5135 26.0752 27.6527 26.2103C27.7878 26.3495 27.8594 26.5403 27.8395 26.7351C27.8395 26.8742 27.8395 27.0173 27.8395 27.1564C27.8395 27.5023 27.8475 27.86 27.8196 28.2178C27.7719 28.4921 27.6368 28.7465 27.4301 28.9294C26.6986 29.5893 26.2057 30.4678 26.0228 31.4338C25.8241 32.4991 26.0825 33.5963 26.7384 34.4589C26.9212 34.6736 26.9809 34.9717 26.8934 35.242C26.7503 35.5004 26.484 35.6713 26.1898 35.6952C25.4663 35.7031 24.7945 35.7071 24.1545 35.7071ZM22.5962 32.4474C22.5366 33.1868 22.5207 33.9262 22.5405 34.6616C22.5405 34.7491 22.5684 35.0353 22.8148 35.0393C23.8365 35.0591 24.9336 35.0552 26.1739 35.0273C26.2136 35.0154 26.2494 34.9955 26.2812 34.9677C26.2693 34.928 26.2454 34.8882 26.2216 34.8524C25.4583 33.8507 25.1523 32.5746 25.3749 31.3344C25.5697 30.2293 26.1262 29.2196 26.957 28.4643C27.0564 28.3808 27.1279 28.2695 27.1677 28.1463C27.1915 27.8163 27.1995 27.4864 27.1876 27.1564C27.1876 27.0093 27.1876 26.8623 27.1876 26.7152C27.1876 26.6993 27.1876 26.6834 27.1876 26.6635H20.8034C20.7756 26.6635 20.7477 26.6675 20.7199 26.6754C20.7199 26.6754 20.7199 26.6993 20.7199 26.739V27.4903C20.7199 27.9872 20.7199 28.4881 20.7199 28.989C20.7159 29.0248 20.7199 29.0566 20.7358 29.0884C20.7716 29.1043 20.8153 29.1083 20.8551 29.1043C21.0021 29.1043 21.0856 29.1043 21.185 29.1043H21.3679C21.4951 29.1043 21.6183 29.1122 21.7455 29.1281C21.7892 29.1321 21.833 29.1321 21.8767 29.1321C21.9045 29.1003 21.9284 29.0606 21.9482 29.0248C22.0556 28.8618 22.1311 28.6869 22.1709 28.5001L22.2424 28.2138L22.5366 28.2536C22.8148 28.2933 23.0931 28.3013 23.3753 28.2774C23.4668 28.2735 23.5503 28.2615 23.6337 28.2496L24.1744 28.1622L23.9955 28.6829C23.9319 28.8658 23.8325 29.144 23.7053 29.478C23.598 29.7642 23.5343 29.9152 23.4747 30.0544C23.4191 30.1895 23.3594 30.3286 23.264 30.6029C22.8983 31.6325 22.7473 32.038 22.6717 32.2328C22.6439 32.3004 22.6161 32.3759 22.5962 32.4474Z" fill="#392727"/>
<path d="M40.8542 39.5353H29.8945C30.0535 36.538 30.145 33.3936 30.1489 30.1141C30.1489 26.6835 30.0575 23.4039 29.8945 20.2874H40.8542C41.2159 23.5271 41.3988 26.7868 41.3948 30.0465C41.3869 33.2187 41.208 36.387 40.8542 39.5353Z" fill="url(#paint20_linear_1501_24498)"/>
<path d="M38.9183 28.1741C38.8746 28.3729 38.7712 28.5518 38.6202 28.6909C37.845 29.3985 37.3203 30.3406 37.1255 31.3742C36.9148 32.527 37.197 33.7116 37.9046 34.6458C38.008 34.769 38.0517 34.928 38.0278 35.083C37.9364 35.2341 37.7814 35.3335 37.6104 35.3534C36.4855 35.3772 35.3605 35.3852 34.2355 35.3613C34.0646 35.3534 33.9056 35.2738 33.7903 35.1427C33.679 35.0115 33.6273 34.8405 33.6432 34.6696C33.6193 33.9064 33.6392 33.1471 33.7028 32.3878C33.7624 32.1533 33.7267 32.3521 34.3866 30.4797C34.5734 29.951 34.6052 29.951 34.8318 29.3468C34.955 29.0169 35.0544 28.7426 35.118 28.5597C35.0305 28.5716 34.9351 28.5836 34.8358 28.5915C34.5297 28.6154 34.2275 28.6074 33.9254 28.5637C33.8737 28.7863 33.7823 29.001 33.6591 29.1918C33.6114 29.2792 33.5438 29.3587 33.4603 29.4184C33.3013 29.5098 33.198 29.4382 32.7806 29.4343C32.5619 29.4343 32.4944 29.4223 32.2797 29.4343C31.9696 29.4382 31.8066 29.3031 31.8066 28.989C31.8066 28.2417 31.8066 27.4904 31.8066 26.7391C31.8066 26.4608 31.9577 26.3376 32.224 26.3376C34.3349 26.3376 36.4457 26.3376 38.5565 26.3376C38.6639 26.3217 38.7712 26.3575 38.8467 26.433C38.9223 26.5085 38.958 26.6158 38.9382 26.7192C38.9342 27.2081 38.962 27.6971 38.9183 28.1741Z" fill="#F61426"/>
<path d="M35.5914 35.7071C35.1183 35.7071 34.6691 35.7071 34.2319 35.6952C33.9735 35.6872 33.731 35.5719 33.5601 35.3811C33.3852 35.1903 33.2977 34.9359 33.3136 34.6815C33.2937 33.9063 33.3136 33.1312 33.3772 32.36L33.3852 32.3123C33.413 32.2049 33.4488 32.0976 33.4925 31.9943C33.564 31.8035 33.7151 31.402 34.0768 30.3843C34.1842 30.0862 34.2398 29.955 34.3074 29.796C34.3631 29.6648 34.4227 29.5177 34.526 29.2434C34.5658 29.1361 34.6055 29.0288 34.6373 28.9413C34.4783 28.9453 34.3193 28.9413 34.1603 28.9294C34.1007 29.0884 34.0252 29.2394 33.9337 29.3825C33.8582 29.5137 33.7548 29.625 33.6316 29.7085C33.4726 29.7999 33.2818 29.8278 33.1029 29.792C33.0234 29.784 32.9201 29.7721 32.7849 29.7721H32.5901C32.4987 29.7721 32.4271 29.7721 32.2959 29.7721C32.0773 29.788 31.8626 29.7165 31.6957 29.5694C31.5526 29.4183 31.4771 29.2116 31.485 29.0049C31.485 28.4961 31.485 27.9872 31.485 27.4784V26.751C31.4771 26.5562 31.5446 26.3654 31.6798 26.2223C31.8269 26.0831 32.0256 26.0116 32.2323 26.0195H38.5649C38.7596 26.0036 38.9504 26.0752 39.0856 26.2103C39.2247 26.3495 39.2923 26.5403 39.2764 26.7351C39.2764 26.8742 39.2764 27.0173 39.2764 27.1564C39.2764 27.5023 39.2844 27.86 39.2526 28.2178C39.2088 28.4921 39.0697 28.7425 38.863 28.9294C38.1316 29.5893 37.6386 30.4678 37.4597 31.4338C37.257 32.4991 37.5154 33.5963 38.1713 34.4589C38.3542 34.6736 38.4138 34.9717 38.3263 35.242C38.1832 35.5004 37.9209 35.6713 37.6267 35.6952C36.8992 35.7031 36.2274 35.7071 35.5914 35.7071ZM34.0291 32.4474C33.9695 33.1828 33.9496 33.9222 33.9695 34.6616C33.9695 34.7491 33.9973 35.0353 34.2438 35.0393C35.2654 35.0591 36.3626 35.0552 37.6029 35.0273C37.6426 35.0154 37.6784 34.9955 37.7102 34.9677C37.6983 34.928 37.6784 34.8882 37.6506 34.8524C36.8873 33.8507 36.5812 32.5746 36.8038 31.3344C36.9986 30.2293 37.5551 29.2196 38.386 28.4643C38.4853 28.3808 38.5569 28.2695 38.5967 28.1463C38.6205 27.8163 38.6285 27.4824 38.6165 27.1525C38.6165 27.0054 38.6165 26.8623 38.6165 26.7152C38.6205 26.6993 38.6205 26.6834 38.6165 26.6635H32.2323C32.2045 26.6635 32.1767 26.6675 32.1489 26.6754C32.1489 26.6754 32.1489 26.6993 32.1489 26.739V27.4665C32.1489 27.9713 32.1489 28.4802 32.1489 28.989C32.1449 29.0248 32.1489 29.0606 32.1648 29.0924C32.2005 29.1083 32.2443 29.1122 32.284 29.1083C32.4311 29.1083 32.5146 29.1083 32.614 29.1083H32.7968C32.924 29.1083 33.0473 29.1162 33.1745 29.1321C33.2182 29.1361 33.2619 29.1361 33.3056 29.1361C33.3335 29.1003 33.3613 29.0645 33.3852 29.0248C33.4885 28.8618 33.564 28.6869 33.6078 28.5001L33.6793 28.2138L33.9695 28.2536C34.2478 28.2933 34.53 28.3013 34.8083 28.2774C34.8997 28.2735 34.9872 28.2615 35.0706 28.2496L35.6113 28.1622L35.4284 28.6829C35.3648 28.8658 35.2654 29.144 35.1382 29.478C35.0349 29.7642 34.9673 29.9152 34.9077 30.0544C34.852 30.1895 34.7924 30.3286 34.697 30.6029C34.3313 31.6325 34.1802 32.038 34.1086 32.2328C34.0768 32.3004 34.049 32.3719 34.0291 32.4474Z" fill="#392727"/>
<path d="M5.40759 41.5746H42.5122L44.7502 44.9535H3.36035L5.40759 41.5746Z" stroke="url(#paint21_linear_1501_24498)" stroke-width="0.78125" stroke-linecap="round" stroke-linejoin="round"/>
<path d="M17.9967 39.5989H7.03704C6.75083 36.5261 6.57592 33.1432 6.59182 29.5019C6.60772 26.2223 6.77468 23.1614 7.03704 20.351H17.9967C17.8258 23.4596 17.7304 26.7391 17.7343 30.1697C17.7343 33.4572 17.8337 36.6056 17.9967 39.5989Z" fill="url(#paint22_linear_1501_24498)"/>
<path d="M29.4774 39.591H18.5138C18.3349 36.5937 18.2315 33.4294 18.2275 30.1141C18.2275 26.6875 18.3349 23.4278 18.5138 20.343H29.4774C29.6245 23.4755 29.7079 26.755 29.7079 30.1697C29.704 33.4374 29.6205 36.5817 29.4774 39.591Z" fill="url(#paint23_linear_1501_24498)"/>
<path d="M40.8542 39.5353H29.8945C30.0535 36.538 30.145 33.3936 30.1489 30.1141C30.1489 26.6835 30.0575 23.4039 29.8945 20.2874H40.8542C41.2159 23.5271 41.3988 26.7868 41.3948 30.0465C41.3869 33.2187 41.208 36.387 40.8542 39.5353Z" fill="url(#paint24_linear_1501_24498)"/>
<defs>
<linearGradient id="paint0_linear_1501_24498" x1="51.8371" y1="32.7444" x2="51.8721" y2="39.3803" gradientUnits="userSpaceOnUse">
<stop offset="0.199" stop-color="#373737"/>
<stop offset="0.208" stop-color="#3A3A3A"/>
<stop offset="0.37" stop-color="#6A6A6A"/>
<stop offset="0.451" stop-color="#7C7C7C"/>
<stop offset="0.742" stop-color="#4E4E4E"/>
<stop offset="0.933" stop-color="#343434"/>
</linearGradient>
<linearGradient id="paint1_linear_1501_24498" x1="48.3926" y1="26.3861" x2="50.6844" y2="26.3861" gradientUnits="userSpaceOnUse">
<stop offset="0.142" stop-color="#5C5C5C"/>
<stop offset="0.508" stop-color="white"/>
<stop offset="1" stop-color="#343434"/>
</linearGradient>
<linearGradient id="paint2_linear_1501_24498" x1="46.663" y1="32.1348" x2="46.556" y2="39.3771" gradientUnits="userSpaceOnUse">
<stop offset="0.099" stop-color="#373737"/>
<stop offset="0.112" stop-color="#3A3A3A"/>
<stop offset="0.359" stop-color="#6A6A6A"/>
<stop offset="0.483" stop-color="#7C7C7C"/>
<stop offset="0.754" stop-color="#4E4E4E"/>
<stop offset="0.933" stop-color="#343434"/>
</linearGradient>
<radialGradient id="paint3_radial_1501_24498" cx="0" cy="0" r="1" gradientUnits="userSpaceOnUse" gradientTransform="translate(49.4457 15.9477) scale(3.53741)">
<stop stop-color="#FF656C"/>
<stop offset="0.077" stop-color="#FF5C63"/>
<stop offset="0.205" stop-color="#FF4449"/>
<stop offset="0.367" stop-color="#FF1E20"/>
<stop offset="0.478" stop-color="#FF0000"/>
<stop offset="0.55" stop-color="#F40000"/>
<stop offset="0.675" stop-color="#D80000"/>
<stop offset="0.837" stop-color="#AB0000"/>
<stop offset="1" stop-color="#760000"/>
</radialGradient>
<linearGradient id="paint4_linear_1501_24498" x1="44.2458" y1="32.0288" x2="44.2458" y2="42.2572" gradientUnits="userSpaceOnUse">
<stop stop-color="#A8A8A8"/>
<stop offset="0.009" stop-color="#9C9C9C"/>
<stop offset="0.035" stop-color="#808080"/>
<stop offset="0.06" stop-color="#6C6C6C"/>
<stop offset="0.086" stop-color="#606060"/>
<stop offset="0.112" stop-color="#5C5C5C"/>
<stop offset="0.342" stop-color="white"/>
<stop offset="0.698" stop-color="#343434"/>
<stop offset="0.83" stop-color="#7C7C7C"/>
<stop offset="0.837" stop-color="#767676"/>
<stop offset="0.901" stop-color="#464646"/>
<stop offset="0.933" stop-color="#343434"/>
</linearGradient>
<linearGradient id="paint5_linear_1501_24498" x1="49.8557" y1="33.5553" x2="49.6416" y2="40.5188" gradientUnits="userSpaceOnUse">
<stop stop-color="#A8A8A8"/>
<stop offset="0.009" stop-color="#9C9C9C"/>
<stop offset="0.035" stop-color="#808080"/>
<stop offset="0.06" stop-color="#6C6C6C"/>
<stop offset="0.086" stop-color="#606060"/>
<stop offset="0.112" stop-color="#5C5C5C"/>
<stop offset="0.342" stop-color="white"/>
<stop offset="0.667" stop-color="#343434"/>
<stop offset="0.813" stop-color="#7C7C7C"/>
<stop offset="0.821" stop-color="#767676"/>
<stop offset="0.896" stop-color="#464646"/>
<stop offset="0.933" stop-color="#343434"/>
</linearGradient>
<linearGradient id="paint6_linear_1501_24498" x1="23.6342" y1="5.55285" x2="23.6745" y2="10.7567" gradientUnits="userSpaceOnUse">
<stop stop-color="#89003F"/>
<stop offset="1" stop-color="#CE1B00"/>
</linearGradient>
<radialGradient id="paint7_radial_1501_24498" cx="0" cy="0" r="1" gradientUnits="userSpaceOnUse" gradientTransform="translate(22.277 30.6076) rotate(0.171887) scale(37.7827 16.1709)">
<stop stop-color="#343434"/>
<stop offset="0.547" stop-color="#5C5C5C"/>
<stop offset="1" stop-color="white"/>
</radialGradient>
<linearGradient id="paint8_linear_1501_24498" x1="15.5896" y1="0.591712" x2="28.8626" y2="28.4203" gradientUnits="userSpaceOnUse">
<stop offset="0.167" stop-color="#5C5C5C"/>
<stop offset="0.508" stop-color="white"/>
<stop offset="1" stop-color="#343434"/>
</linearGradient>
<linearGradient id="paint9_linear_1501_24498" x1="23.9189" y1="9.41363" x2="23.975" y2="16.5637" gradientUnits="userSpaceOnUse">
<stop stop-color="#89003F"/>
<stop offset="1" stop-color="#CE1B00"/>
</linearGradient>
<linearGradient id="paint10_linear_1501_24498" x1="23.904" y1="46.8622" x2="24.6884" y2="37.0875" gradientUnits="userSpaceOnUse">
<stop offset="0.315" stop-color="#A3A3A3"/>
<stop offset="0.557" stop-color="#343434"/>
</linearGradient>
<linearGradient id="paint11_linear_1501_24498" x1="24.0566" y1="52.1507" x2="24.0566" y2="45.3717" gradientUnits="userSpaceOnUse">
<stop offset="0.547" stop-color="#808080"/>
<stop offset="0.758" stop-color="#5C5C5C"/>
<stop offset="1" stop-color="#343434"/>
</linearGradient>
<linearGradient id="paint12_linear_1501_24498" x1="23.6762" y1="16.8626" x2="23.6762" y2="9.25038" gradientUnits="userSpaceOnUse">
<stop stop-color="#FFBF00"/>
<stop offset="1" stop-color="#CE1B00"/>
</linearGradient>
<linearGradient id="paint13_linear_1501_24498" x1="25.4943" y1="17.0386" x2="29.1896" y2="12.7517" gradientUnits="userSpaceOnUse">
<stop stop-color="#FFBF00"/>
<stop offset="1" stop-color="#CE1B00"/>
</linearGradient>
<linearGradient id="paint14_linear_1501_24498" x1="25.823" y1="16.7449" x2="34.6544" y2="15.6732" gradientUnits="userSpaceOnUse">
<stop stop-color="#FFBF00"/>
<stop offset="1" stop-color="#CE1B00"/>
</linearGradient>
<linearGradient id="paint15_linear_1501_24498" x1="22.3724" y1="17.3587" x2="17.864" y2="12.4072" gradientUnits="userSpaceOnUse">
<stop stop-color="#FFBF00"/>
<stop offset="1" stop-color="#CE1B00"/>
</linearGradient>
<linearGradient id="paint16_linear_1501_24498" x1="22.404" y1="16.4492" x2="10.4307" y2="15.4146" gradientUnits="userSpaceOnUse">
<stop stop-color="#FFBF00"/>
<stop offset="1" stop-color="#CE1B00"/>
</linearGradient>
<linearGradient id="paint17_linear_1501_24498" x1="23.9701" y1="17.8294" x2="23.9701" y2="43.1955" gradientUnits="userSpaceOnUse">
<stop stop-color="#5C5C5C"/>
<stop offset="0.009" stop-color="#575757"/>
<stop offset="0.065" stop-color="#3D3D3D"/>
<stop offset="0.127" stop-color="#292929"/>
<stop offset="0.197" stop-color="#1B1B1B"/>
<stop offset="0.282" stop-color="#131313"/>
<stop offset="0.426" stop-color="#101010"/>
<stop offset="0.562" stop-color="#141414"/>
<stop offset="0.704" stop-color="#212121"/>
<stop offset="0.849" stop-color="#363636"/>
<stop offset="0.996" stop-color="#535353"/>
<stop offset="1" stop-color="#545454"/>
</linearGradient>
<linearGradient id="paint18_linear_1501_24498" x1="12.2928" y1="18.1951" x2="12.2928" y2="42.4947" gradientUnits="userSpaceOnUse">
<stop offset="0.059" stop-color="#6C623F"/>
<stop offset="0.068" stop-color="#796E4A"/>
<stop offset="0.093" stop-color="#988B66"/>
<stop offset="0.122" stop-color="#B4A57E"/>
<stop offset="0.154" stop-color="#CAB991"/>
<stop offset="0.192" stop-color="#DBC9A0"/>
<stop offset="0.239" stop-color="#E6D4AA"/>
<stop offset="0.304" stop-color="#EDDAB0"/>
<stop offset="0.486" stop-color="#EFDCB2"/>
<stop offset="0.551" stop-color="#EBD8AE"/>
<stop offset="0.618" stop-color="#DECCA4"/>
<stop offset="0.686" stop-color="#CAB992"/>
<stop offset="0.755" stop-color="#AD9E79"/>
<stop offset="0.825" stop-color="#877B58"/>
<stop offset="0.894" stop-color="#5A5131"/>
<stop offset="0.94" stop-color="#373013"/>
</linearGradient>
<linearGradient id="paint19_linear_1501_24498" x1="23.9696" y1="17.0863" x2="23.9696" y2="43.1403" gradientUnits="userSpaceOnUse">
<stop offset="0.094" stop-color="#6C623F"/>
<stop offset="0.102" stop-color="#796E4A"/>
<stop offset="0.125" stop-color="#988B66"/>
<stop offset="0.151" stop-color="#B4A57E"/>
<stop offset="0.181" stop-color="#CAB991"/>
<stop offset="0.216" stop-color="#DBC9A0"/>
<stop offset="0.259" stop-color="#E6D4AA"/>
<stop offset="0.319" stop-color="#EDDAB0"/>
<stop offset="0.486" stop-color="#EFDCB2"/>
<stop offset="0.551" stop-color="#EBD8AE"/>
<stop offset="0.618" stop-color="#DECCA4"/>
<stop offset="0.686" stop-color="#CAB992"/>
<stop offset="0.755" stop-color="#AD9E79"/>
<stop offset="0.825" stop-color="#877B58"/>
<stop offset="0.894" stop-color="#5A5131"/>
<stop offset="0.94" stop-color="#373013"/>
</linearGradient>
<linearGradient id="paint20_linear_1501_24498" x1="35.6639" y1="19.623" x2="35.578" y2="43.0735" gradientUnits="userSpaceOnUse">
<stop stop-color="#6C623F"/>
<stop offset="0.01" stop-color="#796E4A"/>
<stop offset="0.039" stop-color="#988B66"/>
<stop offset="0.071" stop-color="#B4A57E"/>
<stop offset="0.108" stop-color="#CAB991"/>
<stop offset="0.151" stop-color="#DBC9A0"/>
<stop offset="0.204" stop-color="#E6D4AA"/>
<stop offset="0.279" stop-color="#EDDAB0"/>
<stop offset="0.486" stop-color="#EFDCB2"/>
<stop offset="0.549" stop-color="#EBD8AE"/>
<stop offset="0.614" stop-color="#DECCA4"/>
<stop offset="0.68" stop-color="#CAB992"/>
<stop offset="0.747" stop-color="#AD9E79"/>
<stop offset="0.815" stop-color="#877B58"/>
<stop offset="0.882" stop-color="#5A5131"/>
<stop offset="0.927" stop-color="#373013"/>
</linearGradient>
<linearGradient id="paint21_linear_1501_24498" x1="12.713" y1="33.4185" x2="35.3844" y2="55.2525" gradientUnits="userSpaceOnUse">
<stop stop-color="#EEEEEE"/>
<stop offset="0.134" stop-color="#838383"/>
<stop offset="0.291" stop-color="white"/>
<stop offset="0.737" stop-color="#5F5F5F"/>
<stop offset="1" stop-color="#DDDDDD"/>
</linearGradient>
<linearGradient id="paint22_linear_1501_24498" x1="12.3935" y1="24.7176" x2="12.3394" y2="29.9628" gradientUnits="userSpaceOnUse">
<stop stop-color="#D5C49B" stop-opacity="0"/>
<stop offset="0.142" stop-color="#DFD2B3" stop-opacity="0.0705882"/>
<stop offset="0.425" stop-color="#F9F7F1" stop-opacity="0.258824"/>
<stop offset="0.486" stop-color="white" stop-opacity="0.301961"/>
<stop offset="0.601" stop-color="#FEFDFB" stop-opacity="0.282353"/>
<stop offset="0.72" stop-color="#FBF7EE" stop-opacity="0.235294"/>
<stop offset="0.841" stop-color="#F5EDD8" stop-opacity="0.152941"/>
<stop offset="0.963" stop-color="#EEDFBB" stop-opacity="0.0392157"/>
<stop offset="1" stop-color="#EBDAB0" stop-opacity="0"/>
</linearGradient>
<linearGradient id="paint23_linear_1501_24498" x1="24.0258" y1="25.1628" x2="23.9728" y2="29.8197" gradientUnits="userSpaceOnUse">
<stop stop-color="#D5C49B" stop-opacity="0"/>
<stop offset="0.142" stop-color="#DFD2B3" stop-opacity="0.0705882"/>
<stop offset="0.425" stop-color="#F9F7F1" stop-opacity="0.258824"/>
<stop offset="0.486" stop-color="white" stop-opacity="0.301961"/>
<stop offset="0.601" stop-color="#FEFDFB" stop-opacity="0.282353"/>
<stop offset="0.72" stop-color="#FBF7EE" stop-opacity="0.235294"/>
<stop offset="0.841" stop-color="#F5EDD8" stop-opacity="0.152941"/>
<stop offset="0.963" stop-color="#EEDFBB" stop-opacity="0.0392157"/>
<stop offset="1" stop-color="#EBDAB0" stop-opacity="0"/>
</linearGradient>
<linearGradient id="paint24_linear_1501_24498" x1="35.6438" y1="25.3568" x2="35.6438" y2="29.9596" gradientUnits="userSpaceOnUse">
<stop stop-color="#D5C49B" stop-opacity="0"/>
<stop offset="0.142" stop-color="#DFD2B3" stop-opacity="0.0705882"/>
<stop offset="0.425" stop-color="#F9F7F1" stop-opacity="0.258824"/>
<stop offset="0.486" stop-color="white" stop-opacity="0.301961"/>
<stop offset="0.563" stop-color="#FFFEFD" stop-opacity="0.286275"/>
<stop offset="0.644" stop-color="#FDFCF8" stop-opacity="0.239216"/>
<stop offset="0.725" stop-color="#FBF7EF" stop-opacity="0.164706"/>
<stop offset="0.744" stop-color="#FAF6EC" stop-opacity="0.141176"/>
<stop offset="0.928" stop-color="#F0E3C2" stop-opacity="0.0431373"/>
<stop offset="1" stop-color="#EBDAB0" stop-opacity="0"/>
</linearGradient>
</defs>
</svg>
