<svg width="56" height="56" viewBox="0 0 56 56" fill="none" xmlns="http://www.w3.org/2000/svg">
<path d="M40.5943 47.6711C40.0366 49.5215 38.0848 50.5703 36.2333 50.0126L15.0093 43.6181C13.1589 43.0605 12.1101 41.1086 12.6678 39.2571L22.0909 7.97881C22.6486 6.12848 24.6004 5.07964 26.4519 5.63731L47.6759 12.0318C49.5263 12.5895 50.5751 14.5413 50.0174 16.3928L40.5943 47.6711Z" fill="url(#paint0_linear_1518_38489)"/>
<path d="M44.3577 19.1636L42.4373 18.5943L41.7933 19.5393L40.2977 19.0948L44.0858 14.1353L45.403 14.5261L45.8895 20.755L44.3868 20.3093L44.3577 19.1636ZM43.0837 17.6516L44.3308 18.0203L44.2807 15.897L43.0837 17.6516ZM37.8675 22.8585C37.3028 22.6718 36.7288 22.5925 36.1665 22.5925V33.8275C38.4847 32.956 40.5695 31.7672 41.2998 29.5621C42.2168 26.7901 40.6792 23.7906 37.8675 22.8585Z" fill="#E52030"/>
<path opacity="0.05" d="M36.7498 8.74069L35.5831 8.38953V40.8334C35.5831 42.441 34.2753 43.75 32.6665 43.75H15.4453L19.3175 44.9167L21.2541 45.5H32.6665C35.2401 45.5 37.3331 43.407 37.3331 40.8334V8.91686L36.7498 8.74069Z" fill="black"/>
<path opacity="0.07" d="M35.5831 40.8334C35.5831 42.441 34.2753 43.75 32.6665 43.75H15.4453L19.3175 44.9167H32.6665C34.9181 44.9167 36.7498 43.085 36.7498 40.8334V8.74069L35.5831 8.38953V40.8334Z" fill="black"/>
<path d="M36.1667 40.8334C36.1667 42.7665 34.5998 44.3334 32.6667 44.3334H10.5C8.56683 44.3334 7 42.7665 7 40.8334V8.16669C7 6.23352 8.56683 4.66669 10.5 4.66669H32.6667C34.5998 4.66669 36.1667 6.23352 36.1667 8.16669V40.8334Z" fill="url(#paint1_linear_1518_38489)"/>
<path d="M31.5945 7H30.2213L28 12.8333H29.561L29.9098 11.7437H31.913L32.2653 12.8333H33.8333L31.5945 7ZM30.261 10.6575L30.9097 8.63567L31.5618 10.6575H30.261Z" fill="#4A4E52"/>
<path d="M13.5988 36.1667L13.2465 37.2564H11.2433L10.8945 36.1667H9.3335L11.5548 42H12.928L15.1668 36.1667H13.5988ZM12.2432 40.3655L11.5945 38.3437H12.8953L12.2432 40.3655Z" fill="#4A4E52"/>
<path d="M28.0861 22.337L22.45 16.7335C21.9868 16.2237 21.1853 16.2225 20.7221 16.7335L15.0813 22.3359C14.2401 23.2552 13.7968 24.5467 14.0908 25.949C14.4233 27.5345 15.7428 28.8167 17.3376 29.1002C18.7446 29.351 20.0315 28.8692 20.924 27.986C20.4841 31.4872 18.0831 31.5 18.0831 31.5C17.7611 31.5 17.4998 31.7613 17.4998 32.0833C17.4998 32.4053 17.7611 32.6667 18.0831 32.6667H25.0831C25.4051 32.6667 25.6665 32.4053 25.6665 32.0833C25.6665 31.7613 25.4051 31.5 25.0831 31.5C25.0831 31.5 22.6821 31.4872 22.2423 27.986C23.136 28.8692 24.4216 29.3499 25.8286 29.1002C27.4235 28.8167 28.743 27.5345 29.0755 25.949C29.3695 24.5467 28.9273 23.2564 28.0861 22.337Z" fill="#4A4E52"/>
<defs>
<linearGradient id="paint0_linear_1518_38489" x1="11.4906" y1="43.2985" x2="59.6261" y2="5.7808" gradientUnits="userSpaceOnUse">
<stop stop-color="#C8CDD1"/>
<stop offset="0.304" stop-color="#CBD0D4"/>
<stop offset="0.569" stop-color="#D6DADD"/>
<stop offset="0.819" stop-color="#E8EAEC"/>
<stop offset="1" stop-color="#FAFAFB"/>
</linearGradient>
<linearGradient id="paint1_linear_1518_38489" x1="14.5798" y1="-8.44665" x2="25.3015" y2="41.9919" gradientUnits="userSpaceOnUse">
<stop stop-color="#FAFAFB"/>
<stop offset="1" stop-color="#C8CDD1"/>
</linearGradient>
</defs>
</svg>
