<svg width="56" height="56" viewBox="0 0 56 56" fill="none" xmlns="http://www.w3.org/2000/svg">
<path d="M51.3337 28C51.3337 40.8334 40.8337 51.3334 28.0003 51.3334C15.167 51.3334 4.66699 40.8334 4.66699 28C4.66699 15.1667 15.167 4.66669 28.0003 4.66669C40.8337 4.66669 51.3337 15.1667 51.3337 28Z" fill="url(#paint0_radial_1501_24402)"/>
<path d="M28.0003 28L48.5337 17.0334C49.467 18.7834 50.167 20.65 50.6337 22.5167L28.0003 28ZM50.517 33.8334C50.9837 31.9667 51.3337 29.9834 51.3337 28H28.0003L50.517 33.8334ZM44.567 44.3334C45.967 42.9334 47.1337 41.4167 48.1837 39.6667L28.0003 28L44.567 44.3334ZM33.6003 50.6334C35.467 50.1667 37.3337 49.4667 39.0837 48.5334L28.0003 28L33.6003 50.6334ZM22.167 50.5167C24.0337 50.9834 26.017 51.3334 28.0003 51.3334V28L22.167 50.5167ZM11.667 44.5667C13.067 45.9667 14.5837 47.1334 16.3337 48.1834L28.0003 28L11.667 44.5667ZM5.36699 33.7167C5.83366 35.5834 6.53366 37.45 7.46699 39.2L28.0003 28L5.36699 33.7167ZM5.48366 22.1667C4.90033 24.0334 4.66699 26.0167 4.66699 28H28.0003L5.48366 22.1667ZM11.2003 11.9C9.91699 13.3 8.63366 14.8167 7.70033 16.6834L28.0003 28L11.2003 11.9ZM33.8337 5.48335C31.967 4.90002 29.9837 4.66669 28.0003 4.66669V28L33.8337 5.48335ZM21.7003 5.60002C19.8337 6.06669 18.0837 6.76669 16.3337 7.81669L28.0003 28L21.7003 5.60002ZM44.4503 11.4334C43.0503 10.0334 41.5337 8.86669 39.7837 7.81669L28.0003 28L44.4503 11.4334Z" fill="url(#paint1_radial_1501_24402)"/>
<path d="M44.3337 28C44.3337 36.9834 36.9837 44.3334 28.0003 44.3334C19.017 44.3334 11.667 36.9834 11.667 28C11.667 19.0167 19.017 11.6667 28.0003 11.6667C36.9837 11.6667 44.3337 19.0167 44.3337 28Z" fill="url(#paint2_radial_1501_24402)"/>
<path d="M44.1004 30.9167L32.6671 28L44.1004 24.9667C43.9837 24.15 43.7504 23.45 43.5171 22.75L31.9671 25.7834L40.4837 17.2667C40.0171 16.6834 39.4337 16.1 38.8504 15.6334L30.3337 24.15L33.3671 12.6C32.6671 12.3667 31.8504 12.1334 31.1504 12.0167L28.0004 23.3334L24.9671 11.9C24.1504 12.0167 23.4504 12.25 22.7504 12.4834L25.7837 24.0334L17.2671 15.5167C16.6837 15.9834 16.1004 16.5667 15.6337 17.15L24.1504 25.6667L12.4837 22.6334C12.2504 23.3334 12.0171 24.15 11.9004 24.85L23.3337 28L11.9004 31.0334C12.0171 31.85 12.2504 32.55 12.4837 33.25L24.0337 30.2167L15.5171 38.7334C15.9837 39.3167 16.5671 39.9 17.1504 40.3667L25.6671 31.85L22.6337 43.4C23.3337 43.6334 24.1504 43.8667 24.8504 43.9834L28.0004 32.6667L31.0337 44.1C31.8504 43.9834 32.5504 43.75 33.2504 43.5167L30.2171 31.9667L38.7337 40.4834C39.3171 40.0167 39.9004 39.4334 40.3671 38.85L31.8504 30.3334L43.4004 33.3667C43.7504 32.4334 43.8671 31.7334 44.1004 30.9167Z" fill="#81C77F"/>
<path d="M39.6663 28C39.6663 34.4166 34.4163 39.6666 27.9997 39.6666C21.583 39.6666 16.333 34.4166 16.333 28C16.333 21.5833 21.583 16.3333 27.9997 16.3333C34.4163 16.3333 39.6663 21.5833 39.6663 28Z" fill="#5D4037"/>
<path d="M33.0163 34.65L27.9996 29.6333L22.9829 34.65L21.3496 33.0166L26.3663 28L21.3496 22.9833L22.9829 21.35L27.9996 26.3666L33.0163 21.35L34.6496 22.9833L29.6329 28L34.6496 33.0166L33.0163 34.65Z" fill="url(#paint3_radial_1501_24402)"/>
<path d="M27.9997 9.33331C17.733 9.33331 9.33301 17.7333 9.33301 28C9.33301 38.2666 17.733 46.6666 27.9997 46.6666C38.2663 46.6666 46.6663 38.2666 46.6663 28C46.6663 17.7333 38.2663 9.33331 27.9997 9.33331ZM27.9997 44.3333C19.0163 44.3333 11.6663 36.9833 11.6663 28C11.6663 19.0166 19.0163 11.6666 27.9997 11.6666C36.983 11.6666 44.333 19.0166 44.333 28C44.333 36.9833 36.983 44.3333 27.9997 44.3333Z" fill="url(#paint4_linear_1501_24402)"/>
<path d="M28.0003 30.3334C29.289 30.3334 30.3337 29.2887 30.3337 28C30.3337 26.7114 29.289 25.6667 28.0003 25.6667C26.7117 25.6667 25.667 26.7114 25.667 28C25.667 29.2887 26.7117 30.3334 28.0003 30.3334Z" fill="url(#paint5_linear_1501_24402)"/>
<path d="M22.75 24.5C23.7165 24.5 24.5 23.7165 24.5 22.75C24.5 21.7835 23.7165 21 22.75 21C21.7835 21 21 21.7835 21 22.75C21 23.7165 21.7835 24.5 22.75 24.5Z" fill="url(#paint6_linear_1501_24402)"/>
<path d="M33.25 24.5C34.2165 24.5 35 23.7165 35 22.75C35 21.7835 34.2165 21 33.25 21C32.2835 21 31.5 21.7835 31.5 22.75C31.5 23.7165 32.2835 24.5 33.25 24.5Z" fill="url(#paint7_linear_1501_24402)"/>
<path d="M33.25 35C34.2165 35 35 34.2165 35 33.25C35 32.2835 34.2165 31.5 33.25 31.5C32.2835 31.5 31.5 32.2835 31.5 33.25C31.5 34.2165 32.2835 35 33.25 35Z" fill="url(#paint8_linear_1501_24402)"/>
<path d="M22.75 35C23.7165 35 24.5 34.2165 24.5 33.25C24.5 32.2835 23.7165 31.5 22.75 31.5C21.7835 31.5 21 32.2835 21 33.25C21 34.2165 21.7835 35 22.75 35Z" fill="url(#paint9_linear_1501_24402)"/>
<defs>
<radialGradient id="paint0_radial_1501_24402" cx="0" cy="0" r="1" gradientUnits="userSpaceOnUse" gradientTransform="translate(28.0003 28) scale(23.3333)">
<stop stop-color="#FF5C5C"/>
<stop offset="0.448" stop-color="#FE5A5A"/>
<stop offset="0.634" stop-color="#F85355"/>
<stop offset="0.771" stop-color="#F0474B"/>
<stop offset="0.884" stop-color="#E3353E"/>
<stop offset="0.981" stop-color="#D31E2C"/>
<stop offset="1" stop-color="#CF1928"/>
</radialGradient>
<radialGradient id="paint1_radial_1501_24402" cx="0" cy="0" r="1" gradientUnits="userSpaceOnUse" gradientTransform="translate(28.0003 28) scale(23.3333)">
<stop stop-color="#636363"/>
<stop offset="0.535" stop-color="#616161"/>
<stop offset="0.756" stop-color="#5A5A5A"/>
<stop offset="0.919" stop-color="#4E4E4E"/>
<stop offset="1" stop-color="#444444"/>
</radialGradient>
<radialGradient id="paint2_radial_1501_24402" cx="0" cy="0" r="1" gradientUnits="userSpaceOnUse" gradientTransform="translate(28.0003 28) scale(16.3333)">
<stop stop-color="#4CAF50"/>
<stop offset="0.533" stop-color="#38A14C"/>
<stop offset="1" stop-color="#088242"/>
</radialGradient>
<radialGradient id="paint3_radial_1501_24402" cx="0" cy="0" r="1" gradientUnits="userSpaceOnUse" gradientTransform="translate(27.9996 28) scale(12.2908)">
<stop stop-color="#D68A04"/>
<stop offset="0.193" stop-color="#DA9106"/>
<stop offset="0.479" stop-color="#E4A50C"/>
<stop offset="0.821" stop-color="#F5C616"/>
<stop offset="1" stop-color="#FFDA1C"/>
</radialGradient>
<linearGradient id="paint4_linear_1501_24402" x1="15.6225" y1="15.7406" x2="40.3185" y2="40.2021" gradientUnits="userSpaceOnUse">
<stop stop-color="#FEB705"/>
<stop offset="1" stop-color="#FFDA1C"/>
</linearGradient>
<linearGradient id="paint5_linear_1501_24402" x1="26.3647" y1="26.3842" x2="29.4517" y2="29.4327" gradientUnits="userSpaceOnUse">
<stop stop-color="#FFDA1C"/>
<stop offset="1" stop-color="#FEB705"/>
</linearGradient>
<linearGradient id="paint6_linear_1501_24402" x1="21.5857" y1="21.5343" x2="23.807" y2="23.8537" gradientUnits="userSpaceOnUse">
<stop stop-color="#FFDA1C"/>
<stop offset="1" stop-color="#FEB705"/>
</linearGradient>
<linearGradient id="paint7_linear_1501_24402" x1="32.0857" y1="21.5343" x2="34.307" y2="23.8537" gradientUnits="userSpaceOnUse">
<stop stop-color="#FFDA1C"/>
<stop offset="1" stop-color="#FEB705"/>
</linearGradient>
<linearGradient id="paint8_linear_1501_24402" x1="32.0857" y1="32.0343" x2="34.307" y2="34.3537" gradientUnits="userSpaceOnUse">
<stop stop-color="#FFDA1C"/>
<stop offset="1" stop-color="#FEB705"/>
</linearGradient>
<linearGradient id="paint9_linear_1501_24402" x1="21.5857" y1="32.0343" x2="23.807" y2="34.3537" gradientUnits="userSpaceOnUse">
<stop stop-color="#FFDA1C"/>
<stop offset="1" stop-color="#FEB705"/>
</linearGradient>
</defs>
</svg>
