<svg width="48" height="48" viewBox="0 0 48 48" fill="none" xmlns="http://www.w3.org/2000/svg">
<path d="M47.3337 24C47.3337 24.3737 47.32 24.7565 47.2972 25.1302V25.2031C46.682 37.5352 36.4827 47.3333 24.0003 47.3333C11.5179 47.3333 1.31869 37.5352 0.703451 25.2031V25.1302C0.680664 24.7565 0.666992 24.3737 0.666992 24C0.666992 23.6263 0.680664 23.2435 0.703451 22.8698C0.726237 23.2435 0.749023 23.6035 0.785481 23.9772C1.97494 12.1921 12.042 3 24.0003 3C35.9587 3 46.0257 12.1921 47.2152 23.9772C47.2516 23.6035 47.2744 23.2435 47.2972 22.8698C47.32 23.2435 47.3337 23.6263 47.3337 24Z" fill="#B71C1C"/>
<path d="M47.2971 22.7968C47.3108 22.8196 47.2971 22.847 47.2971 22.8698C47.2743 23.2434 47.2515 23.6035 47.2151 23.9772C46.0256 12.192 35.9585 2.99996 24.0002 2.99996C12.0419 2.99996 1.97483 12.192 0.785373 23.9772C0.748915 23.6035 0.726128 23.2434 0.703342 22.8698C0.703342 22.847 0.68967 22.8196 0.703342 22.7968C1.31858 10.4648 11.5178 0.666626 24.0002 0.666626C36.4826 0.666626 46.6819 10.4648 47.2971 22.7968Z" fill="#C91818"/>
<path d="M47.2148 23.9772V24.0228C47.1693 24.4193 47.1237 24.8066 47.0553 25.2031C45.3737 36.4141 35.6895 45 24 45C12.4154 45 2.79948 36.5645 0.994792 25.4948C0.899089 25.0026 0.839845 24.515 0.785156 24.0228V23.9772C1.97461 12.1921 12.0417 3 24 3C35.9583 3 46.0254 12.1921 47.2148 23.9772Z" fill="#C91818"/>
<path d="M47.2969 25.1302V25.2031H47.0553C39.3672 25.1895 31.6882 25.1803 24 25.1667C9.53516 26.2148 2.46224 26.2422 0.994792 25.4948C0.817057 25.4128 0.712239 25.3171 0.703125 25.2031V25.1302C0.725911 24.7565 0.748697 24.3965 0.785156 24.0228V23.9772C1.97461 12.1921 12.0417 3 24 3C35.9583 3 46.0254 12.1921 47.2148 23.9772V24.0228C47.2513 24.3965 47.2741 24.7565 47.2969 25.1302Z" fill="#C91818"/>
<path d="M34.5 24C34.5 29.7969 29.7969 34.5 24 34.5C18.2031 34.5 13.5 29.7969 13.5 24C13.5 18.2031 18.2031 13.5 24 13.5C29.7969 13.5 34.5 18.2031 34.5 24Z" fill="#FAFAFA"/>
<path d="M21.6032 27.8236H19.6025V21.4525L17.6338 22.0267V20.5137L21.4163 19.2057H21.5986V27.8236H21.6032ZM30.2256 27.8236H24.2464V26.5384L26.999 23.6673C27.6781 22.8971 28.0153 22.291 28.0153 21.8398C28.0153 21.4753 27.9378 21.1973 27.7738 21.0059C27.6097 20.8145 27.3818 20.7188 27.0765 20.7188C26.7712 20.7188 26.5251 20.8464 26.3382 21.1016C26.1514 21.3568 26.0557 21.6758 26.0557 22.0586H24.0641C24.0641 21.5345 24.1963 21.056 24.4606 20.6094C24.7249 20.1719 25.0895 19.8255 25.5544 19.5749C26.0238 19.3242 26.5433 19.2012 27.1221 19.2012C28.0472 19.2012 28.7581 19.4154 29.2594 19.8392C29.7607 20.263 30.0114 20.8691 30.0114 21.6667C30.0114 21.9993 29.9476 22.3229 29.82 22.6419C29.6969 22.9609 29.501 23.2936 29.2366 23.64C28.9723 23.9909 28.5439 24.4512 27.9561 25.0391L26.8486 26.306H30.2256V27.8236Z" fill="#212121"/>
<path d="M24.0006 39.1666C15.638 39.1666 8.83398 32.3625 8.83398 23.9999C8.83398 15.6373 15.638 8.83325 24.0006 8.83325C32.3633 8.83325 39.1673 15.6373 39.1673 23.9999C39.1673 32.3625 32.3633 39.1666 24.0006 39.1666ZM24.0006 11.1666C16.9232 11.1666 11.1673 16.9224 11.1673 23.9999C11.1673 31.0774 16.9232 36.8332 24.0006 36.8332C31.0781 36.8332 36.834 31.0774 36.834 23.9999C36.834 16.9224 31.0781 11.1666 24.0006 11.1666Z" fill="#FAFAFA"/>
</svg>
