<svg width="56" height="56" viewBox="0 0 56 56" fill="none" xmlns="http://www.w3.org/2000/svg">
<path d="M37.3509 51.3333C37.2155 51.3333 37.0767 51.3088 36.9426 51.2598C36.5307 51.1047 26.8521 47.3072 26.8521 32.6667V25.6667C26.8521 25.0227 27.3747 24.5 28.0187 24.5C28.6627 24.5 29.1854 25.0227 29.1854 25.6667V32.6667C29.1854 45.6225 37.4162 48.9417 37.7662 49.0758C38.3659 49.3068 38.6681 49.9788 38.4406 50.5797C38.2621 51.0463 37.8199 51.3333 37.3509 51.3333Z" fill="url(#paint0_linear_1520_24377)"/>
<path d="M18.3189 18.3003C15.1945 15.176 10.1289 15.176 7.00454 18.3003C4.37371 20.9312 3.96771 24.934 5.76554 27.9988L28.0185 28C28.0185 28 20.9497 20.9312 18.3189 18.3003Z" fill="#33C481"/>
<path d="M37.7171 37.6997C40.8414 40.824 45.9071 40.824 49.0314 37.6997C51.6622 35.0688 52.0682 31.066 50.2704 28.0012L28.0186 28C28.0186 28 35.0862 35.0688 37.7171 37.6997Z" fill="#33C481"/>
<path d="M37.7171 18.3003C40.8414 15.176 40.8414 10.1103 37.7171 6.98599C35.0862 4.35515 31.0834 3.94915 28.0186 5.74699V28C28.0186 28 35.0862 20.9312 37.7171 18.3003Z" fill="#33C481"/>
<path d="M18.3188 18.3003C15.1945 15.176 15.1945 10.1103 18.3188 6.98599C20.9497 4.35515 24.9525 3.94915 28.0173 5.74699L28.0185 28C28.0185 28 20.9497 20.9312 18.3188 18.3003Z" fill="#21A366"/>
<path d="M18.3189 37.6997C15.1945 40.824 10.1289 40.824 7.00454 37.6997C4.37371 35.0688 3.96771 31.066 5.76554 28.0012L28.0185 28C28.0185 28 20.9497 35.0688 18.3189 37.6997Z" fill="#21A366"/>
<path d="M37.7171 18.3003C40.8414 15.176 45.9071 15.176 49.0314 18.3003C51.6622 20.9312 52.0682 24.934 50.2704 27.9988L28.0186 28C28.0186 28 35.0862 20.9312 37.7171 18.3003Z" fill="#21A366"/>
<defs>
<linearGradient id="paint0_linear_1520_24377" x1="32.6842" y1="24.3425" x2="32.6842" y2="50.8492" gradientUnits="userSpaceOnUse">
<stop stop-color="#197A4C"/>
<stop offset="0.563" stop-color="#29A66C"/>
<stop offset="1" stop-color="#33C481"/>
</linearGradient>
</defs>
</svg>
