<svg width="56" height="56" viewBox="0 0 56 56" fill="none" xmlns="http://www.w3.org/2000/svg">
<path d="M45.4998 38.5H43.1665V36.1667H45.4998C46.1438 36.1667 46.6665 35.6428 46.6665 35V17.5H48.9998V35C48.9998 36.9297 47.4295 38.5 45.4998 38.5Z" fill="#90A4AE"/>
<path d="M39.6668 51.3334H8.16683C6.87766 51.3334 5.8335 50.2892 5.8335 49V22.75C5.8335 12.7634 13.9302 4.66669 23.9168 4.66669C33.9035 4.66669 42.0002 12.7634 42.0002 22.75V49C42.0002 50.2892 40.956 51.3334 39.6668 51.3334Z" fill="url(#paint0_linear_547_48774)"/>
<path d="M43.1667 42H42V32.6667H43.1667C43.8107 32.6667 44.3333 33.1894 44.3333 33.8334V40.8334C44.3333 41.4774 43.8107 42 43.1667 42Z" fill="#64717C"/>
<path d="M47.8335 21C49.7665 21 51.3335 19.433 51.3335 17.5C51.3335 15.567 49.7665 14 47.8335 14C45.9005 14 44.3335 15.567 44.3335 17.5C44.3335 19.433 45.9005 21 47.8335 21Z" fill="url(#paint1_linear_547_48774)"/>
<path d="M31.4998 42H16.3332C15.6892 42 15.1665 41.4774 15.1665 40.8334V37.3334C15.1665 36.6894 15.6892 36.1667 16.3332 36.1667H31.4998C32.1438 36.1667 32.6665 36.6894 32.6665 37.3334V40.8334C32.6665 41.4774 32.1438 42 31.4998 42Z" fill="url(#paint2_linear_547_48774)"/>
<path d="M33.8332 30.3334H30.3332C29.6892 30.3334 29.1665 29.8107 29.1665 29.1667V19.8334C29.1665 19.1894 29.6892 18.6667 30.3332 18.6667H33.8332C34.4772 18.6667 34.9998 19.1894 34.9998 19.8334V29.1667C34.9998 29.8107 34.4772 30.3334 33.8332 30.3334Z" fill="url(#paint3_linear_547_48774)"/>
<path d="M25.6667 30.3334H22.1667C21.5227 30.3334 21 29.8107 21 29.1667V19.8334C21 19.1894 21.5227 18.6667 22.1667 18.6667H25.6667C26.3107 18.6667 26.8333 19.1894 26.8333 19.8334V29.1667C26.8333 29.8107 26.3107 30.3334 25.6667 30.3334Z" fill="url(#paint4_linear_547_48774)"/>
<path d="M17.5002 30.3334H14.0002C13.3562 30.3334 12.8335 29.8107 12.8335 29.1667V19.8334C12.8335 19.1894 13.3562 18.6667 14.0002 18.6667H17.5002C18.1442 18.6667 18.6668 19.1894 18.6668 19.8334V29.1667C18.6668 29.8107 18.1442 30.3334 17.5002 30.3334Z" fill="url(#paint5_linear_547_48774)"/>
<path d="M31.4998 42H16.3332C15.6892 42 15.1665 41.4774 15.1665 40.8334V39.6667H32.6665V40.8334C32.6665 41.4774 32.1438 42 31.4998 42Z" fill="url(#paint6_linear_547_48774)"/>
<path d="M21.0002 9.33333C21.6445 9.33333 22.1668 8.811 22.1668 8.16667C22.1668 7.52233 21.6445 7 21.0002 7C20.3558 7 19.8335 7.52233 19.8335 8.16667C19.8335 8.811 20.3558 9.33333 21.0002 9.33333Z" fill="url(#paint7_linear_547_48774)"/>
<path d="M15.6452 11.3516C16.2895 11.3516 16.8118 10.8293 16.8118 10.185C16.8118 9.54064 16.2895 9.01831 15.6452 9.01831C15.0008 9.01831 14.4785 9.54064 14.4785 10.185C14.4785 10.8293 15.0008 11.3516 15.6452 11.3516Z" fill="url(#paint8_linear_547_48774)"/>
<path d="M11.6667 15.1666C12.311 15.1666 12.8333 14.6443 12.8333 14C12.8333 13.3556 12.311 12.8333 11.6667 12.8333C11.0223 12.8333 10.5 13.3556 10.5 14C10.5 14.6443 11.0223 15.1666 11.6667 15.1666Z" fill="url(#paint9_linear_547_48774)"/>
<path d="M9.33317 19.8333C9.9775 19.8333 10.4998 19.311 10.4998 18.6667C10.4998 18.0223 9.9775 17.5 9.33317 17.5C8.68884 17.5 8.1665 18.0223 8.1665 18.6667C8.1665 19.311 8.68884 19.8333 9.33317 19.8333Z" fill="url(#paint10_linear_547_48774)"/>
<path d="M9.33317 25.6666C9.9775 25.6666 10.4998 25.1443 10.4998 24.5C10.4998 23.8556 9.9775 23.3333 9.33317 23.3333C8.68884 23.3333 8.1665 23.8556 8.1665 24.5C8.1665 25.1443 8.68884 25.6666 9.33317 25.6666Z" fill="url(#paint11_linear_547_48774)"/>
<path d="M9.33317 31.5C9.9775 31.5 10.4998 30.9777 10.4998 30.3334C10.4998 29.689 9.9775 29.1667 9.33317 29.1667C8.68884 29.1667 8.1665 29.689 8.1665 30.3334C8.1665 30.9777 8.68884 31.5 9.33317 31.5Z" fill="url(#paint12_linear_547_48774)"/>
<path d="M9.33317 37.3333C9.9775 37.3333 10.4998 36.811 10.4998 36.1667C10.4998 35.5223 9.9775 35 9.33317 35C8.68884 35 8.1665 35.5223 8.1665 36.1667C8.1665 36.811 8.68884 37.3333 9.33317 37.3333Z" fill="url(#paint13_linear_547_48774)"/>
<path d="M9.33317 43.1666C9.9775 43.1666 10.4998 42.6443 10.4998 42C10.4998 41.3556 9.9775 40.8333 9.33317 40.8333C8.68884 40.8333 8.1665 41.3556 8.1665 42C8.1665 42.6443 8.68884 43.1666 9.33317 43.1666Z" fill="url(#paint14_linear_547_48774)"/>
<path d="M9.33317 49C9.9775 49 10.4998 48.4777 10.4998 47.8334C10.4998 47.189 9.9775 46.6667 9.33317 46.6667C8.68884 46.6667 8.1665 47.189 8.1665 47.8334C8.1665 48.4777 8.68884 49 9.33317 49Z" fill="url(#paint15_linear_547_48774)"/>
<path d="M15.1667 49C15.811 49 16.3333 48.4777 16.3333 47.8334C16.3333 47.189 15.811 46.6667 15.1667 46.6667C14.5223 46.6667 14 47.189 14 47.8334C14 48.4777 14.5223 49 15.1667 49Z" fill="url(#paint16_linear_547_48774)"/>
<path d="M21.0002 49C21.6445 49 22.1668 48.4777 22.1668 47.8334C22.1668 47.189 21.6445 46.6667 21.0002 46.6667C20.3558 46.6667 19.8335 47.189 19.8335 47.8334C19.8335 48.4777 20.3558 49 21.0002 49Z" fill="url(#paint17_linear_547_48774)"/>
<path d="M26.8332 49C27.4775 49 27.9998 48.4777 27.9998 47.8334C27.9998 47.189 27.4775 46.6667 26.8332 46.6667C26.1888 46.6667 25.6665 47.189 25.6665 47.8334C25.6665 48.4777 26.1888 49 26.8332 49Z" fill="url(#paint18_linear_547_48774)"/>
<path d="M32.6667 49C33.311 49 33.8333 48.4777 33.8333 47.8334C33.8333 47.189 33.311 46.6667 32.6667 46.6667C32.0223 46.6667 31.5 47.189 31.5 47.8334C31.5 48.4777 32.0223 49 32.6667 49Z" fill="url(#paint19_linear_547_48774)"/>
<path d="M26.8332 9.33333C27.4775 9.33333 27.9998 8.811 27.9998 8.16667C27.9998 7.52233 27.4775 7 26.8332 7C26.1888 7 25.6665 7.52233 25.6665 8.16667C25.6665 8.811 26.1888 9.33333 26.8332 9.33333Z" fill="url(#paint20_linear_547_48774)"/>
<path d="M32.1882 11.3516C32.8325 11.3516 33.3548 10.8293 33.3548 10.185C33.3548 9.54064 32.8325 9.01831 32.1882 9.01831C31.5438 9.01831 31.0215 9.54064 31.0215 10.185C31.0215 10.8293 31.5438 11.3516 32.1882 11.3516Z" fill="url(#paint21_linear_547_48774)"/>
<path d="M36.1667 15.1666C36.811 15.1666 37.3333 14.6443 37.3333 14C37.3333 13.3556 36.811 12.8333 36.1667 12.8333C35.5223 12.8333 35 13.3556 35 14C35 14.6443 35.5223 15.1666 36.1667 15.1666Z" fill="url(#paint22_linear_547_48774)"/>
<path d="M38.5002 19.8333C39.1445 19.8333 39.6668 19.311 39.6668 18.6667C39.6668 18.0223 39.1445 17.5 38.5002 17.5C37.8558 17.5 37.3335 18.0223 37.3335 18.6667C37.3335 19.311 37.8558 19.8333 38.5002 19.8333Z" fill="url(#paint23_linear_547_48774)"/>
<path d="M38.5002 25.6666C39.1445 25.6666 39.6668 25.1443 39.6668 24.5C39.6668 23.8556 39.1445 23.3333 38.5002 23.3333C37.8558 23.3333 37.3335 23.8556 37.3335 24.5C37.3335 25.1443 37.8558 25.6666 38.5002 25.6666Z" fill="url(#paint24_linear_547_48774)"/>
<path d="M38.5002 31.5C39.1445 31.5 39.6668 30.9777 39.6668 30.3334C39.6668 29.689 39.1445 29.1667 38.5002 29.1667C37.8558 29.1667 37.3335 29.689 37.3335 30.3334C37.3335 30.9777 37.8558 31.5 38.5002 31.5Z" fill="url(#paint25_linear_547_48774)"/>
<path d="M38.5002 37.3333C39.1445 37.3333 39.6668 36.811 39.6668 36.1667C39.6668 35.5223 39.1445 35 38.5002 35C37.8558 35 37.3335 35.5223 37.3335 36.1667C37.3335 36.811 37.8558 37.3333 38.5002 37.3333Z" fill="url(#paint26_linear_547_48774)"/>
<path d="M38.5002 43.1666C39.1445 43.1666 39.6668 42.6443 39.6668 42C39.6668 41.3556 39.1445 40.8333 38.5002 40.8333C37.8558 40.8333 37.3335 41.3556 37.3335 42C37.3335 42.6443 37.8558 43.1666 38.5002 43.1666Z" fill="url(#paint27_linear_547_48774)"/>
<path d="M38.5002 49C39.1445 49 39.6668 48.4777 39.6668 47.8334C39.6668 47.189 39.1445 46.6667 38.5002 46.6667C37.8558 46.6667 37.3335 47.189 37.3335 47.8334C37.3335 48.4777 37.8558 49 38.5002 49Z" fill="url(#paint28_linear_547_48774)"/>
<defs>
<linearGradient id="paint0_linear_547_48774" x1="22.014" y1="5.72485" x2="25.4533" y2="59.7579" gradientUnits="userSpaceOnUse">
<stop stop-color="#F45560"/>
<stop offset="1" stop-color="#CF1928"/>
</linearGradient>
<linearGradient id="paint1_linear_547_48774" x1="47.3365" y1="14.1703" x2="48.3398" y2="20.895" gradientUnits="userSpaceOnUse">
<stop stop-color="#F45560"/>
<stop offset="1" stop-color="#CF1928"/>
</linearGradient>
<linearGradient id="paint2_linear_547_48774" x1="23.9165" y1="33.4402" x2="23.9165" y2="39.697" gradientUnits="userSpaceOnUse">
<stop offset="0.415" stop-color="#323538"/>
<stop offset="0.593" stop-color="#404649"/>
<stop offset="0.796" stop-color="#4B5255"/>
<stop offset="1" stop-color="#4E5659"/>
</linearGradient>
<linearGradient id="paint3_linear_547_48774" x1="31.4427" y1="18.8207" x2="32.6875" y2="29.869" gradientUnits="userSpaceOnUse">
<stop stop-color="#FFDA1C"/>
<stop offset="1" stop-color="#FEB705"/>
</linearGradient>
<linearGradient id="paint4_linear_547_48774" x1="23.2762" y1="18.8207" x2="24.521" y2="29.869" gradientUnits="userSpaceOnUse">
<stop stop-color="#FFDA1C"/>
<stop offset="1" stop-color="#FEB705"/>
</linearGradient>
<linearGradient id="paint5_linear_547_48774" x1="15.1097" y1="18.8207" x2="16.3545" y2="29.869" gradientUnits="userSpaceOnUse">
<stop stop-color="#FFDA1C"/>
<stop offset="1" stop-color="#FEB705"/>
</linearGradient>
<linearGradient id="paint6_linear_547_48774" x1="23.9165" y1="39.6737" x2="23.9165" y2="43.5669" gradientUnits="userSpaceOnUse">
<stop stop-color="#889097"/>
<stop offset="0.237" stop-color="#838B93"/>
<stop offset="0.525" stop-color="#747E86"/>
<stop offset="0.838" stop-color="#5C6771"/>
<stop offset="1" stop-color="#4C5963"/>
</linearGradient>
<linearGradient id="paint7_linear_547_48774" x1="20.6957" y1="7.06767" x2="21.2463" y2="9.05333" gradientUnits="userSpaceOnUse">
<stop stop-color="#FFDA1C"/>
<stop offset="1" stop-color="#FEB705"/>
</linearGradient>
<linearGradient id="paint8_linear_547_48774" x1="15.2345" y1="9.18981" x2="15.9812" y2="10.9993" gradientUnits="userSpaceOnUse">
<stop stop-color="#FFDA1C"/>
<stop offset="1" stop-color="#FEB705"/>
</linearGradient>
<linearGradient id="paint9_linear_547_48774" x1="11.4368" y1="12.9325" x2="11.8685" y2="14.938" gradientUnits="userSpaceOnUse">
<stop stop-color="#FFDA1C"/>
<stop offset="1" stop-color="#FEB705"/>
</linearGradient>
<linearGradient id="paint10_linear_547_48774" x1="8.96684" y1="17.5583" x2="9.65517" y2="19.6432" gradientUnits="userSpaceOnUse">
<stop stop-color="#FFDA1C"/>
<stop offset="1" stop-color="#FEB705"/>
</linearGradient>
<linearGradient id="paint11_linear_547_48774" x1="8.96684" y1="23.3916" x2="9.65517" y2="25.4765" gradientUnits="userSpaceOnUse">
<stop stop-color="#FFDA1C"/>
<stop offset="1" stop-color="#FEB705"/>
</linearGradient>
<linearGradient id="paint12_linear_547_48774" x1="8.96684" y1="29.225" x2="9.65517" y2="31.3099" gradientUnits="userSpaceOnUse">
<stop stop-color="#FFDA1C"/>
<stop offset="1" stop-color="#FEB705"/>
</linearGradient>
<linearGradient id="paint13_linear_547_48774" x1="8.96684" y1="35.0583" x2="9.65517" y2="37.1432" gradientUnits="userSpaceOnUse">
<stop stop-color="#FFDA1C"/>
<stop offset="1" stop-color="#FEB705"/>
</linearGradient>
<linearGradient id="paint14_linear_547_48774" x1="8.96684" y1="40.8916" x2="9.65517" y2="42.9765" gradientUnits="userSpaceOnUse">
<stop stop-color="#FFDA1C"/>
<stop offset="1" stop-color="#FEB705"/>
</linearGradient>
<linearGradient id="paint15_linear_547_48774" x1="8.96684" y1="46.725" x2="9.65517" y2="48.8099" gradientUnits="userSpaceOnUse">
<stop stop-color="#FFDA1C"/>
<stop offset="1" stop-color="#FEB705"/>
</linearGradient>
<linearGradient id="paint16_linear_547_48774" x1="14.8003" y1="46.725" x2="15.4887" y2="48.8099" gradientUnits="userSpaceOnUse">
<stop stop-color="#FFDA1C"/>
<stop offset="1" stop-color="#FEB705"/>
</linearGradient>
<linearGradient id="paint17_linear_547_48774" x1="20.6338" y1="46.725" x2="21.3222" y2="48.8099" gradientUnits="userSpaceOnUse">
<stop stop-color="#FFDA1C"/>
<stop offset="1" stop-color="#FEB705"/>
</linearGradient>
<linearGradient id="paint18_linear_547_48774" x1="26.4668" y1="46.725" x2="27.1552" y2="48.8099" gradientUnits="userSpaceOnUse">
<stop stop-color="#FFDA1C"/>
<stop offset="1" stop-color="#FEB705"/>
</linearGradient>
<linearGradient id="paint19_linear_547_48774" x1="32.3003" y1="46.725" x2="32.9887" y2="48.8099" gradientUnits="userSpaceOnUse">
<stop stop-color="#FFDA1C"/>
<stop offset="1" stop-color="#FEB705"/>
</linearGradient>
<linearGradient id="paint20_linear_547_48774" x1="27.1377" y1="7.06767" x2="26.587" y2="9.05333" gradientUnits="userSpaceOnUse">
<stop stop-color="#FFDA1C"/>
<stop offset="1" stop-color="#FEB705"/>
</linearGradient>
<linearGradient id="paint21_linear_547_48774" x1="32.5988" y1="9.18981" x2="31.8522" y2="10.9993" gradientUnits="userSpaceOnUse">
<stop stop-color="#FFDA1C"/>
<stop offset="1" stop-color="#FEB705"/>
</linearGradient>
<linearGradient id="paint22_linear_547_48774" x1="36.3965" y1="12.9325" x2="35.9648" y2="14.938" gradientUnits="userSpaceOnUse">
<stop stop-color="#FFDA1C"/>
<stop offset="1" stop-color="#FEB705"/>
</linearGradient>
<linearGradient id="paint23_linear_547_48774" x1="38.8665" y1="17.5583" x2="38.1782" y2="19.6432" gradientUnits="userSpaceOnUse">
<stop stop-color="#FFDA1C"/>
<stop offset="1" stop-color="#FEB705"/>
</linearGradient>
<linearGradient id="paint24_linear_547_48774" x1="38.8665" y1="23.3916" x2="38.1782" y2="25.4765" gradientUnits="userSpaceOnUse">
<stop stop-color="#FFDA1C"/>
<stop offset="1" stop-color="#FEB705"/>
</linearGradient>
<linearGradient id="paint25_linear_547_48774" x1="38.8665" y1="29.225" x2="38.1782" y2="31.3099" gradientUnits="userSpaceOnUse">
<stop stop-color="#FFDA1C"/>
<stop offset="1" stop-color="#FEB705"/>
</linearGradient>
<linearGradient id="paint26_linear_547_48774" x1="38.8665" y1="35.0583" x2="38.1782" y2="37.1432" gradientUnits="userSpaceOnUse">
<stop stop-color="#FFDA1C"/>
<stop offset="1" stop-color="#FEB705"/>
</linearGradient>
<linearGradient id="paint27_linear_547_48774" x1="38.8665" y1="40.8916" x2="38.1782" y2="42.9765" gradientUnits="userSpaceOnUse">
<stop stop-color="#FFDA1C"/>
<stop offset="1" stop-color="#FEB705"/>
</linearGradient>
<linearGradient id="paint28_linear_547_48774" x1="38.8665" y1="46.725" x2="38.1782" y2="48.8099" gradientUnits="userSpaceOnUse">
<stop stop-color="#FFDA1C"/>
<stop offset="1" stop-color="#FEB705"/>
</linearGradient>
</defs>
</svg>
