<svg width="808" height="720" viewBox="0 0 808 720" fill="none" xmlns="http://www.w3.org/2000/svg">
<mask id="mask0_1526_38481" style="mask-type:alpha" maskUnits="userSpaceOnUse" x="0" y="68" width="808" height="594">
<path d="M654.251 88.4691C641.43 75.7339 623.985 68.5713 605.786 68.5713H201.772C183.573 68.5713 166.128 75.7338 153.307 88.469L19.8213 221.068C-6.80486 247.517 -6.57656 290.26 20.3306 316.432L355.384 642.32C381.974 668.183 424.704 668.183 451.295 642.32L786.792 315.999C813.699 289.828 813.927 247.085 787.301 220.636L654.251 88.4691Z" fill="#C4C4C4"/>
</mask>
<g mask="url(#mask0_1526_38481)">
<path fill-rule="evenodd" clip-rule="evenodd" d="M605.786 68.5713C623.984 68.5713 641.43 75.7339 654.251 88.4691L709.4 143.252C515.042 121.932 412.8 239.176 381.279 325.216C581.567 251.659 644.959 340.176 653.387 445.755L451.294 642.32C424.704 668.183 381.973 668.183 355.383 642.32L20.3304 316.432C-6.5768 290.26 -6.80511 247.517 19.821 221.068L153.307 88.469C166.127 75.7338 183.573 68.5713 201.772 68.5713H605.786Z" fill="url(#paint0_linear_1526_38481)"/>
<path fill-rule="evenodd" clip-rule="evenodd" d="M888.135 89.4479L916.307 117.434C942.644 143.595 946.624 183.322 928.37 213.585C593.858 45.1475 427.979 206.362 383.212 320.138C399.167 198.666 522.322 0.421036 888.135 89.4479Z" fill="url(#paint1_linear_1526_38481)" fill-opacity="0.45"/>
</g>
<defs>
<linearGradient id="paint0_linear_1526_38481" x1="89.9064" y1="68.5681" x2="558.497" y2="69.2239" gradientUnits="userSpaceOnUse">
<stop stop-color="#355CFF"/>
<stop offset="1" stop-color="#CA15FC"/>
</linearGradient>
<linearGradient id="paint1_linear_1526_38481" x1="503.217" y1="123.874" x2="658.7" y2="322.259" gradientUnits="userSpaceOnUse">
<stop stop-color="white"/>
<stop offset="1" stop-color="white" stop-opacity="0"/>
</linearGradient>
</defs>
</svg>
