<svg width="129" height="30" viewBox="0 0 129 30" fill="none" xmlns="http://www.w3.org/2000/svg">
<path d="M51.1281 29.984C49.7841 29.984 48.5361 29.776 47.3841 29.36C46.2481 28.928 45.2561 28.32 44.4081 27.536C43.5761 26.752 42.9281 25.824 42.4641 24.752C42.0001 23.68 41.7681 22.496 41.7681 21.2C41.7681 19.904 42.0001 18.72 42.4641 17.648C42.9281 16.576 43.5761 15.648 44.4081 14.864C45.2561 14.08 46.2481 13.48 47.3841 13.064C48.5361 12.632 49.7841 12.416 51.1281 12.416C52.7761 12.416 54.2321 12.704 55.4961 13.28C56.7761 13.856 57.8321 14.688 58.6641 15.776L55.0881 18.968C54.5921 18.344 54.0401 17.864 53.4321 17.528C52.8401 17.176 52.1681 17 51.4161 17C50.8241 17 50.2881 17.096 49.8081 17.288C49.3281 17.48 48.9121 17.76 48.5601 18.128C48.2241 18.496 47.9601 18.944 47.7681 19.472C47.5761 19.984 47.4801 20.56 47.4801 21.2C47.4801 21.84 47.5761 22.424 47.7681 22.952C47.9601 23.464 48.2241 23.904 48.5601 24.272C48.9121 24.64 49.3281 24.92 49.8081 25.112C50.2881 25.304 50.8241 25.4 51.4161 25.4C52.1681 25.4 52.8401 25.232 53.4321 24.896C54.0401 24.544 54.5921 24.056 55.0881 23.432L58.6641 26.624C57.8321 27.696 56.7761 28.528 55.4961 29.12C54.2321 29.696 52.7761 29.984 51.1281 29.984Z" fill="#1A2034"/>
<path d="M68.0754 29.6V27.272L67.6914 26.648V22.232C67.6914 21.592 67.4914 21.104 67.0914 20.768C66.7074 20.432 66.0754 20.264 65.1954 20.264C64.6034 20.264 64.0034 20.36 63.3954 20.552C62.7874 20.728 62.2674 20.976 61.8354 21.296L60.1074 17.72C60.8754 17.24 61.7954 16.872 62.8674 16.616C63.9394 16.36 64.9874 16.232 66.0114 16.232C68.2674 16.232 70.0114 16.736 71.2434 17.744C72.4914 18.752 73.1154 20.352 73.1154 22.544V29.6H68.0754ZM64.3554 29.84C63.2834 29.84 62.3874 29.656 61.6674 29.288C60.9474 28.92 60.4034 28.432 60.0354 27.824C59.6674 27.2 59.4834 26.512 59.4834 25.76C59.4834 24.912 59.6994 24.192 60.1314 23.6C60.5634 23.008 61.2194 22.56 62.0994 22.256C62.9954 21.952 64.1234 21.8 65.4834 21.8H68.2194V24.416H66.3474C65.7714 24.416 65.3474 24.512 65.0754 24.704C64.8194 24.88 64.6914 25.152 64.6914 25.52C64.6914 25.824 64.8034 26.08 65.0274 26.288C65.2674 26.48 65.5874 26.576 65.9874 26.576C66.3554 26.576 66.6914 26.48 66.9954 26.288C67.3154 26.08 67.5474 25.76 67.6914 25.328L68.3874 26.936C68.1794 27.912 67.7394 28.64 67.0674 29.12C66.3954 29.6 65.4914 29.84 64.3554 29.84Z" fill="#1A2034"/>
<path d="M80.5956 29.84C79.4756 29.84 78.3716 29.72 77.2836 29.48C76.1956 29.24 75.3156 28.928 74.6436 28.544L76.1316 24.968C76.7556 25.336 77.4756 25.624 78.2916 25.832C79.1236 26.04 79.9316 26.144 80.7156 26.144C81.3716 26.144 81.8116 26.088 82.0356 25.976C82.2756 25.864 82.3956 25.712 82.3956 25.52C82.3956 25.328 82.2596 25.192 81.9876 25.112C81.7156 25.016 81.3556 24.944 80.9076 24.896C80.4596 24.848 79.9636 24.792 79.4196 24.728C78.8916 24.648 78.3556 24.536 77.8116 24.392C77.2676 24.248 76.7716 24.032 76.3236 23.744C75.8756 23.456 75.5156 23.072 75.2436 22.592C74.9716 22.096 74.8356 21.472 74.8356 20.72C74.8356 19.888 75.0836 19.136 75.5796 18.464C76.0916 17.792 76.8436 17.256 77.8356 16.856C78.8436 16.44 80.0836 16.232 81.5556 16.232C82.5156 16.232 83.4756 16.32 84.4356 16.496C85.3956 16.672 86.2196 16.944 86.9076 17.312L85.4196 20.888C84.7476 20.52 84.0836 20.272 83.4276 20.144C82.7876 20 82.1876 19.928 81.6276 19.928C80.9396 19.928 80.4676 19.992 80.2116 20.12C79.9716 20.248 79.8516 20.392 79.8516 20.552C79.8516 20.744 79.9876 20.888 80.2596 20.984C80.5316 21.08 80.8916 21.152 81.3396 21.2C81.7876 21.248 82.2756 21.312 82.8036 21.392C83.3476 21.456 83.8836 21.568 84.4116 21.728C84.9556 21.872 85.4516 22.088 85.8996 22.376C86.3476 22.664 86.7076 23.056 86.9796 23.552C87.2516 24.032 87.3876 24.648 87.3876 25.4C87.3876 26.184 87.1396 26.92 86.6436 27.608C86.1476 28.28 85.3956 28.824 84.3876 29.24C83.3796 29.64 82.1156 29.84 80.5956 29.84Z" fill="#1A2034"/>
<path d="M89.0299 29.6V16.472H94.4539V29.6H89.0299ZM91.7419 15.416C90.7499 15.416 89.9579 15.152 89.3659 14.624C88.7739 14.096 88.4779 13.44 88.4779 12.656C88.4779 11.872 88.7739 11.216 89.3659 10.688C89.9579 10.16 90.7499 9.896 91.7419 9.896C92.7339 9.896 93.5259 10.144 94.1179 10.64C94.7099 11.136 95.0059 11.776 95.0059 12.56C95.0059 13.392 94.7099 14.08 94.1179 14.624C93.5259 15.152 92.7339 15.416 91.7419 15.416Z" fill="#1A2034"/>
<path d="M105.978 16.232C106.986 16.232 107.898 16.44 108.714 16.856C109.53 17.256 110.17 17.888 110.634 18.752C111.114 19.616 111.354 20.736 111.354 22.112V29.6H105.93V23.048C105.93 22.232 105.786 21.656 105.498 21.32C105.21 20.968 104.818 20.792 104.322 20.792C103.954 20.792 103.61 20.88 103.29 21.056C102.986 21.216 102.738 21.488 102.546 21.872C102.37 22.256 102.282 22.776 102.282 23.432V29.6H96.858V16.472H102.018V20.312L100.986 19.208C101.498 18.216 102.186 17.472 103.05 16.976C103.93 16.48 104.906 16.232 105.978 16.232Z" fill="#1A2034"/>
<path d="M120.88 29.84C119.392 29.84 118.072 29.552 116.92 28.976C115.784 28.384 114.888 27.576 114.232 26.552C113.576 25.528 113.248 24.352 113.248 23.024C113.248 21.696 113.576 20.52 114.232 19.496C114.888 18.472 115.784 17.672 116.92 17.096C118.072 16.52 119.392 16.232 120.88 16.232C122.368 16.232 123.688 16.52 124.84 17.096C125.992 17.672 126.888 18.472 127.528 19.496C128.184 20.52 128.512 21.696 128.512 23.024C128.512 24.352 128.184 25.528 127.528 26.552C126.888 27.576 125.992 28.384 124.84 28.976C123.688 29.552 122.368 29.84 120.88 29.84ZM120.88 25.616C121.28 25.616 121.64 25.52 121.96 25.328C122.28 25.136 122.536 24.848 122.728 24.464C122.92 24.064 123.016 23.584 123.016 23.024C123.016 22.448 122.92 21.976 122.728 21.608C122.536 21.224 122.28 20.936 121.96 20.744C121.64 20.552 121.28 20.456 120.88 20.456C120.48 20.456 120.12 20.552 119.8 20.744C119.48 20.936 119.224 21.224 119.032 21.608C118.84 21.976 118.744 22.448 118.744 23.024C118.744 23.584 118.84 24.064 119.032 24.464C119.224 24.848 119.48 25.136 119.8 25.328C120.12 25.52 120.48 25.616 120.88 25.616Z" fill="#1A2034"/>
<path d="M43.416 7.6L41 2H42.4L44.512 6.96H43.688L45.832 2H47.12L44.696 7.6H43.416Z" fill="#1A2034"/>
<path d="M46.6641 7.6L49.1601 2H50.4401L52.9441 7.6H51.5841L49.5361 2.656H50.0481L47.9921 7.6H46.6641ZM47.9121 6.4L48.2561 5.416H51.1361L51.4881 6.4H47.9121Z" fill="#1A2034"/>
<path d="M53.5251 7.6V2H56.2611C56.9651 2 57.4931 2.13333 57.8451 2.4C58.2024 2.66667 58.3811 3.01867 58.3811 3.456C58.3811 3.74933 58.3091 4.00533 58.1651 4.224C58.0211 4.43733 57.8237 4.60267 57.5731 4.72C57.3224 4.83733 57.0344 4.896 56.7091 4.896L56.8611 4.568C57.2131 4.568 57.5251 4.62667 57.7971 4.744C58.0691 4.856 58.2797 5.024 58.4291 5.248C58.5837 5.472 58.6611 5.74667 58.6611 6.072C58.6611 6.552 58.4717 6.928 58.0931 7.2C57.7144 7.46667 57.1571 7.6 56.4211 7.6H53.5251ZM54.8131 6.624H56.3251C56.6611 6.624 56.9144 6.57067 57.0851 6.464C57.2611 6.352 57.3491 6.176 57.3491 5.936C57.3491 5.70133 57.2611 5.528 57.0851 5.416C56.9144 5.29867 56.6611 5.24 56.3251 5.24H54.7171V4.296H56.1011C56.4157 4.296 56.6557 4.24267 56.8211 4.136C56.9917 4.024 57.0771 3.856 57.0771 3.632C57.0771 3.41333 56.9917 3.25067 56.8211 3.144C56.6557 3.032 56.4157 2.976 56.1011 2.976H54.8131V6.624Z" fill="#1A2034"/>
<path d="M58.9062 7.6L61.4023 2H62.6823L65.1863 7.6H63.8263L61.7782 2.656H62.2903L60.2342 7.6H58.9062ZM60.1542 6.4L60.4983 5.416H63.3783L63.7302 6.4H60.1542Z" fill="#1A2034"/>
<path d="M65.7673 7.6V2H66.8393L70.1432 6.032H69.6232V2H70.9032V7.6H69.8393L66.5273 3.568H67.0473V7.6H65.7673Z" fill="#1A2034"/>
<path d="M73.3882 6.32L73.3162 4.824L75.9962 2H77.4362L75.0202 4.6L74.3002 5.368L73.3882 6.32ZM72.2282 7.6V2H73.5162V7.6H72.2282ZM76.0602 7.6L74.0682 5.16L74.9162 4.24L77.5722 7.6H76.0602Z" fill="#1A2034"/>
<mask id="mask0_1520_15263" style="mask-type:alpha" maskUnits="userSpaceOnUse" x="0" y="0" width="40" height="30">
<path d="M32.2542 0.994888C31.6221 0.358128 30.7621 0 29.8649 0H9.94724C9.05006 0 8.18999 0.358126 7.55795 0.994883L0.977177 7.62479C-0.335476 8.94724 -0.32422 11.0844 1.00229 12.393L17.5202 28.6873C18.8311 29.9805 20.9377 29.9805 22.2485 28.6873L38.7884 12.3714C40.1149 11.0628 40.1261 8.92564 38.8135 7.60319L32.2542 0.994888Z" fill="#C4C4C4"/>
</mask>
<g mask="url(#mask0_1520_15263)">
<path fill-rule="evenodd" clip-rule="evenodd" d="M29.8649 0C30.7621 0 31.6221 0.358128 32.2542 0.994888L34.9731 3.73407C25.3913 2.66805 20.3508 8.53025 18.7968 12.8322C28.6709 9.15441 31.7961 13.5802 32.2116 18.8592L22.2486 28.6873C20.9377 29.9805 18.8311 29.9805 17.5202 28.6873L1.00229 12.393C-0.32422 11.0844 -0.335476 8.94724 0.977177 7.62479L7.55795 0.994883C8.18999 0.358126 9.05006 0 9.94724 0H29.8649Z" fill="url(#paint0_linear_1520_15263)"/>
<path fill-rule="evenodd" clip-rule="evenodd" d="M43.7854 1.04475L45.1733 2.44301C46.4714 3.75082 46.6678 5.73664 45.7685 7.24964C29.2775 -1.17232 21.0996 6.88779 18.8923 12.5766C19.6802 6.50274 25.7526 -3.40664 43.7854 1.04475Z" fill="url(#paint1_linear_1520_15263)" fill-opacity="0.45"/>
</g>
<defs>
<linearGradient id="paint0_linear_1520_15263" x1="4.43236" y1="-0.00016014" x2="27.5337" y2="0.031719" gradientUnits="userSpaceOnUse">
<stop stop-color="#355CFF"/>
<stop offset="1" stop-color="#CA15FC"/>
</linearGradient>
<linearGradient id="paint1_linear_1520_15263" x1="24.8084" y1="2.76527" x2="32.6063" y2="12.5771" gradientUnits="userSpaceOnUse">
<stop stop-color="white"/>
<stop offset="1" stop-color="white" stop-opacity="0"/>
</linearGradient>
</defs>
</svg>
