
<svg width="16" height="16" viewBox="0 0 16 16" fill="none" xmlns="http://www.w3.org/2000/svg">
<path d="M11.625 0.96875H4.375C3.82344 0.96875 3.375 1.41719 3.375 1.96875V13.9688C3.375 14.5203 3.82344 14.9688 4.375 14.9688H11.625C12.1766 14.9688 12.625 14.5203 12.625 13.9688V1.96875C12.625 1.41719 12.1766 0.96875 11.625 0.96875ZM11.5 13.8438H4.5V2.09375H11.5V13.8438ZM7.375 12.25C7.375 12.4158 7.44085 12.5747 7.55806 12.6919C7.67527 12.8092 7.83424 12.875 8 12.875C8.16576 12.875 8.32473 12.8092 8.44194 12.6919C8.55915 12.5747 8.625 12.4158 8.625 12.25C8.625 12.0842 8.55915 11.9253 8.44194 11.8081C8.32473 11.6908 8.16576 11.625 8 11.625C7.83424 11.625 7.67527 11.6908 7.55806 11.8081C7.44085 11.9253 7.375 12.0842 7.375 12.25Z" fill="white"/>
</svg>
